ISO-10303-21;
HEADER;
FILE_DESCRIPTION (( 'STEP AP214' ),
    '1' );
FILE_NAME ('APG06033.STEP',
    '2015-07-30T22:34:10',
    ( 'admin' ),
    ( '' ),
    'SwSTEP 2.0',
    'SolidWorks 2012',
    '' );
FILE_SCHEMA (( 'AUTOMOTIVE_DESIGN' ));
ENDSEC;

DATA;
#1 = COLOUR_RGB ( '',0.7921568627450980000, 0.8196078431372548800, 0.9333333333333333500 ) ;
#2 = COLOUR_RGB ( '',0.7921568627450980000, 0.8196078431372548800, 0.9333333333333333500 ) ;
#3 = COLOUR_RGB ( '',0.7921568627450980000, 0.8196078431372548800, 0.9333333333333333500 ) ;
#4 = EDGE_CURVE ( 'NONE', #571, #605, #610, .T. ) ;
#5 = CLOSED_SHELL ( 'NONE', ( #414, #413, #412, #411, #410, #409 ) ) ;
#6 = CLOSED_SHELL ( 'NONE', ( #402, #401, #400, #399, #398, #397 ) ) ;
#7 = CLOSED_SHELL ( 'NONE', ( #33, #17, #30, #21, #388, #31, #29, #18, #389, #390, #391, #392, #393, #394, #395, #396 ) ) ;
#8 = AXIS2_PLACEMENT_3D ( 'NONE', #614, #615, #616 ) ;
#9 = CLOSED_SHELL ( 'NONE', ( #408, #407, #406, #405, #404, #403 ) ) ;
#10 = FACE_OUTER_BOUND ( 'NONE', #564, .T. ) ;
#11 = FACE_OUTER_BOUND ( 'NONE', #547, .T. ) ;
#12 = VECTOR ( 'NONE', #743, 1000.000000000000000 ) ;
#13 = VECTOR ( 'NONE', #612, 1000.000000000000000 ) ;
#14 = UNCERTAINTY_MEASURE_WITH_UNIT (LENGTH_MEASURE( 1.000000000000000100E-005 ), #310, 'distance_accuracy_value', 'NONE');
#15 = UNCERTAINTY_MEASURE_WITH_UNIT (LENGTH_MEASURE( 1.000000000000000100E-005 ), #275, 'distance_accuracy_value', 'NONE');
#16 = UNCERTAINTY_MEASURE_WITH_UNIT (LENGTH_MEASURE( 1.000000000000000100E-005 ), #301, 'distance_accuracy_value', 'NONE');
#17 = ADVANCED_FACE ( 'NONE', ( #11 ), #613, .T. ) ;
#18 = ADVANCED_FACE ( 'NONE', ( #633 ), #617, .F. ) ;
#19 = EDGE_CURVE ( 'NONE', #580, #578, #621, .T. ) ;
#20 = EDGE_CURVE ( 'NONE', #967, #966, #625, .T. ) ;
#21 = ADVANCED_FACE ( 'NONE', ( #10 ), #624, .T. ) ;
#22 = EDGE_CURVE ( 'NONE', #583, #970, #631, .T. ) ;
#23 = EDGE_CURVE ( 'NONE', #968, #971, #644, .T. ) ;
#24 = EDGE_CURVE ( 'NONE', #969, #972, #647, .T. ) ;
#25 = EDGE_CURVE ( 'NONE', #579, #580, #650, .T. ) ;
#26 = EDGE_CURVE ( 'NONE', #966, #971, #653, .T. ) ;
#27 = EDGE_CURVE ( 'NONE', #972, #968, #656, .T. ) ;
#28 = EDGE_CURVE ( 'NONE', #969, #967, #659, .T. ) ;
#29 = ADVANCED_FACE ( 'NONE', ( #638 ), #643, .F. ) ;
#30 = ADVANCED_FACE ( 'NONE', ( #686 ), #665, .T. ) ;
#31 = ADVANCED_FACE ( 'NONE', ( #687, #685, #636 ), #669, .T. ) ;
#32 = EDGE_CURVE ( 'NONE', #972, #966, #673, .T. ) ;
#33 = ADVANCED_FACE ( 'NONE', ( #690 ), #676, .T. ) ;
#34 = EDGE_CURVE ( 'NONE', #608, #571, #700, .T. ) ;
#35 = EDGE_CURVE ( 'NONE', #606, #609, #704, .T. ) ;
#36 = EDGE_CURVE ( 'NONE', #608, #604, #707, .T. ) ;
#37 = EDGE_CURVE ( 'NONE', #609, #608, #710, .T. ) ;
#38 = EDGE_CURVE ( 'NONE', #605, #607, #713, .T. ) ;
#39 = EDGE_CURVE ( 'NONE', #607, #606, #716, .T. ) ;
#40 = EDGE_CURVE ( 'NONE', #604, #605, #719, .T. ) ;
#41 = EDGE_CURVE ( 'NONE', #606, #604, #722, .T. ) ;
#42 = EDGE_CURVE ( 'NONE', #603, #601, #725, .T. ) ;
#43 = EDGE_CURVE ( 'NONE', #602, #603, #728, .T. ) ;
#44 = EDGE_CURVE ( 'NONE', #603, #546, #731, .T. ) ;
#45 = EDGE_CURVE ( 'NONE', #602, #544, #741, .T. ) ;
#46 = EDGE_CURVE ( 'NONE', #600, #602, #744, .T. ) ;
#47 = EDGE_CURVE ( 'NONE', #545, #601, #747, .T. ) ;
#48 = EDGE_CURVE ( 'NONE', #601, #600, #750, .T. ) ;
#49 = EDGE_CURVE ( 'NONE', #600, #543, #753, .T. ) ;
#50 = EDGE_CURVE ( 'NONE', #544, #546, #756, .T. ) ;
#51 = EDGE_CURVE ( 'NONE', #546, #545, #759, .T. ) ;
#52 = EDGE_CURVE ( 'NONE', #543, #544, #762, .T. ) ;
#53 = EDGE_CURVE ( 'NONE', #545, #543, #765, .T. ) ;
#54 = EDGE_CURVE ( 'NONE', #539, #542, #768, .T. ) ;
#55 = EDGE_CURVE ( 'NONE', #542, #976, #771, .T. ) ;
#56 = EDGE_CURVE ( 'NONE', #542, #541, #774, .T. ) ;
#57 = EDGE_CURVE ( 'NONE', #541, #975, #792, .T. ) ;
#58 = EDGE_CURVE ( 'NONE', #541, #540, #795, .T. ) ;
#59 = EDGE_CURVE ( 'NONE', #540, #973, #798, .T. ) ;
#60 = EDGE_CURVE ( 'NONE', #540, #539, #801, .T. ) ;
#61 = EDGE_CURVE ( 'NONE', #539, #974, #804, .T. ) ;
#62 = EDGE_CURVE ( 'NONE', #981, #538, #807, .T. ) ;
#63 = EDGE_CURVE ( 'NONE', #538, #980, #810, .T. ) ;
#64 = EDGE_CURVE ( 'NONE', #538, #537, #813, .T. ) ;
#65 = EDGE_CURVE ( 'NONE', #537, #979, #816, .T. ) ;
#66 = EDGE_CURVE ( 'NONE', #537, #428, #819, .T. ) ;
#67 = EDGE_CURVE ( 'NONE', #428, #977, #822, .T. ) ;
#68 = EDGE_CURVE ( 'NONE', #428, #981, #825, .T. ) ;
#69 = EDGE_CURVE ( 'NONE', #981, #978, #844, .T. ) ;
#70 = EDGE_CURVE ( 'NONE', #978, #980, #847, .T. ) ;
#71 = EDGE_CURVE ( 'NONE', #980, #979, #850, .T. ) ;
#72 = EDGE_CURVE ( 'NONE', #977, #978, #853, .T. ) ;
#73 = EDGE_CURVE ( 'NONE', #974, #976, #856, .T. ) ;
#74 = EDGE_CURVE ( 'NONE', #979, #977, #859, .T. ) ;
#75 = EDGE_CURVE ( 'NONE', #976, #975, #862, .T. ) ;
#76 = EDGE_CURVE ( 'NONE', #975, #973, #865, .T. ) ;
#77 = EDGE_CURVE ( 'NONE', #973, #974, #868, .T. ) ;
#78 = EDGE_CURVE ( 'NONE', #968, #583, #871, .T. ) ;
#79 = EDGE_CURVE ( 'NONE', #970, #967, #874, .T. ) ;
#80 = EDGE_CURVE ( 'NONE', #971, #970, #877, .T. ) ;
#81 = EDGE_CURVE ( 'NONE', #583, #969, #890, .T. ) ;
#82 = ADVANCED_BREP_SHAPE_REPRESENTATION ( 'APG06033', ( #557, #556, #558, #553, #348 ), #90 ) ;
#83 = UNCERTAINTY_MEASURE_WITH_UNIT (LENGTH_MEASURE( 1.000000000000000100E-005 ), #367, 'distance_accuracy_value', 'NONE');
#84 = UNCERTAINTY_MEASURE_WITH_UNIT (LENGTH_MEASURE( 1.000000000000000100E-005 ), #377, 'distance_accuracy_value', 'NONE');
#85 = UNCERTAINTY_MEASURE_WITH_UNIT (LENGTH_MEASURE( 1.000000000000000100E-005 ), #319, 'distance_accuracy_value', 'NONE');
#86 =( GEOMETRIC_REPRESENTATION_CONTEXT ( 3 ) GLOBAL_UNCERTAINTY_ASSIGNED_CONTEXT ( ( #16 ) ) GLOBAL_UNIT_ASSIGNED_CONTEXT ( ( #301, #302, #303 ) ) REPRESENTATION_CONTEXT ( 'NONE', 'WORKASPACE' ) );
#87 =( GEOMETRIC_REPRESENTATION_CONTEXT ( 3 ) GLOBAL_UNCERTAINTY_ASSIGNED_CONTEXT ( ( #15 ) ) GLOBAL_UNIT_ASSIGNED_CONTEXT ( ( #275, #276, #277 ) ) REPRESENTATION_CONTEXT ( 'NONE', 'WORKASPACE' ) );
#88 =( GEOMETRIC_REPRESENTATION_CONTEXT ( 3 ) GLOBAL_UNCERTAINTY_ASSIGNED_CONTEXT ( ( #14 ) ) GLOBAL_UNIT_ASSIGNED_CONTEXT ( ( #310, #311, #312 ) ) REPRESENTATION_CONTEXT ( 'NONE', 'WORKASPACE' ) );
#89 =( GEOMETRIC_REPRESENTATION_CONTEXT ( 3 ) GLOBAL_UNCERTAINTY_ASSIGNED_CONTEXT ( ( #85 ) ) GLOBAL_UNIT_ASSIGNED_CONTEXT ( ( #319, #320, #321 ) ) REPRESENTATION_CONTEXT ( 'NONE', 'WORKASPACE' ) );
#90 =( GEOMETRIC_REPRESENTATION_CONTEXT ( 3 ) GLOBAL_UNCERTAINTY_ASSIGNED_CONTEXT ( ( #83 ) ) GLOBAL_UNIT_ASSIGNED_CONTEXT ( ( #367, #368, #369 ) ) REPRESENTATION_CONTEXT ( 'NONE', 'WORKASPACE' ) );
#91 =( GEOMETRIC_REPRESENTATION_CONTEXT ( 3 ) GLOBAL_UNCERTAINTY_ASSIGNED_CONTEXT ( ( #84 ) ) GLOBAL_UNIT_ASSIGNED_CONTEXT ( ( #377, #378, #379 ) ) REPRESENTATION_CONTEXT ( 'NONE', 'WORKASPACE' ) );
#92 = FACE_OUTER_BOUND ( 'NONE', #584, .T. ) ;
#93 = FACE_OUTER_BOUND ( 'NONE', #550, .T. ) ;
#94 = AXIS2_PLACEMENT_3D ( 'NONE', #111, #112, #113 ) ;
#95 = AXIS2_PLACEMENT_3D ( 'NONE', #905, #906, #907 ) ;
#96 = FACE_OUTER_BOUND ( 'NONE', #551, .T. ) ;
#97 = FACE_OUTER_BOUND ( 'NONE', #552, .T. ) ;
#98 = AXIS2_PLACEMENT_3D ( 'NONE', #909, #910, #911 ) ;
#99 = FACE_OUTER_BOUND ( 'NONE', #926, .T. ) ;
#100 = AXIS2_PLACEMENT_3D ( 'NONE', #913, #914, #915 ) ;
#101 = FACE_OUTER_BOUND ( 'NONE', #927, .T. ) ;
#102 = AXIS2_PLACEMENT_3D ( 'NONE', #917, #918, #919 ) ;
#103 = FACE_OUTER_BOUND ( 'NONE', #928, .T. ) ;
#104 = AXIS2_PLACEMENT_3D ( 'NONE', #921, #922, #923 ) ;
#105 = FACE_OUTER_BOUND ( 'NONE', #592, .T. ) ;
#106 = AXIS2_PLACEMENT_3D ( 'NONE', #925, #108, #109 ) ;
#107 = PRODUCT ( 'APG06033', 'APG06033', '', ( #384 ) ) ;
#108 = DIRECTION ( 'NONE',  ( 0.0000000000000000000, 0.0000000000000000000, -1.000000000000000000 ) ) ;
#109 = DIRECTION ( 'NONE',  ( -1.000000000000000000, 0.0000000000000000000, -0.0000000000000000000 ) ) ;
#110 = PLANE ( 'NONE',  #94 ) ;
#111 = CARTESIAN_POINT ( 'NONE',  ( 264.3058436131290100, 96.33092980478380700, 0.08000000000000000200 ) ) ;
#112 = DIRECTION ( 'NONE',  ( 0.0000000000000000000, 0.0000000000000000000, -1.000000000000000000 ) ) ;
#113 = DIRECTION ( 'NONE',  ( -1.000000000000000000, 0.0000000000000000000, -0.0000000000000000000 ) ) ;
#114 = PLANE ( 'NONE',  #146 ) ;
#115 = CARTESIAN_POINT ( 'NONE',  ( 264.9558436131289900, 96.33092980478380700, 0.2000000000000000100 ) ) ;
#116 = DIRECTION ( 'NONE',  ( 0.0000000000000000000, -1.000000000000000000, 0.0000000000000000000 ) ) ;
#117 = DIRECTION ( 'NONE',  ( 0.0000000000000000000, -0.0000000000000000000, -1.000000000000000000 ) ) ;
#118 = PLANE ( 'NONE',  #149 ) ;
#119 = CARTESIAN_POINT ( 'NONE',  ( 264.9558436131289900, 96.33092980478380700, 0.08000000000000000200 ) ) ;
#120 = DIRECTION ( 'NONE',  ( 1.000000000000000000, 0.0000000000000000000, 0.0000000000000000000 ) ) ;
#121 = DIRECTION ( 'NONE',  ( 0.0000000000000000000, 0.0000000000000000000, -1.000000000000000000 ) ) ;
#122 = PLANE ( 'NONE',  #152 ) ;
#123 = CARTESIAN_POINT ( 'NONE',  ( 264.3058436131290100, 96.68092980478380100, 0.2000000000000000100 ) ) ;
#124 = DIRECTION ( 'NONE',  ( -0.0000000000000000000, 1.000000000000000000, 0.0000000000000000000 ) ) ;
#125 = DIRECTION ( 'NONE',  ( 0.0000000000000000000, -0.0000000000000000000, 1.000000000000000000 ) ) ;
#126 = PLANE ( 'NONE',  #154 ) ;
#127 = CARTESIAN_POINT ( 'NONE',  ( 264.3058436131290100, 96.68092980478380100, 0.08000000000000000200 ) ) ;
#128 = DIRECTION ( 'NONE',  ( -1.000000000000000000, 0.0000000000000000000, 0.0000000000000000000 ) ) ;
#129 = DIRECTION ( 'NONE',  ( 0.0000000000000000000, 0.0000000000000000000, 1.000000000000000000 ) ) ;
#130 = PLANE ( 'NONE',  #156 ) ;
#131 = CARTESIAN_POINT ( 'NONE',  ( 264.3058436131290100, 96.33092980478380700, 0.2000000000000000100 ) ) ;
#132 = DIRECTION ( 'NONE',  ( 0.0000000000000000000, 0.0000000000000000000, 1.000000000000000000 ) ) ;
#133 = DIRECTION ( 'NONE',  ( 1.000000000000000000, 0.0000000000000000000, -0.0000000000000000000 ) ) ;
#134 = PLANE ( 'NONE',  #158 ) ;
#135 = CARTESIAN_POINT ( 'NONE',  ( 264.3558436131290300, 96.38092980478380400, 0.0000000000000000000 ) ) ;
#136 = DIRECTION ( 'NONE',  ( 0.0000000000000000000, 0.0000000000000000000, -1.000000000000000000 ) ) ;
#137 = DIRECTION ( 'NONE',  ( -1.000000000000000000, 0.0000000000000000000, -0.0000000000000000000 ) ) ;
#138 = PLANE ( 'NONE',  #889 ) ;
#139 = CARTESIAN_POINT ( 'NONE',  ( 264.3558436131290300, 96.38092980478380400, 0.03000000000000000200 ) ) ;
#140 = DIRECTION ( 'NONE',  ( 0.0000000000000000000, -1.000000000000000000, 0.0000000000000000000 ) ) ;
#141 = DIRECTION ( 'NONE',  ( 0.0000000000000000000, -0.0000000000000000000, -1.000000000000000000 ) ) ;
#142 = PLANE ( 'NONE',  #148 ) ;
#143 = CARTESIAN_POINT ( 'NONE',  ( 264.5308436131289800, 96.38092980478380400, 0.0000000000000000000 ) ) ;
#144 = FACE_OUTER_BOUND ( 'NONE', #593, .T. ) ;
#145 = VECTOR ( 'NONE', #234, 1000.000000000000000 ) ;
#146 = AXIS2_PLACEMENT_3D ( 'NONE', #115, #116, #117 ) ;
#147 = FACE_OUTER_BOUND ( 'NONE', #594, .T. ) ;
#148 = AXIS2_PLACEMENT_3D ( 'NONE', #143, #159, #160 ) ;
#149 = AXIS2_PLACEMENT_3D ( 'NONE', #119, #120, #121 ) ;
#150 = FACE_OUTER_BOUND ( 'NONE', #595, .T. ) ;
#151 = FACE_OUTER_BOUND ( 'NONE', #596, .T. ) ;
#152 = AXIS2_PLACEMENT_3D ( 'NONE', #123, #124, #125 ) ;
#153 = FACE_OUTER_BOUND ( 'NONE', #597, .T. ) ;
#154 = AXIS2_PLACEMENT_3D ( 'NONE', #127, #128, #129 ) ;
#155 = FACE_OUTER_BOUND ( 'NONE', #598, .T. ) ;
#156 = AXIS2_PLACEMENT_3D ( 'NONE', #131, #132, #133 ) ;
#157 = FACE_OUTER_BOUND ( 'NONE', #599, .T. ) ;
#158 = AXIS2_PLACEMENT_3D ( 'NONE', #135, #136, #137 ) ;
#159 = DIRECTION ( 'NONE',  ( 1.000000000000000000, 0.0000000000000000000, 0.0000000000000000000 ) ) ;
#160 = DIRECTION ( 'NONE',  ( 0.0000000000000000000, 0.0000000000000000000, -1.000000000000000000 ) ) ;
#161 = PLANE ( 'NONE',  #196 ) ;
#162 = CARTESIAN_POINT ( 'NONE',  ( 264.3558436131290300, 96.63092980478380400, 0.03000000000000000200 ) ) ;
#163 = DIRECTION ( 'NONE',  ( -0.0000000000000000000, 1.000000000000000000, 0.0000000000000000000 ) ) ;
#164 = DIRECTION ( 'NONE',  ( 0.0000000000000000000, -0.0000000000000000000, 1.000000000000000000 ) ) ;
#165 = PLANE ( 'NONE',  #199 ) ;
#166 = CARTESIAN_POINT ( 'NONE',  ( 264.3558436131290300, 96.63092980478380400, 0.0000000000000000000 ) ) ;
#167 = DIRECTION ( 'NONE',  ( -1.000000000000000000, 0.0000000000000000000, 0.0000000000000000000 ) ) ;
#168 = DIRECTION ( 'NONE',  ( 0.0000000000000000000, 0.0000000000000000000, 1.000000000000000000 ) ) ;
#169 = PLANE ( 'NONE',  #201 ) ;
#170 = CARTESIAN_POINT ( 'NONE',  ( 264.3558436131290300, 96.38092980478380400, 0.03000000000000000200 ) ) ;
#171 = DIRECTION ( 'NONE',  ( 0.0000000000000000000, 0.0000000000000000000, 1.000000000000000000 ) ) ;
#172 = DIRECTION ( 'NONE',  ( 1.000000000000000000, 0.0000000000000000000, -0.0000000000000000000 ) ) ;
#173 = PLANE ( 'NONE',  #203 ) ;
#174 = CARTESIAN_POINT ( 'NONE',  ( 264.7308436131290300, 96.38092980478380400, 0.0000000000000000000 ) ) ;
#175 = DIRECTION ( 'NONE',  ( 0.0000000000000000000, 0.0000000000000000000, -1.000000000000000000 ) ) ;
#176 = DIRECTION ( 'NONE',  ( -1.000000000000000000, 0.0000000000000000000, -0.0000000000000000000 ) ) ;
#177 = PLANE ( 'NONE',  #205 ) ;
#178 = CARTESIAN_POINT ( 'NONE',  ( 264.9058436131289800, 96.38092980478380400, 0.03000000000000000200 ) ) ;
#179 = DIRECTION ( 'NONE',  ( 0.0000000000000000000, -1.000000000000000000, 0.0000000000000000000 ) ) ;
#180 = DIRECTION ( 'NONE',  ( 0.0000000000000000000, -0.0000000000000000000, -1.000000000000000000 ) ) ;
#181 = PLANE ( 'NONE',  #207 ) ;
#182 = CARTESIAN_POINT ( 'NONE',  ( 264.9058436131289800, 96.38092980478380400, 0.0000000000000000000 ) ) ;
#183 = DIRECTION ( 'NONE',  ( 1.000000000000000000, 0.0000000000000000000, 0.0000000000000000000 ) ) ;
#184 = DIRECTION ( 'NONE',  ( 0.0000000000000000000, 0.0000000000000000000, -1.000000000000000000 ) ) ;
#185 = PLANE ( 'NONE',  #209 ) ;
#186 = CARTESIAN_POINT ( 'NONE',  ( 264.7308436131290300, 96.63092980478380400, 0.03000000000000000200 ) ) ;
#187 = DIRECTION ( 'NONE',  ( -0.0000000000000000000, 1.000000000000000000, 0.0000000000000000000 ) ) ;
#188 = DIRECTION ( 'NONE',  ( 0.0000000000000000000, -0.0000000000000000000, 1.000000000000000000 ) ) ;
#189 = PLANE ( 'NONE',  #211 ) ;
#190 = CARTESIAN_POINT ( 'NONE',  ( 264.7308436131290300, 96.63092980478380400, 0.0000000000000000000 ) ) ;
#191 = DIRECTION ( 'NONE',  ( -1.000000000000000000, 0.0000000000000000000, 0.0000000000000000000 ) ) ;
#192 = DIRECTION ( 'NONE',  ( 0.0000000000000000000, 0.0000000000000000000, 1.000000000000000000 ) ) ;
#193 = PLANE ( 'NONE',  #212 ) ;
#194 = CARTESIAN_POINT ( 'NONE',  ( 264.7308436131290300, 96.38092980478380400, 0.03000000000000000200 ) ) ;
#195 = FACE_OUTER_BOUND ( 'NONE', #585, .T. ) ;
#196 = AXIS2_PLACEMENT_3D ( 'NONE', #162, #163, #164 ) ;
#197 = FACE_OUTER_BOUND ( 'NONE', #586, .T. ) ;
#198 = FACE_OUTER_BOUND ( 'NONE', #587, .T. ) ;
#199 = AXIS2_PLACEMENT_3D ( 'NONE', #166, #167, #168 ) ;
#200 = FACE_OUTER_BOUND ( 'NONE', #588, .T. ) ;
#201 = AXIS2_PLACEMENT_3D ( 'NONE', #170, #171, #172 ) ;
#202 = FACE_OUTER_BOUND ( 'NONE', #589, .T. ) ;
#203 = AXIS2_PLACEMENT_3D ( 'NONE', #174, #175, #176 ) ;
#204 = FACE_OUTER_BOUND ( 'NONE', #590, .T. ) ;
#205 = AXIS2_PLACEMENT_3D ( 'NONE', #178, #179, #180 ) ;
#206 = FACE_OUTER_BOUND ( 'NONE', #591, .T. ) ;
#207 = AXIS2_PLACEMENT_3D ( 'NONE', #182, #183, #184 ) ;
#208 = FACE_OUTER_BOUND ( 'NONE', #581, .T. ) ;
#209 = AXIS2_PLACEMENT_3D ( 'NONE', #186, #187, #188 ) ;
#210 = FACE_OUTER_BOUND ( 'NONE', #582, .T. ) ;
#211 = AXIS2_PLACEMENT_3D ( 'NONE', #190, #191, #192 ) ;
#212 = AXIS2_PLACEMENT_3D ( 'NONE', #194, #217, #218 ) ;
#213 = VECTOR ( 'NONE', #221, 1000.000000000000000 ) ;
#214 = VECTOR ( 'NONE', #225, 1000.000000000000000 ) ;
#215 = VECTOR ( 'NONE', #228, 1000.000000000000000 ) ;
#216 = VECTOR ( 'NONE', #231, 1000.000000000000000 ) ;
#217 = DIRECTION ( 'NONE',  ( 0.0000000000000000000, 0.0000000000000000000, 1.000000000000000000 ) ) ;
#218 = DIRECTION ( 'NONE',  ( 1.000000000000000000, 0.0000000000000000000, -0.0000000000000000000 ) ) ;
#219 = LINE ( 'NONE', #220, #213 ) ;
#220 = CARTESIAN_POINT ( 'NONE',  ( 264.3558436131290300, 96.63092980478380400, 0.0000000000000000000 ) ) ;
#221 = DIRECTION ( 'NONE',  ( -0.0000000000000000000, -0.0000000000000000000, -1.000000000000000000 ) ) ;
#222 = CARTESIAN_POINT ( 'NONE',  ( 264.5308436131289800, 96.38092980478380400, 0.03000000000000000200 ) ) ;
#223 = LINE ( 'NONE', #224, #214 ) ;
#224 = CARTESIAN_POINT ( 'NONE',  ( 264.3558436131290300, 96.63092980478380400, 0.03000000000000000200 ) ) ;
#225 = DIRECTION ( 'NONE',  ( -1.000000000000000000, -0.0000000000000000000, 0.0000000000000000000 ) ) ;
#226 = LINE ( 'NONE', #227, #215 ) ;
#227 = CARTESIAN_POINT ( 'NONE',  ( 264.3558436131290300, 96.38092980478380400, 0.03000000000000000200 ) ) ;
#228 = DIRECTION ( 'NONE',  ( 0.0000000000000000000, -1.000000000000000000, -0.0000000000000000000 ) ) ;
#229 = LINE ( 'NONE', #230, #216 ) ;
#230 = CARTESIAN_POINT ( 'NONE',  ( 264.9058436131289800, 96.38092980478380400, 0.0000000000000000000 ) ) ;
#231 = DIRECTION ( 'NONE',  ( 1.000000000000000000, 0.0000000000000000000, 0.0000000000000000000 ) ) ;
#232 = LINE ( 'NONE', #233, #145 ) ;
#233 = CARTESIAN_POINT ( 'NONE',  ( 264.9058436131289800, 96.38092980478380400, 0.0000000000000000000 ) ) ;
#234 = DIRECTION ( 'NONE',  ( -0.0000000000000000000, 1.000000000000000000, 0.0000000000000000000 ) ) ;
#235 = LINE ( 'NONE', #236, #280 ) ;
#236 = CARTESIAN_POINT ( 'NONE',  ( 264.7308436131290300, 96.63092980478380400, 0.0000000000000000000 ) ) ;
#237 = DIRECTION ( 'NONE',  ( -0.0000000000000000000, -1.000000000000000000, 0.0000000000000000000 ) ) ;
#238 = LINE ( 'NONE', #239, #282 ) ;
#239 = CARTESIAN_POINT ( 'NONE',  ( 264.7308436131290300, 96.63092980478380400, 0.0000000000000000000 ) ) ;
#240 = DIRECTION ( 'NONE',  ( -1.000000000000000000, -0.0000000000000000000, -0.0000000000000000000 ) ) ;
#241 = LINE ( 'NONE', #242, #283 ) ;
#242 = CARTESIAN_POINT ( 'NONE',  ( 264.9058436131289800, 96.38092980478380400, 0.0000000000000000000 ) ) ;
#243 = DIRECTION ( 'NONE',  ( 0.0000000000000000000, 0.0000000000000000000, -1.000000000000000000 ) ) ;
#244 = LINE ( 'NONE', #245, #284 ) ;
#245 = CARTESIAN_POINT ( 'NONE',  ( 264.7308436131290300, 96.38092980478380400, 0.03000000000000000200 ) ) ;
#246 = DIRECTION ( 'NONE',  ( 1.000000000000000000, 0.0000000000000000000, -0.0000000000000000000 ) ) ;
#247 = LINE ( 'NONE', #248, #285 ) ;
#248 = CARTESIAN_POINT ( 'NONE',  ( 264.7308436131290300, 96.38092980478380400, 0.0000000000000000000 ) ) ;
#249 = DIRECTION ( 'NONE',  ( 0.0000000000000000000, 0.0000000000000000000, 1.000000000000000000 ) ) ;
#250 = LINE ( 'NONE', #251, #286 ) ;
#251 = CARTESIAN_POINT ( 'NONE',  ( 264.9058436131289800, 96.38092980478380400, 0.03000000000000000200 ) ) ;
#252 = DIRECTION ( 'NONE',  ( -0.0000000000000000000, 1.000000000000000000, 0.0000000000000000000 ) ) ;
#253 = LINE ( 'NONE', #254, #287 ) ;
#254 = CARTESIAN_POINT ( 'NONE',  ( 264.9058436131289800, 96.63092980478380400, 0.03000000000000000200 ) ) ;
#255 = DIRECTION ( 'NONE',  ( -0.0000000000000000000, 0.0000000000000000000, -1.000000000000000000 ) ) ;
#256 = LINE ( 'NONE', #257, #289 ) ;
#257 = CARTESIAN_POINT ( 'NONE',  ( 264.7308436131290300, 96.63092980478380400, 0.0000000000000000000 ) ) ;
#258 = DIRECTION ( 'NONE',  ( -0.0000000000000000000, -0.0000000000000000000, -1.000000000000000000 ) ) ;
#259 = CARTESIAN_POINT ( 'NONE',  ( 264.3558436131290300, 96.38092980478380400, 0.03000000000000000200 ) ) ;
#260 = CARTESIAN_POINT ( 'NONE',  ( 264.5308436131289800, 96.63092980478380400, 0.03000000000000000200 ) ) ;
#261 = CARTESIAN_POINT ( 'NONE',  ( 264.7308436131290300, 96.63092980478380400, 0.03000000000000000200 ) ) ;
#262 = CARTESIAN_POINT ( 'NONE',  ( 264.7308436131290300, 96.38092980478380400, 0.03000000000000000200 ) ) ;
#263 = CARTESIAN_POINT ( 'NONE',  ( 264.9058436131289800, 96.38092980478380400, 0.03000000000000000200 ) ) ;
#264 = CARTESIAN_POINT ( 'NONE',  ( 264.9058436131289800, 96.63092980478380400, 0.03000000000000000200 ) ) ;
#265 = CARTESIAN_POINT ( 'NONE',  ( 264.9558436131289900, 96.33092980478380700, 0.08000000000000000200 ) ) ;
#266 = CARTESIAN_POINT ( 'NONE',  ( 264.9558436131289900, 96.68092980478380100, 0.08000000000000000200 ) ) ;
#267 = CARTESIAN_POINT ( 'NONE',  ( 264.3058436131290100, 96.33092980478380700, 0.08000000000000000200 ) ) ;
#268 = CARTESIAN_POINT ( 'NONE',  ( 264.3058436131290100, 96.68092980478380100, 0.08000000000000000200 ) ) ;
#269 = FILL_AREA_STYLE_COLOUR ( '', #1 ) ;
#270 = FILL_AREA_STYLE ('',( #269 ) ) ;
#271 = SURFACE_STYLE_FILL_AREA ( #270 ) ;
#272 = SURFACE_SIDE_STYLE ('',( #271 ) ) ;
#273 = SURFACE_STYLE_USAGE ( .BOTH. , #272 ) ;
#274 = PRESENTATION_STYLE_ASSIGNMENT (( #273 ) ) ;
#275 =( LENGTH_UNIT ( ) NAMED_UNIT ( * ) SI_UNIT ( .MILLI., .METRE. ) );
#276 =( NAMED_UNIT ( * ) PLANE_ANGLE_UNIT ( ) SI_UNIT ( $, .RADIAN. ) );
#277 =( NAMED_UNIT ( * ) SI_UNIT ( $, .STERADIAN. ) SOLID_ANGLE_UNIT ( ) );
#278 = FILL_AREA_STYLE_COLOUR ( '', #3 ) ;
#279 = FILL_AREA_STYLE ('',( #278 ) ) ;
#280 = VECTOR ( 'NONE', #237, 1000.000000000000000 ) ;
#281 = STYLED_ITEM ( 'NONE', ( #274 ), #553 ) ;
#282 = VECTOR ( 'NONE', #240, 1000.000000000000000 ) ;
#283 = VECTOR ( 'NONE', #243, 1000.000000000000000 ) ;
#284 = VECTOR ( 'NONE', #246, 1000.000000000000000 ) ;
#285 = VECTOR ( 'NONE', #249, 1000.000000000000000 ) ;
#286 = VECTOR ( 'NONE', #252, 1000.000000000000000 ) ;
#287 = VECTOR ( 'NONE', #255, 1000.000000000000000 ) ;
#288 = PRESENTATION_LAYER_ASSIGNMENT (  '', '', ( #281 ) ) ;
#289 = VECTOR ( 'NONE', #258, 1000.000000000000000 ) ;
#290 = MECHANICAL_DESIGN_GEOMETRIC_PRESENTATION_REPRESENTATION (  '', ( #281 ), #87 ) ;
#291 = STYLED_ITEM ( 'NONE', ( #300 ), #556 ) ;
#292 = PRESENTATION_LAYER_ASSIGNMENT (  '', '', ( #291 ) ) ;
#293 = MECHANICAL_DESIGN_GEOMETRIC_PRESENTATION_REPRESENTATION (  '', ( #291 ), #86 ) ;
#294 = STYLED_ITEM ( 'NONE', ( #309 ), #557 ) ;
#295 = PRESENTATION_LAYER_ASSIGNMENT (  '', '', ( #294 ) ) ;
#296 = MECHANICAL_DESIGN_GEOMETRIC_PRESENTATION_REPRESENTATION (  '', ( #294 ), #88 ) ;
#297 = SURFACE_STYLE_FILL_AREA ( #279 ) ;
#298 = SURFACE_SIDE_STYLE ('',( #297 ) ) ;
#299 = SURFACE_STYLE_USAGE ( .BOTH. , #298 ) ;
#300 = PRESENTATION_STYLE_ASSIGNMENT (( #299 ) ) ;
#301 =( LENGTH_UNIT ( ) NAMED_UNIT ( * ) SI_UNIT ( .MILLI., .METRE. ) );
#302 =( NAMED_UNIT ( * ) PLANE_ANGLE_UNIT ( ) SI_UNIT ( $, .RADIAN. ) );
#303 =( NAMED_UNIT ( * ) SI_UNIT ( $, .STERADIAN. ) SOLID_ANGLE_UNIT ( ) );
#304 = FILL_AREA_STYLE_COLOUR ( '', #2 ) ;
#305 = FILL_AREA_STYLE ('',( #304 ) ) ;
#306 = SURFACE_STYLE_FILL_AREA ( #305 ) ;
#307 = SURFACE_SIDE_STYLE ('',( #306 ) ) ;
#308 = SURFACE_STYLE_USAGE ( .BOTH. , #307 ) ;
#309 = PRESENTATION_STYLE_ASSIGNMENT (( #308 ) ) ;
#310 =( LENGTH_UNIT ( ) NAMED_UNIT ( * ) SI_UNIT ( .MILLI., .METRE. ) );
#311 =( NAMED_UNIT ( * ) PLANE_ANGLE_UNIT ( ) SI_UNIT ( $, .RADIAN. ) );
#312 =( NAMED_UNIT ( * ) SI_UNIT ( $, .STERADIAN. ) SOLID_ANGLE_UNIT ( ) );
#313 = FILL_AREA_STYLE_COLOUR ( '', #559 ) ;
#314 = FILL_AREA_STYLE ('',( #313 ) ) ;
#315 = SURFACE_STYLE_FILL_AREA ( #314 ) ;
#316 = SURFACE_SIDE_STYLE ('',( #315 ) ) ;
#317 = SURFACE_STYLE_USAGE ( .BOTH. , #316 ) ;
#318 = PRESENTATION_STYLE_ASSIGNMENT (( #317 ) ) ;
#319 =( LENGTH_UNIT ( ) NAMED_UNIT ( * ) SI_UNIT ( .MILLI., .METRE. ) );
#320 =( NAMED_UNIT ( * ) PLANE_ANGLE_UNIT ( ) SI_UNIT ( $, .RADIAN. ) );
#321 =( NAMED_UNIT ( * ) SI_UNIT ( $, .STERADIAN. ) SOLID_ANGLE_UNIT ( ) );
#322 = CARTESIAN_POINT ( 'NONE',  ( 264.5308436131289800, 96.63092980478380400, 0.03000000000000000200 ) ) ;
#323 = CARTESIAN_POINT ( 'NONE',  ( 264.3558436131290300, 96.63092980478380400, 0.03000000000000000200 ) ) ;
#324 = CARTESIAN_POINT ( 'NONE',  ( 264.9058436131289800, 96.38092980478380400, 0.0000000000000000000 ) ) ;
#325 = CARTESIAN_POINT ( 'NONE',  ( 264.9058436131289800, 96.63092980478380400, 0.0000000000000000000 ) ) ;
#326 = CARTESIAN_POINT ( 'NONE',  ( 264.7308436131290300, 96.38092980478380400, 0.0000000000000000000 ) ) ;
#327 = CARTESIAN_POINT ( 'NONE',  ( 264.7308436131290300, 96.63092980478380400, 0.0000000000000000000 ) ) ;
#328 = CARTESIAN_POINT ( 'NONE',  ( 264.9058436131289800, 96.38092980478380400, 0.03000000000000000200 ) ) ;
#329 = CARTESIAN_POINT ( 'NONE',  ( 264.7308436131290300, 96.38092980478380400, 0.03000000000000000200 ) ) ;
#330 = CARTESIAN_POINT ( 'NONE',  ( 264.9058436131289800, 96.63092980478380400, 0.03000000000000000200 ) ) ;
#331 = CARTESIAN_POINT ( 'NONE',  ( 264.7308436131290300, 96.63092980478380400, 0.03000000000000000200 ) ) ;
#332 = CARTESIAN_POINT ( 'NONE',  ( 264.9558436131289900, 96.33092980478380700, 0.08000000000000000200 ) ) ;
#333 = CARTESIAN_POINT ( 'NONE',  ( 264.9558436131289900, 96.33092980478380700, 0.2000000000000000100 ) ) ;
#334 = CARTESIAN_POINT ( 'NONE',  ( 264.3058436131290100, 96.33092980478380700, 0.2000000000000000100 ) ) ;
#335 = CARTESIAN_POINT ( 'NONE',  ( 264.9558436131289900, 96.68092980478380100, 0.2000000000000000100 ) ) ;
#336 = CARTESIAN_POINT ( 'NONE',  ( 264.3058436131290100, 96.68092980478380100, 0.2000000000000000100 ) ) ;
#337 = CARTESIAN_POINT ( 'NONE',  ( 264.5308436131289800, 96.38092980478380400, 0.0000000000000000000 ) ) ;
#338 = CARTESIAN_POINT ( 'NONE',  ( 264.5308436131289800, 96.63092980478380400, 0.0000000000000000000 ) ) ;
#339 = CARTESIAN_POINT ( 'NONE',  ( 264.3558436131290300, 96.38092980478380400, 0.0000000000000000000 ) ) ;
#340 = CARTESIAN_POINT ( 'NONE',  ( 264.3558436131290300, 96.63092980478380400, 0.0000000000000000000 ) ) ;
#341 = CARTESIAN_POINT ( 'NONE',  ( 264.5308436131289800, 96.38092980478380400, 0.03000000000000000200 ) ) ;
#342 = STYLED_ITEM ( 'NONE', ( #318 ), #558 ) ;
#343 = PRESENTATION_LAYER_ASSIGNMENT (  '', '', ( #342 ) ) ;
#344 = MECHANICAL_DESIGN_GEOMETRIC_PRESENTATION_REPRESENTATION (  '', ( #342 ), #89 ) ;
#345 = STYLED_ITEM ( 'NONE', ( #376 ), #82 ) ;
#346 = PRESENTATION_LAYER_ASSIGNMENT (  '', '', ( #345 ) ) ;
#347 = MECHANICAL_DESIGN_GEOMETRIC_PRESENTATION_REPRESENTATION (  '', ( #345 ), #91 ) ;
#348 = AXIS2_PLACEMENT_3D ( 'NONE', #380, #381, #382 ) ;
#349 = PRODUCT_DEFINITION_FORMATION_WITH_SPECIFIED_SOURCE ( 'ANY', '', #107, .NOT_KNOWN. ) ;
#350 = CARTESIAN_POINT ( 'NONE',  ( 264.3558436131290300, 96.38092980478380400, 0.03000000000000000200 ) ) ;
#351 = CARTESIAN_POINT ( 'NONE',  ( 264.3058436131290100, 96.68092980478380100, 0.0000000000000000000 ) ) ;
#352 = CARTESIAN_POINT ( 'NONE',  ( 264.3058436131290100, 96.33092980478380700, 0.0000000000000000000 ) ) ;
#353 = CARTESIAN_POINT ( 'NONE',  ( 264.9558436131289900, 96.68092980478380100, 0.08000000000000000200 ) ) ;
#354 = CARTESIAN_POINT ( 'NONE',  ( 264.3058436131290100, 96.33092980478380700, 0.08000000000000000200 ) ) ;
#355 = CARTESIAN_POINT ( 'NONE',  ( 264.9558436131289900, 96.33092980478380700, 0.0000000000000000000 ) ) ;
#356 = CARTESIAN_POINT ( 'NONE',  ( 264.9558436131289900, 96.68092980478380100, 0.0000000000000000000 ) ) ;
#357 = CARTESIAN_POINT ( 'NONE',  ( 264.3058436131290100, 96.68092980478380100, 0.08000000000000000200 ) ) ;
#358 = CARTESIAN_POINT ( 'NONE',  ( 264.7308436131290300, 96.38092980478380400, 0.0000000000000000000 ) ) ;
#359 = CARTESIAN_POINT ( 'NONE',  ( 264.7308436131290300, 96.63092980478380400, 0.0000000000000000000 ) ) ;
#360 = CARTESIAN_POINT ( 'NONE',  ( 264.9058436131289800, 96.38092980478380400, 0.0000000000000000000 ) ) ;
#361 = CARTESIAN_POINT ( 'NONE',  ( 264.9058436131289800, 96.63092980478380400, 0.0000000000000000000 ) ) ;
#362 = CARTESIAN_POINT ( 'NONE',  ( 264.3558436131290300, 96.38092980478380400, 0.0000000000000000000 ) ) ;
#363 = CARTESIAN_POINT ( 'NONE',  ( 264.3558436131290300, 96.63092980478380400, 0.0000000000000000000 ) ) ;
#364 = CARTESIAN_POINT ( 'NONE',  ( 264.5308436131289800, 96.38092980478380400, 0.0000000000000000000 ) ) ;
#365 = CARTESIAN_POINT ( 'NONE',  ( 264.5308436131289800, 96.63092980478380400, 0.0000000000000000000 ) ) ;
#366 = CARTESIAN_POINT ( 'NONE',  ( 264.3558436131290300, 96.63092980478380400, 0.03000000000000000200 ) ) ;
#367 =( LENGTH_UNIT ( ) NAMED_UNIT ( * ) SI_UNIT ( .MILLI., .METRE. ) );
#368 =( NAMED_UNIT ( * ) PLANE_ANGLE_UNIT ( ) SI_UNIT ( $, .RADIAN. ) );
#369 =( NAMED_UNIT ( * ) SI_UNIT ( $, .STERADIAN. ) SOLID_ANGLE_UNIT ( ) );
#370 = APPLICATION_PROTOCOL_DEFINITION ( 'draft international standard', 'automotive_design', 1998, #386 ) ;
#371 = FILL_AREA_STYLE_COLOUR ( '', #560 ) ;
#372 = FILL_AREA_STYLE ('',( #371 ) ) ;
#373 = SURFACE_STYLE_FILL_AREA ( #372 ) ;
#374 = SURFACE_SIDE_STYLE ('',( #373 ) ) ;
#375 = SURFACE_STYLE_USAGE ( .BOTH. , #374 ) ;
#376 = PRESENTATION_STYLE_ASSIGNMENT (( #375 ) ) ;
#377 =( LENGTH_UNIT ( ) NAMED_UNIT ( * ) SI_UNIT ( .MILLI., .METRE. ) );
#378 =( NAMED_UNIT ( * ) PLANE_ANGLE_UNIT ( ) SI_UNIT ( $, .RADIAN. ) );
#379 =( NAMED_UNIT ( * ) SI_UNIT ( $, .STERADIAN. ) SOLID_ANGLE_UNIT ( ) );
#380 = CARTESIAN_POINT ( 'NONE',  ( 0.0000000000000000000, 0.0000000000000000000, 0.0000000000000000000 ) ) ;
#381 = DIRECTION ( 'NONE',  ( 0.0000000000000000000, 0.0000000000000000000, 1.000000000000000000 ) ) ;
#382 = DIRECTION ( 'NONE',  ( 1.000000000000000000, 0.0000000000000000000, 0.0000000000000000000 ) ) ;
#383 = SHAPE_DEFINITION_REPRESENTATION ( #554, #82 ) ;
#384 = PRODUCT_CONTEXT ( 'NONE', #386, 'mechanical' ) ;
#385 = APPLICATION_PROTOCOL_DEFINITION ( 'draft international standard', 'automotive_design', 1998, #387 ) ;
#386 = APPLICATION_CONTEXT ( 'automotive_design' ) ;
#387 = APPLICATION_CONTEXT ( 'automotive_design' ) ;
#388 = ADVANCED_FACE ( 'NONE', ( #691 ), #703, .F. ) ;
#389 = ADVANCED_FACE ( 'NONE', ( #888 ), #896, .F. ) ;
#390 = ADVANCED_FACE ( 'NONE', ( #835 ), #900, .F. ) ;
#391 = ADVANCED_FACE ( 'NONE', ( #93 ), #904, .T. ) ;
#392 = ADVANCED_FACE ( 'NONE', ( #96 ), #908, .F. ) ;
#393 = ADVANCED_FACE ( 'NONE', ( #97 ), #912, .F. ) ;
#394 = ADVANCED_FACE ( 'NONE', ( #99 ), #916, .F. ) ;
#395 = ADVANCED_FACE ( 'NONE', ( #101 ), #920, .F. ) ;
#396 = ADVANCED_FACE ( 'NONE', ( #103 ), #924, .T. ) ;
#397 = ADVANCED_FACE ( 'NONE', ( #105 ), #110, .T. ) ;
#398 = ADVANCED_FACE ( 'NONE', ( #144 ), #114, .T. ) ;
#399 = ADVANCED_FACE ( 'NONE', ( #147 ), #118, .T. ) ;
#400 = ADVANCED_FACE ( 'NONE', ( #150 ), #122, .T. ) ;
#401 = ADVANCED_FACE ( 'NONE', ( #151 ), #126, .T. ) ;
#402 = ADVANCED_FACE ( 'NONE', ( #153 ), #130, .T. ) ;
#403 = ADVANCED_FACE ( 'NONE', ( #155 ), #134, .T. ) ;
#404 = ADVANCED_FACE ( 'NONE', ( #157 ), #138, .T. ) ;
#405 = ADVANCED_FACE ( 'NONE', ( #92 ), #142, .T. ) ;
#406 = ADVANCED_FACE ( 'NONE', ( #195 ), #161, .T. ) ;
#407 = ADVANCED_FACE ( 'NONE', ( #197 ), #165, .T. ) ;
#408 = ADVANCED_FACE ( 'NONE', ( #198 ), #169, .T. ) ;
#409 = ADVANCED_FACE ( 'NONE', ( #200 ), #173, .T. ) ;
#410 = ADVANCED_FACE ( 'NONE', ( #202 ), #177, .T. ) ;
#411 = ADVANCED_FACE ( 'NONE', ( #204 ), #181, .T. ) ;
#412 = ADVANCED_FACE ( 'NONE', ( #206 ), #185, .T. ) ;
#413 = ADVANCED_FACE ( 'NONE', ( #208 ), #189, .T. ) ;
#414 = ADVANCED_FACE ( 'NONE', ( #210 ), #193, .T. ) ;
#415 = EDGE_CURVE ( 'NONE', #572, #607, #219, .T. ) ;
#416 = EDGE_CURVE ( 'NONE', #571, #572, #223, .T. ) ;
#417 = EDGE_CURVE ( 'NONE', #572, #609, #226, .T. ) ;
#418 = EDGE_CURVE ( 'NONE', #575, #573, #229, .T. ) ;
#419 = EDGE_CURVE ( 'NONE', #573, #574, #232, .T. ) ;
#420 = EDGE_CURVE ( 'NONE', #576, #575, #235, .T. ) ;
#421 = EDGE_CURVE ( 'NONE', #574, #576, #238, .T. ) ;
#422 = EDGE_CURVE ( 'NONE', #577, #573, #241, .T. ) ;
#423 = EDGE_CURVE ( 'NONE', #578, #577, #244, .T. ) ;
#424 = EDGE_CURVE ( 'NONE', #575, #578, #247, .T. ) ;
#425 = EDGE_CURVE ( 'NONE', #577, #579, #250, .T. ) ;
#426 = EDGE_CURVE ( 'NONE', #579, #574, #253, .T. ) ;
#427 = EDGE_CURVE ( 'NONE', #580, #576, #256, .T. ) ;
#428 = VERTEX_POINT ( 'NONE', #259 ) ;
#429 = ORIENTED_EDGE ( 'NONE', *, *, #26, .F. ) ;
#430 = ORIENTED_EDGE ( 'NONE', *, *, #27, .T. ) ;
#431 = ORIENTED_EDGE ( 'NONE', *, *, #32, .F. ) ;
#432 = ORIENTED_EDGE ( 'NONE', *, *, #23, .T. ) ;
#433 = ORIENTED_EDGE ( 'NONE', *, *, #20, .F. ) ;
#434 = ORIENTED_EDGE ( 'NONE', *, *, #24, .T. ) ;
#435 = ORIENTED_EDGE ( 'NONE', *, *, #28, .F. ) ;
#436 = ORIENTED_EDGE ( 'NONE', *, *, #32, .T. ) ;
#437 = ORIENTED_EDGE ( 'NONE', *, *, #79, .F. ) ;
#438 = ORIENTED_EDGE ( 'NONE', *, *, #81, .T. ) ;
#439 = ORIENTED_EDGE ( 'NONE', *, *, #22, .F. ) ;
#440 = ORIENTED_EDGE ( 'NONE', *, *, #28, .T. ) ;
#441 = ORIENTED_EDGE ( 'NONE', *, *, #78, .T. ) ;
#442 = ORIENTED_EDGE ( 'NONE', *, *, #80, .F. ) ;
#443 = ORIENTED_EDGE ( 'NONE', *, *, #23, .F. ) ;
#444 = ORIENTED_EDGE ( 'NONE', *, *, #78, .F. ) ;
#445 = ORIENTED_EDGE ( 'NONE', *, *, #22, .T. ) ;
#446 = ORIENTED_EDGE ( 'NONE', *, *, #27, .F. ) ;
#447 = ORIENTED_EDGE ( 'NONE', *, *, #24, .F. ) ;
#448 = ORIENTED_EDGE ( 'NONE', *, *, #81, .F. ) ;
#449 = ORIENTED_EDGE ( 'NONE', *, *, #77, .F. ) ;
#450 = ORIENTED_EDGE ( 'NONE', *, *, #75, .F. ) ;
#451 = ORIENTED_EDGE ( 'NONE', *, *, #76, .F. ) ;
#452 = ORIENTED_EDGE ( 'NONE', *, *, #73, .F. ) ;
#453 = ORIENTED_EDGE ( 'NONE', *, *, #72, .F. ) ;
#454 = ORIENTED_EDGE ( 'NONE', *, *, #71, .F. ) ;
#455 = ORIENTED_EDGE ( 'NONE', *, *, #74, .F. ) ;
#456 = ORIENTED_EDGE ( 'NONE', *, *, #70, .F. ) ;
#457 = ORIENTED_EDGE ( 'NONE', *, *, #20, .T. ) ;
#458 = ORIENTED_EDGE ( 'NONE', *, *, #80, .T. ) ;
#459 = ORIENTED_EDGE ( 'NONE', *, *, #26, .T. ) ;
#460 = ORIENTED_EDGE ( 'NONE', *, *, #79, .T. ) ;
#461 = ORIENTED_EDGE ( 'NONE', *, *, #68, .F. ) ;
#462 = ORIENTED_EDGE ( 'NONE', *, *, #72, .T. ) ;
#463 = ORIENTED_EDGE ( 'NONE', *, *, #69, .F. ) ;
#464 = ORIENTED_EDGE ( 'NONE', *, *, #67, .T. ) ;
#465 = ORIENTED_EDGE ( 'NONE', *, *, #74, .T. ) ;
#466 = ORIENTED_EDGE ( 'NONE', *, *, #67, .F. ) ;
#467 = ORIENTED_EDGE ( 'NONE', *, *, #66, .F. ) ;
#468 = ORIENTED_EDGE ( 'NONE', *, *, #71, .T. ) ;
#469 = ORIENTED_EDGE ( 'NONE', *, *, #65, .T. ) ;
#470 = ORIENTED_EDGE ( 'NONE', *, *, #65, .F. ) ;
#471 = ORIENTED_EDGE ( 'NONE', *, *, #64, .F. ) ;
#472 = ORIENTED_EDGE ( 'NONE', *, *, #70, .T. ) ;
#473 = ORIENTED_EDGE ( 'NONE', *, *, #63, .T. ) ;
#474 = ORIENTED_EDGE ( 'NONE', *, *, #63, .F. ) ;
#475 = ORIENTED_EDGE ( 'NONE', *, *, #62, .F. ) ;
#476 = ORIENTED_EDGE ( 'NONE', *, *, #66, .T. ) ;
#477 = ORIENTED_EDGE ( 'NONE', *, *, #69, .T. ) ;
#478 = ORIENTED_EDGE ( 'NONE', *, *, #68, .T. ) ;
#479 = ORIENTED_EDGE ( 'NONE', *, *, #62, .T. ) ;
#480 = ORIENTED_EDGE ( 'NONE', *, *, #64, .T. ) ;
#481 = ORIENTED_EDGE ( 'NONE', *, *, #60, .F. ) ;
#482 = ORIENTED_EDGE ( 'NONE', *, *, #77, .T. ) ;
#483 = ORIENTED_EDGE ( 'NONE', *, *, #61, .F. ) ;
#484 = ORIENTED_EDGE ( 'NONE', *, *, #59, .T. ) ;
#485 = ORIENTED_EDGE ( 'NONE', *, *, #76, .T. ) ;
#486 = ORIENTED_EDGE ( 'NONE', *, *, #59, .F. ) ;
#487 = ORIENTED_EDGE ( 'NONE', *, *, #58, .F. ) ;
#488 = ORIENTED_EDGE ( 'NONE', *, *, #75, .T. ) ;
#489 = ORIENTED_EDGE ( 'NONE', *, *, #57, .T. ) ;
#490 = ORIENTED_EDGE ( 'NONE', *, *, #57, .F. ) ;
#491 = ORIENTED_EDGE ( 'NONE', *, *, #56, .F. ) ;
#492 = ORIENTED_EDGE ( 'NONE', *, *, #73, .T. ) ;
#493 = ORIENTED_EDGE ( 'NONE', *, *, #55, .T. ) ;
#494 = ORIENTED_EDGE ( 'NONE', *, *, #55, .F. ) ;
#495 = ORIENTED_EDGE ( 'NONE', *, *, #54, .F. ) ;
#496 = ORIENTED_EDGE ( 'NONE', *, *, #58, .T. ) ;
#497 = ORIENTED_EDGE ( 'NONE', *, *, #61, .T. ) ;
#498 = ORIENTED_EDGE ( 'NONE', *, *, #60, .T. ) ;
#499 = ORIENTED_EDGE ( 'NONE', *, *, #54, .T. ) ;
#500 = ORIENTED_EDGE ( 'NONE', *, *, #56, .T. ) ;
#501 = ORIENTED_EDGE ( 'NONE', *, *, #52, .F. ) ;
#502 = ORIENTED_EDGE ( 'NONE', *, *, #51, .F. ) ;
#503 = ORIENTED_EDGE ( 'NONE', *, *, #53, .F. ) ;
#504 = ORIENTED_EDGE ( 'NONE', *, *, #50, .F. ) ;
#505 = ORIENTED_EDGE ( 'NONE', *, *, #53, .T. ) ;
#506 = ORIENTED_EDGE ( 'NONE', *, *, #48, .F. ) ;
#507 = ORIENTED_EDGE ( 'NONE', *, *, #49, .F. ) ;
#508 = ORIENTED_EDGE ( 'NONE', *, *, #47, .F. ) ;
#509 = ORIENTED_EDGE ( 'NONE', *, *, #46, .F. ) ;
#510 = ORIENTED_EDGE ( 'NONE', *, *, #52, .T. ) ;
#511 = ORIENTED_EDGE ( 'NONE', *, *, #45, .F. ) ;
#512 = ORIENTED_EDGE ( 'NONE', *, *, #49, .T. ) ;
#513 = ORIENTED_EDGE ( 'NONE', *, *, #43, .F. ) ;
#514 = ORIENTED_EDGE ( 'NONE', *, *, #50, .T. ) ;
#515 = ORIENTED_EDGE ( 'NONE', *, *, #44, .F. ) ;
#516 = ORIENTED_EDGE ( 'NONE', *, *, #45, .T. ) ;
#517 = ORIENTED_EDGE ( 'NONE', *, *, #51, .T. ) ;
#518 = ORIENTED_EDGE ( 'NONE', *, *, #42, .F. ) ;
#519 = ORIENTED_EDGE ( 'NONE', *, *, #47, .T. ) ;
#520 = ORIENTED_EDGE ( 'NONE', *, *, #44, .T. ) ;
#521 = ORIENTED_EDGE ( 'NONE', *, *, #46, .T. ) ;
#522 = ORIENTED_EDGE ( 'NONE', *, *, #43, .T. ) ;
#523 = ORIENTED_EDGE ( 'NONE', *, *, #42, .T. ) ;
#524 = ORIENTED_EDGE ( 'NONE', *, *, #48, .T. ) ;
#525 = ORIENTED_EDGE ( 'NONE', *, *, #40, .F. ) ;
#526 = ORIENTED_EDGE ( 'NONE', *, *, #39, .F. ) ;
#527 = ORIENTED_EDGE ( 'NONE', *, *, #41, .F. ) ;
#528 = ORIENTED_EDGE ( 'NONE', *, *, #38, .F. ) ;
#529 = ORIENTED_EDGE ( 'NONE', *, *, #36, .F. ) ;
#530 = ORIENTED_EDGE ( 'NONE', *, *, #35, .F. ) ;
#531 = ORIENTED_EDGE ( 'NONE', *, *, #37, .F. ) ;
#532 = ORIENTED_EDGE ( 'NONE', *, *, #41, .T. ) ;
#533 = ORIENTED_EDGE ( 'NONE', *, *, #40, .T. ) ;
#534 = ORIENTED_EDGE ( 'NONE', *, *, #34, .F. ) ;
#535 = ORIENTED_EDGE ( 'NONE', *, *, #4, .F. ) ;
#536 = ORIENTED_EDGE ( 'NONE', *, *, #36, .T. ) ;
#537 = VERTEX_POINT ( 'NONE', #222 ) ;
#538 = VERTEX_POINT ( 'NONE', #260 ) ;
#539 = VERTEX_POINT ( 'NONE', #261 ) ;
#540 = VERTEX_POINT ( 'NONE', #262 ) ;
#541 = VERTEX_POINT ( 'NONE', #263 ) ;
#542 = VERTEX_POINT ( 'NONE', #264 ) ;
#543 = VERTEX_POINT ( 'NONE', #265 ) ;
#544 = VERTEX_POINT ( 'NONE', #266 ) ;
#545 = VERTEX_POINT ( 'NONE', #267 ) ;
#546 = VERTEX_POINT ( 'NONE', #268 ) ;
#547 = EDGE_LOOP ( 'NONE', ( #433, #435, #434, #436 ) ) ;
#548 = EDGE_LOOP ( 'NONE', ( #468, #470, #471, #473 ) ) ;
#549 = EDGE_LOOP ( 'NONE', ( #472, #474, #475, #477 ) ) ;
#550 = EDGE_LOOP ( 'NONE', ( #478, #479, #480, #476 ) ) ;
#551 = EDGE_LOOP ( 'NONE', ( #482, #483, #481, #484 ) ) ;
#552 = EDGE_LOOP ( 'NONE', ( #485, #486, #487, #489 ) ) ;
#553 = MANIFOLD_SOLID_BREP ( 'Imported5', #5 ) ;
#554 = PRODUCT_DEFINITION_SHAPE ( 'NONE', 'NONE',  #562 ) ;
#555 = PRODUCT_DEFINITION_CONTEXT ( 'detailed design', #387, 'design' ) ;
#556 = MANIFOLD_SOLID_BREP ( 'Imported3', #6 ) ;
#557 = MANIFOLD_SOLID_BREP ( 'Cut-Extrude2', #7 ) ;
#558 = MANIFOLD_SOLID_BREP ( 'Imported4', #9 ) ;
#559 = COLOUR_RGB ( '',0.7921568627450980000, 0.8196078431372548800, 0.9333333333333333500 ) ;
#560 = COLOUR_RGB ( '',0.7921568627450980000, 0.8196078431372548800, 0.9333333333333333500 ) ;
#561 = PRODUCT_RELATED_PRODUCT_CATEGORY ( 'part', '', ( #107 ) ) ;
#562 = PRODUCT_DEFINITION ( 'UNKNOWN', '', #349, #555 ) ;
#563 = EDGE_LOOP ( 'NONE', ( #437, #439, #438, #440 ) ) ;
#564 = EDGE_LOOP ( 'NONE', ( #442, #443, #441, #445 ) ) ;
#565 = EDGE_LOOP ( 'NONE', ( #446, #447, #448, #444 ) ) ;
#566 = EDGE_LOOP ( 'NONE', ( #449, #451, #450, #452 ) ) ;
#567 = EDGE_LOOP ( 'NONE', ( #453, #455, #454, #456 ) ) ;
#568 = EDGE_LOOP ( 'NONE', ( #459, #458, #460, #457 ) ) ;
#569 = EDGE_LOOP ( 'NONE', ( #462, #463, #461, #464 ) ) ;
#570 = EDGE_LOOP ( 'NONE', ( #465, #466, #467, #469 ) ) ;
#571 = VERTEX_POINT ( 'NONE', #322 ) ;
#572 = VERTEX_POINT ( 'NONE', #323 ) ;
#573 = VERTEX_POINT ( 'NONE', #324 ) ;
#574 = VERTEX_POINT ( 'NONE', #325 ) ;
#575 = VERTEX_POINT ( 'NONE', #326 ) ;
#576 = VERTEX_POINT ( 'NONE', #327 ) ;
#577 = VERTEX_POINT ( 'NONE', #328 ) ;
#578 = VERTEX_POINT ( 'NONE', #329 ) ;
#579 = VERTEX_POINT ( 'NONE', #330 ) ;
#580 = VERTEX_POINT ( 'NONE', #331 ) ;
#581 = EDGE_LOOP ( 'NONE', ( #958, #960, #957, #959 ) ) ;
#582 = EDGE_LOOP ( 'NONE', ( #962, #963, #964, #961 ) ) ;
#583 = VERTEX_POINT ( 'NONE', #332 ) ;
#584 = EDGE_LOOP ( 'NONE', ( #534, #536, #533, #535 ) ) ;
#585 = EDGE_LOOP ( 'NONE', ( #930, #931, #929, #932 ) ) ;
#586 = EDGE_LOOP ( 'NONE', ( #934, #936, #933, #935 ) ) ;
#587 = EDGE_LOOP ( 'NONE', ( #938, #939, #940, #937 ) ) ;
#588 = EDGE_LOOP ( 'NONE', ( #941, #943, #942, #944 ) ) ;
#589 = EDGE_LOOP ( 'NONE', ( #945, #947, #946, #948 ) ) ;
#590 = EDGE_LOOP ( 'NONE', ( #949, #952, #950, #951 ) ) ;
#591 = EDGE_LOOP ( 'NONE', ( #954, #955, #953, #956 ) ) ;
#592 = EDGE_LOOP ( 'NONE', ( #501, #503, #502, #504 ) ) ;
#593 = EDGE_LOOP ( 'NONE', ( #505, #507, #506, #508 ) ) ;
#594 = EDGE_LOOP ( 'NONE', ( #509, #512, #510, #511 ) ) ;
#595 = EDGE_LOOP ( 'NONE', ( #514, #515, #513, #516 ) ) ;
#596 = EDGE_LOOP ( 'NONE', ( #518, #520, #517, #519 ) ) ;
#597 = EDGE_LOOP ( 'NONE', ( #522, #523, #524, #521 ) ) ;
#598 = EDGE_LOOP ( 'NONE', ( #525, #527, #526, #528 ) ) ;
#599 = EDGE_LOOP ( 'NONE', ( #529, #531, #530, #532 ) ) ;
#600 = VERTEX_POINT ( 'NONE', #333 ) ;
#601 = VERTEX_POINT ( 'NONE', #334 ) ;
#602 = VERTEX_POINT ( 'NONE', #335 ) ;
#603 = VERTEX_POINT ( 'NONE', #336 ) ;
#604 = VERTEX_POINT ( 'NONE', #337 ) ;
#605 = VERTEX_POINT ( 'NONE', #338 ) ;
#606 = VERTEX_POINT ( 'NONE', #339 ) ;
#607 = VERTEX_POINT ( 'NONE', #340 ) ;
#608 = VERTEX_POINT ( 'NONE', #341 ) ;
#609 = VERTEX_POINT ( 'NONE', #350 ) ;
#610 = LINE ( 'NONE', #611, #13 ) ;
#611 = CARTESIAN_POINT ( 'NONE',  ( 264.5308436131289800, 96.63092980478380400, 0.03000000000000000200 ) ) ;
#612 = DIRECTION ( 'NONE',  ( -0.0000000000000000000, 0.0000000000000000000, -1.000000000000000000 ) ) ;
#613 = PLANE ( 'NONE',  #8 ) ;
#614 = CARTESIAN_POINT ( 'NONE',  ( 264.3058436131290100, 96.33092980478380700, 0.08000000000000000200 ) ) ;
#615 = DIRECTION ( 'NONE',  ( -1.000000000000000000, 0.0000000000000000000, 0.0000000000000000000 ) ) ;
#616 = DIRECTION ( 'NONE',  ( 0.0000000000000000000, 0.0000000000000000000, 1.000000000000000000 ) ) ;
#617 = PLANE ( 'NONE',  #635 ) ;
#618 = CARTESIAN_POINT ( 'NONE',  ( 264.5308436131289800, 96.38092980478380400, 0.03000000000000000200 ) ) ;
#619 = DIRECTION ( 'NONE',  ( 0.0000000000000000000, -1.000000000000000000, 0.0000000000000000000 ) ) ;
#620 = DIRECTION ( 'NONE',  ( 0.0000000000000000000, -0.0000000000000000000, -1.000000000000000000 ) ) ;
#621 = LINE ( 'NONE', #622, #637 ) ;
#622 = CARTESIAN_POINT ( 'NONE',  ( 264.7308436131290300, 96.38092980478380400, 0.03000000000000000200 ) ) ;
#623 = DIRECTION ( 'NONE',  ( 0.0000000000000000000, -1.000000000000000000, -0.0000000000000000000 ) ) ;
#624 = PLANE ( 'NONE',  #634 ) ;
#625 = LINE ( 'NONE', #626, #639 ) ;
#626 = CARTESIAN_POINT ( 'NONE',  ( 264.3058436131290100, 96.33092980478380700, 0.0000000000000000000 ) ) ;
#627 = DIRECTION ( 'NONE',  ( 0.0000000000000000000, 1.000000000000000000, 0.0000000000000000000 ) ) ;
#628 = CARTESIAN_POINT ( 'NONE',  ( 264.9558436131289900, 96.68092980478380100, 0.08000000000000000200 ) ) ;
#629 = DIRECTION ( 'NONE',  ( 1.000000000000000000, 0.0000000000000000000, 0.0000000000000000000 ) ) ;
#630 = DIRECTION ( 'NONE',  ( 0.0000000000000000000, 0.0000000000000000000, -1.000000000000000000 ) ) ;
#631 = LINE ( 'NONE', #632, #640 ) ;
#632 = CARTESIAN_POINT ( 'NONE',  ( 264.9558436131289900, 96.33092980478380700, 0.08000000000000000200 ) ) ;
#633 = FACE_OUTER_BOUND ( 'NONE', #570, .T. ) ;
#634 = AXIS2_PLACEMENT_3D ( 'NONE', #628, #629, #630 ) ;
#635 = AXIS2_PLACEMENT_3D ( 'NONE', #618, #619, #620 ) ;
#636 = FACE_OUTER_BOUND ( 'NONE', #568, .T. ) ;
#637 = VECTOR ( 'NONE', #623, 1000.000000000000000 ) ;
#638 = FACE_OUTER_BOUND ( 'NONE', #569, .T. ) ;
#639 = VECTOR ( 'NONE', #627, 1000.000000000000000 ) ;
#640 = VECTOR ( 'NONE', #642, 1000.000000000000000 ) ;
#641 = VECTOR ( 'NONE', #646, 1000.000000000000000 ) ;
#642 = DIRECTION ( 'NONE',  ( 0.0000000000000000000, 0.0000000000000000000, -1.000000000000000000 ) ) ;
#643 = PLANE ( 'NONE',  #679 ) ;
#644 = LINE ( 'NONE', #645, #641 ) ;
#645 = CARTESIAN_POINT ( 'NONE',  ( 264.9558436131289900, 96.68092980478380100, 0.08000000000000000200 ) ) ;
#646 = DIRECTION ( 'NONE',  ( 0.0000000000000000000, 0.0000000000000000000, -1.000000000000000000 ) ) ;
#647 = LINE ( 'NONE', #648, #678 ) ;
#648 = CARTESIAN_POINT ( 'NONE',  ( 264.3058436131290100, 96.33092980478380700, 0.08000000000000000200 ) ) ;
#649 = DIRECTION ( 'NONE',  ( 0.0000000000000000000, 1.000000000000000000, 0.0000000000000000000 ) ) ;
#650 = LINE ( 'NONE', #651, #680 ) ;
#651 = CARTESIAN_POINT ( 'NONE',  ( 264.7308436131290300, 96.63092980478380400, 0.03000000000000000200 ) ) ;
#652 = DIRECTION ( 'NONE',  ( -1.000000000000000000, -0.0000000000000000000, 0.0000000000000000000 ) ) ;
#653 = LINE ( 'NONE', #654, #681 ) ;
#654 = CARTESIAN_POINT ( 'NONE',  ( 264.3058436131290100, 96.68092980478380100, 0.0000000000000000000 ) ) ;
#655 = DIRECTION ( 'NONE',  ( 1.000000000000000000, 0.0000000000000000000, 0.0000000000000000000 ) ) ;
#656 = LINE ( 'NONE', #657, #682 ) ;
#657 = CARTESIAN_POINT ( 'NONE',  ( 264.3058436131290100, 96.68092980478380100, 0.08000000000000000200 ) ) ;
#658 = DIRECTION ( 'NONE',  ( 1.000000000000000000, 0.0000000000000000000, 0.0000000000000000000 ) ) ;
#659 = LINE ( 'NONE', #660, #684 ) ;
#660 = CARTESIAN_POINT ( 'NONE',  ( 264.3058436131290100, 96.33092980478380700, 0.08000000000000000200 ) ) ;
#661 = DIRECTION ( 'NONE',  ( 0.0000000000000000000, 0.0000000000000000000, -1.000000000000000000 ) ) ;
#662 = CARTESIAN_POINT ( 'NONE',  ( 264.3558436131290300, 96.38092980478380400, 0.03000000000000000200 ) ) ;
#663 = DIRECTION ( 'NONE',  ( -1.000000000000000000, 0.0000000000000000000, 0.0000000000000000000 ) ) ;
#664 = DIRECTION ( 'NONE',  ( 0.0000000000000000000, 0.0000000000000000000, 1.000000000000000000 ) ) ;
#665 = PLANE ( 'NONE',  #688 ) ;
#666 = CARTESIAN_POINT ( 'NONE',  ( 264.9558436131289900, 96.33092980478380700, 0.08000000000000000200 ) ) ;
#667 = DIRECTION ( 'NONE',  ( 0.0000000000000000000, -1.000000000000000000, -0.0000000000000000000 ) ) ;
#668 = DIRECTION ( 'NONE',  ( 0.0000000000000000000, 0.0000000000000000000, -1.000000000000000000 ) ) ;
#669 = PLANE ( 'NONE',  #683 ) ;
#670 = CARTESIAN_POINT ( 'NONE',  ( 0.0000000000000000000, 0.0000000000000000000, 0.0000000000000000000 ) ) ;
#671 = DIRECTION ( 'NONE',  ( 0.0000000000000000000, 0.0000000000000000000, -1.000000000000000000 ) ) ;
#672 = DIRECTION ( 'NONE',  ( -1.000000000000000000, 0.0000000000000000000, -0.0000000000000000000 ) ) ;
#673 = LINE ( 'NONE', #674, #692 ) ;
#674 = CARTESIAN_POINT ( 'NONE',  ( 264.3058436131290100, 96.68092980478380100, 0.08000000000000000200 ) ) ;
#675 = DIRECTION ( 'NONE',  ( 0.0000000000000000000, 0.0000000000000000000, -1.000000000000000000 ) ) ;
#676 = PLANE ( 'NONE',  #693 ) ;
#677 = CARTESIAN_POINT ( 'NONE',  ( 264.3058436131290100, 96.68092980478380100, 0.08000000000000000200 ) ) ;
#678 = VECTOR ( 'NONE', #649, 1000.000000000000000 ) ;
#679 = AXIS2_PLACEMENT_3D ( 'NONE', #662, #663, #664 ) ;
#680 = VECTOR ( 'NONE', #652, 1000.000000000000000 ) ;
#681 = VECTOR ( 'NONE', #655, 1000.000000000000000 ) ;
#682 = VECTOR ( 'NONE', #658, 1000.000000000000000 ) ;
#683 = AXIS2_PLACEMENT_3D ( 'NONE', #670, #671, #672 ) ;
#684 = VECTOR ( 'NONE', #661, 1000.000000000000000 ) ;
#685 = FACE_BOUND ( 'NONE', #567, .T. ) ;
#686 = FACE_OUTER_BOUND ( 'NONE', #563, .T. ) ;
#687 = FACE_BOUND ( 'NONE', #566, .T. ) ;
#688 = AXIS2_PLACEMENT_3D ( 'NONE', #666, #667, #668 ) ;
#689 = VECTOR ( 'NONE', #712, 1000.000000000000000 ) ;
#690 = FACE_OUTER_BOUND ( 'NONE', #965, .T. ) ;
#691 = FACE_OUTER_BOUND ( 'NONE', #565, .T. ) ;
#692 = VECTOR ( 'NONE', #675, 1000.000000000000000 ) ;
#693 = AXIS2_PLACEMENT_3D ( 'NONE', #677, #698, #699 ) ;
#694 = AXIS2_PLACEMENT_3D ( 'NONE', #897, #898, #899 ) ;
#695 = VECTOR ( 'NONE', #702, 1000.000000000000000 ) ;
#696 = VECTOR ( 'NONE', #706, 1000.000000000000000 ) ;
#697 = VECTOR ( 'NONE', #709, 1000.000000000000000 ) ;
#698 = DIRECTION ( 'NONE',  ( -0.0000000000000000000, 1.000000000000000000, 0.0000000000000000000 ) ) ;
#699 = DIRECTION ( 'NONE',  ( 0.0000000000000000000, -0.0000000000000000000, 1.000000000000000000 ) ) ;
#700 = LINE ( 'NONE', #701, #695 ) ;
#701 = CARTESIAN_POINT ( 'NONE',  ( 264.5308436131289800, 96.38092980478380400, 0.03000000000000000200 ) ) ;
#702 = DIRECTION ( 'NONE',  ( -0.0000000000000000000, 1.000000000000000000, 0.0000000000000000000 ) ) ;
#703 = PLANE ( 'NONE',  #887 ) ;
#704 = LINE ( 'NONE', #705, #696 ) ;
#705 = CARTESIAN_POINT ( 'NONE',  ( 264.3558436131290300, 96.38092980478380400, 0.0000000000000000000 ) ) ;
#706 = DIRECTION ( 'NONE',  ( 0.0000000000000000000, 0.0000000000000000000, 1.000000000000000000 ) ) ;
#707 = LINE ( 'NONE', #708, #697 ) ;
#708 = CARTESIAN_POINT ( 'NONE',  ( 264.5308436131289800, 96.38092980478380400, 0.0000000000000000000 ) ) ;
#709 = DIRECTION ( 'NONE',  ( 0.0000000000000000000, 0.0000000000000000000, -1.000000000000000000 ) ) ;
#710 = LINE ( 'NONE', #711, #689 ) ;
#711 = CARTESIAN_POINT ( 'NONE',  ( 264.3558436131290300, 96.38092980478380400, 0.03000000000000000200 ) ) ;
#712 = DIRECTION ( 'NONE',  ( 1.000000000000000000, 0.0000000000000000000, -0.0000000000000000000 ) ) ;
#713 = LINE ( 'NONE', #714, #734 ) ;
#714 = CARTESIAN_POINT ( 'NONE',  ( 264.3558436131290300, 96.63092980478380400, 0.0000000000000000000 ) ) ;
#715 = DIRECTION ( 'NONE',  ( -1.000000000000000000, -0.0000000000000000000, -0.0000000000000000000 ) ) ;
#716 = LINE ( 'NONE', #717, #735 ) ;
#717 = CARTESIAN_POINT ( 'NONE',  ( 264.3558436131290300, 96.63092980478380400, 0.0000000000000000000 ) ) ;
#718 = DIRECTION ( 'NONE',  ( -0.0000000000000000000, -1.000000000000000000, 0.0000000000000000000 ) ) ;
#719 = LINE ( 'NONE', #720, #736 ) ;
#720 = CARTESIAN_POINT ( 'NONE',  ( 264.5308436131289800, 96.38092980478380400, 0.0000000000000000000 ) ) ;
#721 = DIRECTION ( 'NONE',  ( -0.0000000000000000000, 1.000000000000000000, 0.0000000000000000000 ) ) ;
#722 = LINE ( 'NONE', #723, #737 ) ;
#723 = CARTESIAN_POINT ( 'NONE',  ( 264.3558436131290300, 96.38092980478380400, 0.0000000000000000000 ) ) ;
#724 = DIRECTION ( 'NONE',  ( 1.000000000000000000, 0.0000000000000000000, 0.0000000000000000000 ) ) ;
#725 = LINE ( 'NONE', #726, #738 ) ;
#726 = CARTESIAN_POINT ( 'NONE',  ( 264.3058436131290100, 96.33092980478380700, 0.2000000000000000100 ) ) ;
#727 = DIRECTION ( 'NONE',  ( 0.0000000000000000000, -1.000000000000000000, -0.0000000000000000000 ) ) ;
#728 = LINE ( 'NONE', #729, #739 ) ;
#729 = CARTESIAN_POINT ( 'NONE',  ( 264.3058436131290100, 96.68092980478380100, 0.2000000000000000100 ) ) ;
#730 = DIRECTION ( 'NONE',  ( -1.000000000000000000, -0.0000000000000000000, 0.0000000000000000000 ) ) ;
#731 = LINE ( 'NONE', #732, #740 ) ;
#732 = CARTESIAN_POINT ( 'NONE',  ( 264.3058436131290100, 96.68092980478380100, 0.08000000000000000200 ) ) ;
#733 = DIRECTION ( 'NONE',  ( -0.0000000000000000000, -0.0000000000000000000, -1.000000000000000000 ) ) ;
#734 = VECTOR ( 'NONE', #715, 1000.000000000000000 ) ;
#735 = VECTOR ( 'NONE', #718, 1000.000000000000000 ) ;
#736 = VECTOR ( 'NONE', #721, 1000.000000000000000 ) ;
#737 = VECTOR ( 'NONE', #724, 1000.000000000000000 ) ;
#738 = VECTOR ( 'NONE', #727, 1000.000000000000000 ) ;
#739 = VECTOR ( 'NONE', #730, 1000.000000000000000 ) ;
#740 = VECTOR ( 'NONE', #733, 1000.000000000000000 ) ;
#741 = LINE ( 'NONE', #742, #12 ) ;
#742 = CARTESIAN_POINT ( 'NONE',  ( 264.9558436131289900, 96.68092980478380100, 0.2000000000000000100 ) ) ;
#743 = DIRECTION ( 'NONE',  ( -0.0000000000000000000, 0.0000000000000000000, -1.000000000000000000 ) ) ;
#744 = LINE ( 'NONE', #745, #777 ) ;
#745 = CARTESIAN_POINT ( 'NONE',  ( 264.9558436131289900, 96.33092980478380700, 0.2000000000000000100 ) ) ;
#746 = DIRECTION ( 'NONE',  ( -0.0000000000000000000, 1.000000000000000000, 0.0000000000000000000 ) ) ;
#747 = LINE ( 'NONE', #748, #778 ) ;
#748 = CARTESIAN_POINT ( 'NONE',  ( 264.3058436131290100, 96.33092980478380700, 0.08000000000000000200 ) ) ;
#749 = DIRECTION ( 'NONE',  ( 0.0000000000000000000, 0.0000000000000000000, 1.000000000000000000 ) ) ;
#750 = LINE ( 'NONE', #751, #779 ) ;
#751 = CARTESIAN_POINT ( 'NONE',  ( 264.3058436131290100, 96.33092980478380700, 0.2000000000000000100 ) ) ;
#752 = DIRECTION ( 'NONE',  ( 1.000000000000000000, 0.0000000000000000000, -0.0000000000000000000 ) ) ;
#753 = LINE ( 'NONE', #754, #780 ) ;
#754 = CARTESIAN_POINT ( 'NONE',  ( 264.9558436131289900, 96.33092980478380700, 0.08000000000000000200 ) ) ;
#755 = DIRECTION ( 'NONE',  ( 0.0000000000000000000, 0.0000000000000000000, -1.000000000000000000 ) ) ;
#756 = LINE ( 'NONE', #757, #781 ) ;
#757 = CARTESIAN_POINT ( 'NONE',  ( 264.3058436131290100, 96.68092980478380100, 0.08000000000000000200 ) ) ;
#758 = DIRECTION ( 'NONE',  ( -1.000000000000000000, -0.0000000000000000000, -0.0000000000000000000 ) ) ;
#759 = LINE ( 'NONE', #760, #782 ) ;
#760 = CARTESIAN_POINT ( 'NONE',  ( 264.3058436131290100, 96.68092980478380100, 0.08000000000000000200 ) ) ;
#761 = DIRECTION ( 'NONE',  ( -0.0000000000000000000, -1.000000000000000000, 0.0000000000000000000 ) ) ;
#762 = LINE ( 'NONE', #763, #783 ) ;
#763 = CARTESIAN_POINT ( 'NONE',  ( 264.9558436131289900, 96.33092980478380700, 0.08000000000000000200 ) ) ;
#764 = DIRECTION ( 'NONE',  ( -0.0000000000000000000, 1.000000000000000000, 0.0000000000000000000 ) ) ;
#765 = LINE ( 'NONE', #766, #784 ) ;
#766 = CARTESIAN_POINT ( 'NONE',  ( 264.9558436131289900, 96.33092980478380700, 0.08000000000000000200 ) ) ;
#767 = DIRECTION ( 'NONE',  ( 1.000000000000000000, 0.0000000000000000000, 0.0000000000000000000 ) ) ;
#768 = LINE ( 'NONE', #769, #785 ) ;
#769 = CARTESIAN_POINT ( 'NONE',  ( 264.7308436131290300, 96.63092980478380400, 0.03000000000000000200 ) ) ;
#770 = DIRECTION ( 'NONE',  ( 1.000000000000000000, 0.0000000000000000000, 0.0000000000000000000 ) ) ;
#771 = LINE ( 'NONE', #772, #786 ) ;
#772 = CARTESIAN_POINT ( 'NONE',  ( 264.9058436131289800, 96.63092980478380400, 0.03000000000000000200 ) ) ;
#773 = DIRECTION ( 'NONE',  ( -0.0000000000000000000, -0.0000000000000000000, -1.000000000000000000 ) ) ;
#774 = LINE ( 'NONE', #775, #787 ) ;
#775 = CARTESIAN_POINT ( 'NONE',  ( 264.9058436131289800, 96.63092980478380400, 0.03000000000000000200 ) ) ;
#776 = DIRECTION ( 'NONE',  ( 0.0000000000000000000, -1.000000000000000000, 0.0000000000000000000 ) ) ;
#777 = VECTOR ( 'NONE', #746, 1000.000000000000000 ) ;
#778 = VECTOR ( 'NONE', #749, 1000.000000000000000 ) ;
#779 = VECTOR ( 'NONE', #752, 1000.000000000000000 ) ;
#780 = VECTOR ( 'NONE', #755, 1000.000000000000000 ) ;
#781 = VECTOR ( 'NONE', #758, 1000.000000000000000 ) ;
#782 = VECTOR ( 'NONE', #761, 1000.000000000000000 ) ;
#783 = VECTOR ( 'NONE', #764, 1000.000000000000000 ) ;
#784 = VECTOR ( 'NONE', #767, 1000.000000000000000 ) ;
#785 = VECTOR ( 'NONE', #770, 1000.000000000000000 ) ;
#786 = VECTOR ( 'NONE', #773, 1000.000000000000000 ) ;
#787 = VECTOR ( 'NONE', #776, 1000.000000000000000 ) ;
#788 = VECTOR ( 'NONE', #794, 1000.000000000000000 ) ;
#789 = VECTOR ( 'NONE', #797, 1000.000000000000000 ) ;
#790 = VECTOR ( 'NONE', #800, 1000.000000000000000 ) ;
#791 = VECTOR ( 'NONE', #803, 1000.000000000000000 ) ;
#792 = LINE ( 'NONE', #793, #788 ) ;
#793 = CARTESIAN_POINT ( 'NONE',  ( 264.9058436131289800, 96.38092980478380400, 0.03000000000000000200 ) ) ;
#794 = DIRECTION ( 'NONE',  ( -0.0000000000000000000, -0.0000000000000000000, -1.000000000000000000 ) ) ;
#795 = LINE ( 'NONE', #796, #789 ) ;
#796 = CARTESIAN_POINT ( 'NONE',  ( 264.9058436131289800, 96.38092980478380400, 0.03000000000000000200 ) ) ;
#797 = DIRECTION ( 'NONE',  ( -1.000000000000000000, 0.0000000000000000000, 0.0000000000000000000 ) ) ;
#798 = LINE ( 'NONE', #799, #790 ) ;
#799 = CARTESIAN_POINT ( 'NONE',  ( 264.7308436131290300, 96.38092980478380400, 0.03000000000000000200 ) ) ;
#800 = DIRECTION ( 'NONE',  ( -0.0000000000000000000, -0.0000000000000000000, -1.000000000000000000 ) ) ;
#801 = LINE ( 'NONE', #802, #791 ) ;
#802 = CARTESIAN_POINT ( 'NONE',  ( 264.7308436131290300, 96.38092980478380400, 0.03000000000000000200 ) ) ;
#803 = DIRECTION ( 'NONE',  ( 0.0000000000000000000, 1.000000000000000000, 0.0000000000000000000 ) ) ;
#804 = LINE ( 'NONE', #805, #828 ) ;
#805 = CARTESIAN_POINT ( 'NONE',  ( 264.7308436131290300, 96.63092980478380400, 0.03000000000000000200 ) ) ;
#806 = DIRECTION ( 'NONE',  ( -0.0000000000000000000, -0.0000000000000000000, -1.000000000000000000 ) ) ;
#807 = LINE ( 'NONE', #808, #829 ) ;
#808 = CARTESIAN_POINT ( 'NONE',  ( 264.3558436131290300, 96.63092980478380400, 0.03000000000000000200 ) ) ;
#809 = DIRECTION ( 'NONE',  ( 1.000000000000000000, 0.0000000000000000000, 0.0000000000000000000 ) ) ;
#810 = LINE ( 'NONE', #811, #830 ) ;
#811 = CARTESIAN_POINT ( 'NONE',  ( 264.5308436131289800, 96.63092980478380400, 0.03000000000000000200 ) ) ;
#812 = DIRECTION ( 'NONE',  ( -0.0000000000000000000, -0.0000000000000000000, -1.000000000000000000 ) ) ;
#813 = LINE ( 'NONE', #814, #831 ) ;
#814 = CARTESIAN_POINT ( 'NONE',  ( 264.5308436131289800, 96.63092980478380400, 0.03000000000000000200 ) ) ;
#815 = DIRECTION ( 'NONE',  ( 0.0000000000000000000, -1.000000000000000000, 0.0000000000000000000 ) ) ;
#816 = LINE ( 'NONE', #817, #832 ) ;
#817 = CARTESIAN_POINT ( 'NONE',  ( 264.5308436131289800, 96.38092980478380400, 0.03000000000000000200 ) ) ;
#818 = DIRECTION ( 'NONE',  ( -0.0000000000000000000, -0.0000000000000000000, -1.000000000000000000 ) ) ;
#819 = LINE ( 'NONE', #820, #833 ) ;
#820 = CARTESIAN_POINT ( 'NONE',  ( 264.5308436131289800, 96.38092980478380400, 0.03000000000000000200 ) ) ;
#821 = DIRECTION ( 'NONE',  ( -1.000000000000000000, 0.0000000000000000000, 0.0000000000000000000 ) ) ;
#822 = LINE ( 'NONE', #823, #834 ) ;
#823 = CARTESIAN_POINT ( 'NONE',  ( 264.3558436131290300, 96.38092980478380400, 0.03000000000000000200 ) ) ;
#824 = DIRECTION ( 'NONE',  ( -0.0000000000000000000, -0.0000000000000000000, -1.000000000000000000 ) ) ;
#825 = LINE ( 'NONE', #826, #836 ) ;
#826 = CARTESIAN_POINT ( 'NONE',  ( 264.3558436131290300, 96.38092980478380400, 0.03000000000000000200 ) ) ;
#827 = DIRECTION ( 'NONE',  ( 0.0000000000000000000, 1.000000000000000000, 0.0000000000000000000 ) ) ;
#828 = VECTOR ( 'NONE', #806, 1000.000000000000000 ) ;
#829 = VECTOR ( 'NONE', #809, 1000.000000000000000 ) ;
#830 = VECTOR ( 'NONE', #812, 1000.000000000000000 ) ;
#831 = VECTOR ( 'NONE', #815, 1000.000000000000000 ) ;
#832 = VECTOR ( 'NONE', #818, 1000.000000000000000 ) ;
#833 = VECTOR ( 'NONE', #821, 1000.000000000000000 ) ;
#834 = VECTOR ( 'NONE', #824, 1000.000000000000000 ) ;
#835 = FACE_OUTER_BOUND ( 'NONE', #549, .T. ) ;
#836 = VECTOR ( 'NONE', #827, 1000.000000000000000 ) ;
#837 = VECTOR ( 'NONE', #846, 1000.000000000000000 ) ;
#838 = VECTOR ( 'NONE', #849, 1000.000000000000000 ) ;
#839 = VECTOR ( 'NONE', #852, 1000.000000000000000 ) ;
#840 = VECTOR ( 'NONE', #855, 1000.000000000000000 ) ;
#841 = VECTOR ( 'NONE', #858, 1000.000000000000000 ) ;
#842 = VECTOR ( 'NONE', #861, 1000.000000000000000 ) ;
#843 = VECTOR ( 'NONE', #864, 1000.000000000000000 ) ;
#844 = LINE ( 'NONE', #845, #837 ) ;
#845 = CARTESIAN_POINT ( 'NONE',  ( 264.3558436131290300, 96.63092980478380400, 0.03000000000000000200 ) ) ;
#846 = DIRECTION ( 'NONE',  ( -0.0000000000000000000, -0.0000000000000000000, -1.000000000000000000 ) ) ;
#847 = LINE ( 'NONE', #848, #838 ) ;
#848 = CARTESIAN_POINT ( 'NONE',  ( 264.3558436131290300, 96.63092980478380400, 0.0000000000000000000 ) ) ;
#849 = DIRECTION ( 'NONE',  ( 1.000000000000000000, 0.0000000000000000000, 0.0000000000000000000 ) ) ;
#850 = LINE ( 'NONE', #851, #839 ) ;
#851 = CARTESIAN_POINT ( 'NONE',  ( 264.5308436131289800, 96.63092980478380400, 0.0000000000000000000 ) ) ;
#852 = DIRECTION ( 'NONE',  ( 0.0000000000000000000, -1.000000000000000000, 0.0000000000000000000 ) ) ;
#853 = LINE ( 'NONE', #854, #840 ) ;
#854 = CARTESIAN_POINT ( 'NONE',  ( 264.3558436131290300, 96.38092980478380400, 0.0000000000000000000 ) ) ;
#855 = DIRECTION ( 'NONE',  ( 0.0000000000000000000, 1.000000000000000000, 0.0000000000000000000 ) ) ;
#856 = LINE ( 'NONE', #857, #841 ) ;
#857 = CARTESIAN_POINT ( 'NONE',  ( 264.7308436131290300, 96.63092980478380400, 0.0000000000000000000 ) ) ;
#858 = DIRECTION ( 'NONE',  ( 1.000000000000000000, 0.0000000000000000000, 0.0000000000000000000 ) ) ;
#859 = LINE ( 'NONE', #860, #842 ) ;
#860 = CARTESIAN_POINT ( 'NONE',  ( 264.5308436131289800, 96.38092980478380400, 0.0000000000000000000 ) ) ;
#861 = DIRECTION ( 'NONE',  ( -1.000000000000000000, 0.0000000000000000000, 0.0000000000000000000 ) ) ;
#862 = LINE ( 'NONE', #863, #843 ) ;
#863 = CARTESIAN_POINT ( 'NONE',  ( 264.9058436131289800, 96.63092980478380400, 0.0000000000000000000 ) ) ;
#864 = DIRECTION ( 'NONE',  ( 0.0000000000000000000, -1.000000000000000000, 0.0000000000000000000 ) ) ;
#865 = LINE ( 'NONE', #866, #880 ) ;
#866 = CARTESIAN_POINT ( 'NONE',  ( 264.9058436131289800, 96.38092980478380400, 0.0000000000000000000 ) ) ;
#867 = DIRECTION ( 'NONE',  ( -1.000000000000000000, 0.0000000000000000000, 0.0000000000000000000 ) ) ;
#868 = LINE ( 'NONE', #869, #881 ) ;
#869 = CARTESIAN_POINT ( 'NONE',  ( 264.7308436131290300, 96.38092980478380400, 0.0000000000000000000 ) ) ;
#870 = DIRECTION ( 'NONE',  ( 0.0000000000000000000, 1.000000000000000000, 0.0000000000000000000 ) ) ;
#871 = LINE ( 'NONE', #872, #882 ) ;
#872 = CARTESIAN_POINT ( 'NONE',  ( 264.9558436131289900, 96.68092980478380100, 0.08000000000000000200 ) ) ;
#873 = DIRECTION ( 'NONE',  ( 0.0000000000000000000, -1.000000000000000000, 0.0000000000000000000 ) ) ;
#874 = LINE ( 'NONE', #875, #883 ) ;
#875 = CARTESIAN_POINT ( 'NONE',  ( 264.9558436131289900, 96.33092980478380700, 0.0000000000000000000 ) ) ;
#876 = DIRECTION ( 'NONE',  ( -1.000000000000000000, 0.0000000000000000000, 0.0000000000000000000 ) ) ;
#877 = LINE ( 'NONE', #878, #884 ) ;
#878 = CARTESIAN_POINT ( 'NONE',  ( 264.9558436131289900, 96.68092980478380100, 0.0000000000000000000 ) ) ;
#879 = DIRECTION ( 'NONE',  ( 0.0000000000000000000, -1.000000000000000000, 0.0000000000000000000 ) ) ;
#880 = VECTOR ( 'NONE', #867, 1000.000000000000000 ) ;
#881 = VECTOR ( 'NONE', #870, 1000.000000000000000 ) ;
#882 = VECTOR ( 'NONE', #873, 1000.000000000000000 ) ;
#883 = VECTOR ( 'NONE', #876, 1000.000000000000000 ) ;
#884 = VECTOR ( 'NONE', #879, 1000.000000000000000 ) ;
#885 = AXIS2_PLACEMENT_3D ( 'NONE', #901, #902, #903 ) ;
#886 = VECTOR ( 'NONE', #892, 1000.000000000000000 ) ;
#887 = AXIS2_PLACEMENT_3D ( 'NONE', #893, #894, #895 ) ;
#888 = FACE_OUTER_BOUND ( 'NONE', #548, .T. ) ;
#889 = AXIS2_PLACEMENT_3D ( 'NONE', #139, #140, #141 ) ;
#890 = LINE ( 'NONE', #891, #886 ) ;
#891 = CARTESIAN_POINT ( 'NONE',  ( 264.9558436131289900, 96.33092980478380700, 0.08000000000000000200 ) ) ;
#892 = DIRECTION ( 'NONE',  ( -1.000000000000000000, 0.0000000000000000000, 0.0000000000000000000 ) ) ;
#893 = CARTESIAN_POINT ( 'NONE',  ( 0.0000000000000000000, 0.0000000000000000000, 0.08000000000000000200 ) ) ;
#894 = DIRECTION ( 'NONE',  ( 0.0000000000000000000, 0.0000000000000000000, -1.000000000000000000 ) ) ;
#895 = DIRECTION ( 'NONE',  ( -1.000000000000000000, 0.0000000000000000000, -0.0000000000000000000 ) ) ;
#896 = PLANE ( 'NONE',  #694 ) ;
#897 = CARTESIAN_POINT ( 'NONE',  ( 264.5308436131289800, 96.63092980478380400, 0.03000000000000000200 ) ) ;
#898 = DIRECTION ( 'NONE',  ( 1.000000000000000000, 0.0000000000000000000, -0.0000000000000000000 ) ) ;
#899 = DIRECTION ( 'NONE',  ( -0.0000000000000000000, 0.0000000000000000000, -1.000000000000000000 ) ) ;
#900 = PLANE ( 'NONE',  #885 ) ;
#901 = CARTESIAN_POINT ( 'NONE',  ( 264.3558436131290300, 96.63092980478380400, 0.03000000000000000200 ) ) ;
#902 = DIRECTION ( 'NONE',  ( 0.0000000000000000000, 1.000000000000000000, 0.0000000000000000000 ) ) ;
#903 = DIRECTION ( 'NONE',  ( 0.0000000000000000000, -0.0000000000000000000, 1.000000000000000000 ) ) ;
#904 = PLANE ( 'NONE',  #95 ) ;
#905 = CARTESIAN_POINT ( 'NONE',  ( 0.0000000000000000000, 0.0000000000000000000, 0.03000000000000000200 ) ) ;
#906 = DIRECTION ( 'NONE',  ( 0.0000000000000000000, 0.0000000000000000000, -1.000000000000000000 ) ) ;
#907 = DIRECTION ( 'NONE',  ( -1.000000000000000000, 0.0000000000000000000, -0.0000000000000000000 ) ) ;
#908 = PLANE ( 'NONE',  #98 ) ;
#909 = CARTESIAN_POINT ( 'NONE',  ( 264.7308436131290300, 96.38092980478380400, 0.03000000000000000200 ) ) ;
#910 = DIRECTION ( 'NONE',  ( -1.000000000000000000, 0.0000000000000000000, 0.0000000000000000000 ) ) ;
#911 = DIRECTION ( 'NONE',  ( 0.0000000000000000000, 0.0000000000000000000, 1.000000000000000000 ) ) ;
#912 = PLANE ( 'NONE',  #100 ) ;
#913 = CARTESIAN_POINT ( 'NONE',  ( 264.9058436131289800, 96.38092980478380400, 0.03000000000000000200 ) ) ;
#914 = DIRECTION ( 'NONE',  ( 0.0000000000000000000, -1.000000000000000000, 0.0000000000000000000 ) ) ;
#915 = DIRECTION ( 'NONE',  ( 0.0000000000000000000, -0.0000000000000000000, -1.000000000000000000 ) ) ;
#916 = PLANE ( 'NONE',  #102 ) ;
#917 = CARTESIAN_POINT ( 'NONE',  ( 264.9058436131289800, 96.63092980478380400, 0.03000000000000000200 ) ) ;
#918 = DIRECTION ( 'NONE',  ( 1.000000000000000000, 0.0000000000000000000, -0.0000000000000000000 ) ) ;
#919 = DIRECTION ( 'NONE',  ( -0.0000000000000000000, 0.0000000000000000000, -1.000000000000000000 ) ) ;
#920 = PLANE ( 'NONE',  #104 ) ;
#921 = CARTESIAN_POINT ( 'NONE',  ( 264.7308436131290300, 96.63092980478380400, 0.03000000000000000200 ) ) ;
#922 = DIRECTION ( 'NONE',  ( 0.0000000000000000000, 1.000000000000000000, 0.0000000000000000000 ) ) ;
#923 = DIRECTION ( 'NONE',  ( 0.0000000000000000000, -0.0000000000000000000, 1.000000000000000000 ) ) ;
#924 = PLANE ( 'NONE',  #106 ) ;
#925 = CARTESIAN_POINT ( 'NONE',  ( 0.0000000000000000000, 0.0000000000000000000, 0.03000000000000000200 ) ) ;
#926 = EDGE_LOOP ( 'NONE', ( #488, #490, #491, #493 ) ) ;
#927 = EDGE_LOOP ( 'NONE', ( #492, #494, #495, #497 ) ) ;
#928 = EDGE_LOOP ( 'NONE', ( #498, #499, #500, #496 ) ) ;
#929 = ORIENTED_EDGE ( 'NONE', *, *, #416, .F. ) ;
#930 = ORIENTED_EDGE ( 'NONE', *, *, #38, .T. ) ;
#931 = ORIENTED_EDGE ( 'NONE', *, *, #415, .F. ) ;
#932 = ORIENTED_EDGE ( 'NONE', *, *, #4, .T. ) ;
#933 = ORIENTED_EDGE ( 'NONE', *, *, #39, .T. ) ;
#934 = ORIENTED_EDGE ( 'NONE', *, *, #417, .F. ) ;
#935 = ORIENTED_EDGE ( 'NONE', *, *, #35, .T. ) ;
#936 = ORIENTED_EDGE ( 'NONE', *, *, #415, .T. ) ;
#937 = ORIENTED_EDGE ( 'NONE', *, *, #34, .T. ) ;
#938 = ORIENTED_EDGE ( 'NONE', *, *, #416, .T. ) ;
#939 = ORIENTED_EDGE ( 'NONE', *, *, #417, .T. ) ;
#940 = ORIENTED_EDGE ( 'NONE', *, *, #37, .T. ) ;
#941 = ORIENTED_EDGE ( 'NONE', *, *, #419, .F. ) ;
#942 = ORIENTED_EDGE ( 'NONE', *, *, #420, .F. ) ;
#943 = ORIENTED_EDGE ( 'NONE', *, *, #418, .F. ) ;
#944 = ORIENTED_EDGE ( 'NONE', *, *, #421, .F. ) ;
#945 = ORIENTED_EDGE ( 'NONE', *, *, #418, .T. ) ;
#946 = ORIENTED_EDGE ( 'NONE', *, *, #423, .F. ) ;
#947 = ORIENTED_EDGE ( 'NONE', *, *, #422, .F. ) ;
#948 = ORIENTED_EDGE ( 'NONE', *, *, #424, .F. ) ;
#949 = ORIENTED_EDGE ( 'NONE', *, *, #425, .F. ) ;
#950 = ORIENTED_EDGE ( 'NONE', *, *, #419, .T. ) ;
#951 = ORIENTED_EDGE ( 'NONE', *, *, #426, .F. ) ;
#952 = ORIENTED_EDGE ( 'NONE', *, *, #422, .T. ) ;
#953 = ORIENTED_EDGE ( 'NONE', *, *, #25, .F. ) ;
#954 = ORIENTED_EDGE ( 'NONE', *, *, #421, .T. ) ;
#955 = ORIENTED_EDGE ( 'NONE', *, *, #427, .F. ) ;
#956 = ORIENTED_EDGE ( 'NONE', *, *, #426, .T. ) ;
#957 = ORIENTED_EDGE ( 'NONE', *, *, #420, .T. ) ;
#958 = ORIENTED_EDGE ( 'NONE', *, *, #19, .F. ) ;
#959 = ORIENTED_EDGE ( 'NONE', *, *, #424, .T. ) ;
#960 = ORIENTED_EDGE ( 'NONE', *, *, #427, .T. ) ;
#961 = ORIENTED_EDGE ( 'NONE', *, *, #425, .T. ) ;
#962 = ORIENTED_EDGE ( 'NONE', *, *, #25, .T. ) ;
#963 = ORIENTED_EDGE ( 'NONE', *, *, #19, .T. ) ;
#964 = ORIENTED_EDGE ( 'NONE', *, *, #423, .T. ) ;
#965 = EDGE_LOOP ( 'NONE', ( #429, #431, #430, #432 ) ) ;
#966 = VERTEX_POINT ( 'NONE', #351 ) ;
#967 = VERTEX_POINT ( 'NONE', #352 ) ;
#968 = VERTEX_POINT ( 'NONE', #353 ) ;
#969 = VERTEX_POINT ( 'NONE', #354 ) ;
#970 = VERTEX_POINT ( 'NONE', #355 ) ;
#971 = VERTEX_POINT ( 'NONE', #356 ) ;
#972 = VERTEX_POINT ( 'NONE', #357 ) ;
#973 = VERTEX_POINT ( 'NONE', #358 ) ;
#974 = VERTEX_POINT ( 'NONE', #359 ) ;
#975 = VERTEX_POINT ( 'NONE', #360 ) ;
#976 = VERTEX_POINT ( 'NONE', #361 ) ;
#977 = VERTEX_POINT ( 'NONE', #362 ) ;
#978 = VERTEX_POINT ( 'NONE', #363 ) ;
#979 = VERTEX_POINT ( 'NONE', #364 ) ;
#980 = VERTEX_POINT ( 'NONE', #365 ) ;
#981 = VERTEX_POINT ( 'NONE', #366 ) ;
ENDSEC;
END-ISO-10303-21;
