ISO-10303-21;
HEADER;
/* Generated by software containing ST-Developer
 * from STEP Tools, Inc. (www.steptools.com) 
 */
/* OPTION: using custom renumber hook */

FILE_DESCRIPTION(
/* description */ ('STEP AP242 Edition 2',
'CAx-IF Rec.Pracs.---Representation and Presentation of Product Manufa
cturing Information (PMI)---4.0---2014-10-13',
'CAx-IF Rec.Pracs.---3D Tessellated Geometry---0.4---2014-09-14','2;1',
'CAx-IF Rec.Pracs.---User Defined Attributes---1.5---2016-08-15'),
/* implementation_level */ '2;1');

FILE_NAME(
/* name */ 'Keyboard parts - Pogo',
/* time_stamp */ '2026-06-18T11:26:47Z',
/* author */ (''),
/* organization */ (''),
/* preprocessor_version */ 'ST-DEVELOPER v20',
/* originating_system */ 'ONSHAPE BY PTC INC, 1.216',
/* authorisation */ '  ');

FILE_SCHEMA (('AP242_MANAGED_MODEL_BASED_3D_ENGINEERING_MIM_LF { 1 0 10303 442 3 1 4 }'));
ENDSEC;

DATA;
#10=SHAPE_REPRESENTATION_RELATIONSHIP('','',#928,#11);
#11=ADVANCED_BREP_SHAPE_REPRESENTATION('',(#926),#1620);
#12=DEGENERATE_TOROIDAL_SURFACE('',#1066,4.99999999999949E-5,0.0005,.T.);
#13=DEGENERATE_TOROIDAL_SURFACE('',#1067,4.99999999999949E-5,0.0005,.T.);
#14=DEGENERATE_TOROIDAL_SURFACE('',#1068,4.99999999999949E-5,0.0005,.T.);
#15=DEGENERATE_TOROIDAL_SURFACE('',#1069,4.99999999999949E-5,0.0005,.T.);
#16=DEGENERATE_TOROIDAL_SURFACE('',#1070,4.99999999999949E-5,0.0005,.T.);
#17=DEGENERATE_TOROIDAL_SURFACE('',#1071,4.99999999999949E-5,0.0005,.T.);
#18=DEGENERATE_TOROIDAL_SURFACE('',#1072,4.99999999999949E-5,0.0005,.T.);
#19=DEGENERATE_TOROIDAL_SURFACE('',#1073,4.99999999999949E-5,0.0005,.T.);
#20=DEGENERATE_TOROIDAL_SURFACE('',#1074,4.99999999999949E-5,0.0005,.T.);
#21=DEGENERATE_TOROIDAL_SURFACE('',#1075,5.00000000000007E-5,0.0005,.T.);
#22=TOROIDAL_SURFACE('',#1006,0.00055,0.0002);
#23=TOROIDAL_SURFACE('',#1008,0.00055,0.0002);
#24=TOROIDAL_SURFACE('',#1010,0.00055,0.0002);
#25=TOROIDAL_SURFACE('',#1012,0.00055,0.0002);
#26=TOROIDAL_SURFACE('',#1014,0.00055,0.0002);
#27=TOROIDAL_SURFACE('',#1016,0.00055,0.0002);
#28=TOROIDAL_SURFACE('',#1018,0.00055,0.0002);
#29=TOROIDAL_SURFACE('',#1020,0.00055,0.0002);
#30=TOROIDAL_SURFACE('',#1022,0.00055,0.0002);
#31=TOROIDAL_SURFACE('',#1024,0.00055,0.0002);
#32=CYLINDRICAL_SURFACE('',#958,0.00075);
#33=CYLINDRICAL_SURFACE('',#961,0.00075);
#34=CYLINDRICAL_SURFACE('',#964,0.00075);
#35=CYLINDRICAL_SURFACE('',#967,0.00075);
#36=CYLINDRICAL_SURFACE('',#970,0.00075);
#37=CYLINDRICAL_SURFACE('',#973,0.00075);
#38=CYLINDRICAL_SURFACE('',#976,0.00075);
#39=CYLINDRICAL_SURFACE('',#979,0.00075);
#40=CYLINDRICAL_SURFACE('',#982,0.00075);
#41=CYLINDRICAL_SURFACE('',#985,0.00075);
#42=CYLINDRICAL_SURFACE('',#986,0.00075);
#43=CYLINDRICAL_SURFACE('',#988,0.00075);
#44=CYLINDRICAL_SURFACE('',#990,0.00075);
#45=CYLINDRICAL_SURFACE('',#992,0.00075);
#46=CYLINDRICAL_SURFACE('',#994,0.00075);
#47=CYLINDRICAL_SURFACE('',#996,0.00075);
#48=CYLINDRICAL_SURFACE('',#998,0.00075);
#49=CYLINDRICAL_SURFACE('',#1000,0.00075);
#50=CYLINDRICAL_SURFACE('',#1002,0.00075);
#51=CYLINDRICAL_SURFACE('',#1004,0.00075);
#52=CYLINDRICAL_SURFACE('',#1026,0.00055);
#53=CYLINDRICAL_SURFACE('',#1030,0.00055);
#54=CYLINDRICAL_SURFACE('',#1034,0.00055);
#55=CYLINDRICAL_SURFACE('',#1038,0.00055);
#56=CYLINDRICAL_SURFACE('',#1042,0.00055);
#57=CYLINDRICAL_SURFACE('',#1046,0.00055);
#58=CYLINDRICAL_SURFACE('',#1050,0.00055);
#59=CYLINDRICAL_SURFACE('',#1054,0.00055);
#60=CYLINDRICAL_SURFACE('',#1058,0.00055);
#61=CYLINDRICAL_SURFACE('',#1062,0.00055);
#62=CIRCLE('',#935,0.00075);
#63=CIRCLE('',#936,0.00075);
#64=CIRCLE('',#937,0.00075);
#65=CIRCLE('',#938,0.00075);
#66=CIRCLE('',#939,0.00075);
#67=CIRCLE('',#940,0.00075);
#68=CIRCLE('',#941,0.00075);
#69=CIRCLE('',#942,0.00075);
#70=CIRCLE('',#943,0.00075);
#71=CIRCLE('',#944,0.00075);
#72=CIRCLE('',#946,0.00075);
#73=CIRCLE('',#947,0.00075);
#74=CIRCLE('',#948,0.00075);
#75=CIRCLE('',#949,0.00075);
#76=CIRCLE('',#950,0.00075);
#77=CIRCLE('',#951,0.00075);
#78=CIRCLE('',#952,0.00075);
#79=CIRCLE('',#953,0.00075);
#80=CIRCLE('',#954,0.00075);
#81=CIRCLE('',#955,0.00075);
#82=CIRCLE('',#957,0.00075);
#83=CIRCLE('',#960,0.00075);
#84=CIRCLE('',#963,0.00075);
#85=CIRCLE('',#966,0.00075);
#86=CIRCLE('',#969,0.00075);
#87=CIRCLE('',#972,0.00075);
#88=CIRCLE('',#975,0.00075);
#89=CIRCLE('',#978,0.00075);
#90=CIRCLE('',#981,0.00075);
#91=CIRCLE('',#984,0.00075);
#92=CIRCLE('',#987,0.00075);
#93=CIRCLE('',#989,0.00075);
#94=CIRCLE('',#991,0.00075);
#95=CIRCLE('',#993,0.00075);
#96=CIRCLE('',#995,0.00075);
#97=CIRCLE('',#997,0.00075);
#98=CIRCLE('',#999,0.00075);
#99=CIRCLE('',#1001,0.00075);
#100=CIRCLE('',#1003,0.00075);
#101=CIRCLE('',#1005,0.00075);
#102=CIRCLE('',#1007,0.00055);
#103=CIRCLE('',#1009,0.00055);
#104=CIRCLE('',#1011,0.00055);
#105=CIRCLE('',#1013,0.00055);
#106=CIRCLE('',#1015,0.00055);
#107=CIRCLE('',#1017,0.00055);
#108=CIRCLE('',#1019,0.00055);
#109=CIRCLE('',#1021,0.00055);
#110=CIRCLE('',#1023,0.00055);
#111=CIRCLE('',#1025,0.00055);
#112=CIRCLE('',#1027,0.00055);
#113=CIRCLE('',#1029,5.00000000000007E-5);
#114=CIRCLE('',#1031,0.00055);
#115=CIRCLE('',#1033,4.99999999999949E-5);
#116=CIRCLE('',#1035,0.00055);
#117=CIRCLE('',#1037,4.99999999999949E-5);
#118=CIRCLE('',#1039,0.00055);
#119=CIRCLE('',#1041,4.99999999999949E-5);
#120=CIRCLE('',#1043,0.00055);
#121=CIRCLE('',#1045,4.99999999999949E-5);
#122=CIRCLE('',#1047,0.00055);
#123=CIRCLE('',#1049,4.99999999999949E-5);
#124=CIRCLE('',#1051,0.00055);
#125=CIRCLE('',#1053,4.99999999999949E-5);
#126=CIRCLE('',#1055,0.00055);
#127=CIRCLE('',#1057,4.99999999999949E-5);
#128=CIRCLE('',#1059,0.00055);
#129=CIRCLE('',#1061,4.99999999999949E-5);
#130=CIRCLE('',#1063,0.00055);
#131=CIRCLE('',#1065,4.99999999999949E-5);
#132=ORIENTED_EDGE('',*,*,#296,.F.);
#133=ORIENTED_EDGE('',*,*,#297,.F.);
#134=ORIENTED_EDGE('',*,*,#298,.T.);
#135=ORIENTED_EDGE('',*,*,#299,.T.);
#136=ORIENTED_EDGE('',*,*,#300,.T.);
#137=ORIENTED_EDGE('',*,*,#301,.F.);
#138=ORIENTED_EDGE('',*,*,#302,.F.);
#139=ORIENTED_EDGE('',*,*,#297,.T.);
#140=ORIENTED_EDGE('',*,*,#303,.T.);
#141=ORIENTED_EDGE('',*,*,#304,.F.);
#142=ORIENTED_EDGE('',*,*,#305,.F.);
#143=ORIENTED_EDGE('',*,*,#301,.T.);
#144=ORIENTED_EDGE('',*,*,#306,.F.);
#145=ORIENTED_EDGE('',*,*,#299,.F.);
#146=ORIENTED_EDGE('',*,*,#307,.T.);
#147=ORIENTED_EDGE('',*,*,#304,.T.);
#148=ORIENTED_EDGE('',*,*,#308,.F.);
#149=ORIENTED_EDGE('',*,*,#309,.F.);
#150=ORIENTED_EDGE('',*,*,#310,.F.);
#151=ORIENTED_EDGE('',*,*,#311,.F.);
#152=ORIENTED_EDGE('',*,*,#312,.F.);
#153=ORIENTED_EDGE('',*,*,#313,.F.);
#154=ORIENTED_EDGE('',*,*,#314,.F.);
#155=ORIENTED_EDGE('',*,*,#315,.F.);
#156=ORIENTED_EDGE('',*,*,#316,.F.);
#157=ORIENTED_EDGE('',*,*,#317,.F.);
#158=ORIENTED_EDGE('',*,*,#298,.F.);
#159=ORIENTED_EDGE('',*,*,#302,.T.);
#160=ORIENTED_EDGE('',*,*,#305,.T.);
#161=ORIENTED_EDGE('',*,*,#307,.F.);
#162=ORIENTED_EDGE('',*,*,#318,.F.);
#163=ORIENTED_EDGE('',*,*,#319,.F.);
#164=ORIENTED_EDGE('',*,*,#320,.F.);
#165=ORIENTED_EDGE('',*,*,#321,.F.);
#166=ORIENTED_EDGE('',*,*,#322,.F.);
#167=ORIENTED_EDGE('',*,*,#323,.F.);
#168=ORIENTED_EDGE('',*,*,#324,.F.);
#169=ORIENTED_EDGE('',*,*,#325,.F.);
#170=ORIENTED_EDGE('',*,*,#326,.F.);
#171=ORIENTED_EDGE('',*,*,#327,.F.);
#172=ORIENTED_EDGE('',*,*,#296,.T.);
#173=ORIENTED_EDGE('',*,*,#306,.T.);
#174=ORIENTED_EDGE('',*,*,#303,.F.);
#175=ORIENTED_EDGE('',*,*,#300,.F.);
#176=ORIENTED_EDGE('',*,*,#328,.F.);
#177=ORIENTED_EDGE('',*,*,#328,.T.);
#178=ORIENTED_EDGE('',*,*,#327,.T.);
#179=ORIENTED_EDGE('',*,*,#329,.F.);
#180=ORIENTED_EDGE('',*,*,#329,.T.);
#181=ORIENTED_EDGE('',*,*,#318,.T.);
#182=ORIENTED_EDGE('',*,*,#330,.F.);
#183=ORIENTED_EDGE('',*,*,#330,.T.);
#184=ORIENTED_EDGE('',*,*,#326,.T.);
#185=ORIENTED_EDGE('',*,*,#331,.F.);
#186=ORIENTED_EDGE('',*,*,#331,.T.);
#187=ORIENTED_EDGE('',*,*,#324,.T.);
#188=ORIENTED_EDGE('',*,*,#332,.F.);
#189=ORIENTED_EDGE('',*,*,#332,.T.);
#190=ORIENTED_EDGE('',*,*,#325,.T.);
#191=ORIENTED_EDGE('',*,*,#333,.F.);
#192=ORIENTED_EDGE('',*,*,#333,.T.);
#193=ORIENTED_EDGE('',*,*,#323,.T.);
#194=ORIENTED_EDGE('',*,*,#334,.F.);
#195=ORIENTED_EDGE('',*,*,#334,.T.);
#196=ORIENTED_EDGE('',*,*,#319,.T.);
#197=ORIENTED_EDGE('',*,*,#335,.F.);
#198=ORIENTED_EDGE('',*,*,#335,.T.);
#199=ORIENTED_EDGE('',*,*,#320,.T.);
#200=ORIENTED_EDGE('',*,*,#336,.F.);
#201=ORIENTED_EDGE('',*,*,#336,.T.);
#202=ORIENTED_EDGE('',*,*,#321,.T.);
#203=ORIENTED_EDGE('',*,*,#337,.F.);
#204=ORIENTED_EDGE('',*,*,#337,.T.);
#205=ORIENTED_EDGE('',*,*,#322,.T.);
#206=ORIENTED_EDGE('',*,*,#338,.T.);
#207=ORIENTED_EDGE('',*,*,#317,.T.);
#208=ORIENTED_EDGE('',*,*,#339,.T.);
#209=ORIENTED_EDGE('',*,*,#308,.T.);
#210=ORIENTED_EDGE('',*,*,#340,.T.);
#211=ORIENTED_EDGE('',*,*,#316,.T.);
#212=ORIENTED_EDGE('',*,*,#341,.T.);
#213=ORIENTED_EDGE('',*,*,#314,.T.);
#214=ORIENTED_EDGE('',*,*,#342,.T.);
#215=ORIENTED_EDGE('',*,*,#315,.T.);
#216=ORIENTED_EDGE('',*,*,#343,.T.);
#217=ORIENTED_EDGE('',*,*,#313,.T.);
#218=ORIENTED_EDGE('',*,*,#344,.T.);
#219=ORIENTED_EDGE('',*,*,#309,.T.);
#220=ORIENTED_EDGE('',*,*,#345,.T.);
#221=ORIENTED_EDGE('',*,*,#310,.T.);
#222=ORIENTED_EDGE('',*,*,#346,.T.);
#223=ORIENTED_EDGE('',*,*,#311,.T.);
#224=ORIENTED_EDGE('',*,*,#347,.T.);
#225=ORIENTED_EDGE('',*,*,#312,.T.);
#226=ORIENTED_EDGE('',*,*,#339,.F.);
#227=ORIENTED_EDGE('',*,*,#348,.F.);
#228=ORIENTED_EDGE('',*,*,#344,.F.);
#229=ORIENTED_EDGE('',*,*,#349,.F.);
#230=ORIENTED_EDGE('',*,*,#346,.F.);
#231=ORIENTED_EDGE('',*,*,#350,.F.);
#232=ORIENTED_EDGE('',*,*,#345,.F.);
#233=ORIENTED_EDGE('',*,*,#351,.F.);
#234=ORIENTED_EDGE('',*,*,#347,.F.);
#235=ORIENTED_EDGE('',*,*,#352,.F.);
#236=ORIENTED_EDGE('',*,*,#343,.F.);
#237=ORIENTED_EDGE('',*,*,#353,.F.);
#238=ORIENTED_EDGE('',*,*,#342,.F.);
#239=ORIENTED_EDGE('',*,*,#354,.F.);
#240=ORIENTED_EDGE('',*,*,#341,.F.);
#241=ORIENTED_EDGE('',*,*,#355,.F.);
#242=ORIENTED_EDGE('',*,*,#340,.F.);
#243=ORIENTED_EDGE('',*,*,#356,.F.);
#244=ORIENTED_EDGE('',*,*,#338,.F.);
#245=ORIENTED_EDGE('',*,*,#357,.F.);
#246=ORIENTED_EDGE('',*,*,#358,.T.);
#247=ORIENTED_EDGE('',*,*,#357,.T.);
#248=ORIENTED_EDGE('',*,*,#359,.T.);
#249=ORIENTED_EDGE('',*,*,#360,.T.);
#250=ORIENTED_EDGE('',*,*,#356,.T.);
#251=ORIENTED_EDGE('',*,*,#361,.T.);
#252=ORIENTED_EDGE('',*,*,#362,.T.);
#253=ORIENTED_EDGE('',*,*,#355,.T.);
#254=ORIENTED_EDGE('',*,*,#363,.T.);
#255=ORIENTED_EDGE('',*,*,#364,.T.);
#256=ORIENTED_EDGE('',*,*,#354,.T.);
#257=ORIENTED_EDGE('',*,*,#365,.T.);
#258=ORIENTED_EDGE('',*,*,#366,.T.);
#259=ORIENTED_EDGE('',*,*,#353,.T.);
#260=ORIENTED_EDGE('',*,*,#367,.T.);
#261=ORIENTED_EDGE('',*,*,#368,.T.);
#262=ORIENTED_EDGE('',*,*,#352,.T.);
#263=ORIENTED_EDGE('',*,*,#369,.T.);
#264=ORIENTED_EDGE('',*,*,#370,.T.);
#265=ORIENTED_EDGE('',*,*,#351,.T.);
#266=ORIENTED_EDGE('',*,*,#371,.T.);
#267=ORIENTED_EDGE('',*,*,#372,.T.);
#268=ORIENTED_EDGE('',*,*,#350,.T.);
#269=ORIENTED_EDGE('',*,*,#373,.T.);
#270=ORIENTED_EDGE('',*,*,#374,.T.);
#271=ORIENTED_EDGE('',*,*,#349,.T.);
#272=ORIENTED_EDGE('',*,*,#375,.T.);
#273=ORIENTED_EDGE('',*,*,#376,.T.);
#274=ORIENTED_EDGE('',*,*,#348,.T.);
#275=ORIENTED_EDGE('',*,*,#377,.T.);
#276=ORIENTED_EDGE('',*,*,#376,.F.);
#277=ORIENTED_EDGE('',*,*,#377,.F.);
#278=ORIENTED_EDGE('',*,*,#374,.F.);
#279=ORIENTED_EDGE('',*,*,#375,.F.);
#280=ORIENTED_EDGE('',*,*,#370,.F.);
#281=ORIENTED_EDGE('',*,*,#371,.F.);
#282=ORIENTED_EDGE('',*,*,#372,.F.);
#283=ORIENTED_EDGE('',*,*,#373,.F.);
#284=ORIENTED_EDGE('',*,*,#368,.F.);
#285=ORIENTED_EDGE('',*,*,#369,.F.);
#286=ORIENTED_EDGE('',*,*,#366,.F.);
#287=ORIENTED_EDGE('',*,*,#367,.F.);
#288=ORIENTED_EDGE('',*,*,#364,.F.);
#289=ORIENTED_EDGE('',*,*,#365,.F.);
#290=ORIENTED_EDGE('',*,*,#362,.F.);
#291=ORIENTED_EDGE('',*,*,#363,.F.);
#292=ORIENTED_EDGE('',*,*,#360,.F.);
#293=ORIENTED_EDGE('',*,*,#361,.F.);
#294=ORIENTED_EDGE('',*,*,#358,.F.);
#295=ORIENTED_EDGE('',*,*,#359,.F.);
#296=EDGE_CURVE('',#378,#379,#456,.T.);
#297=EDGE_CURVE('',#380,#378,#457,.T.);
#298=EDGE_CURVE('',#380,#381,#458,.T.);
#299=EDGE_CURVE('',#381,#379,#459,.T.);
#300=EDGE_CURVE('',#378,#382,#460,.T.);
#301=EDGE_CURVE('',#383,#382,#461,.T.);
#302=EDGE_CURVE('',#380,#383,#462,.T.);
#303=EDGE_CURVE('',#382,#384,#463,.T.);
#304=EDGE_CURVE('',#385,#384,#464,.T.);
#305=EDGE_CURVE('',#383,#385,#465,.T.);
#306=EDGE_CURVE('',#379,#384,#466,.T.);
#307=EDGE_CURVE('',#381,#385,#467,.T.);
#308=EDGE_CURVE('',#386,#386,#62,.T.);
#309=EDGE_CURVE('',#387,#387,#63,.T.);
#310=EDGE_CURVE('',#388,#388,#64,.T.);
#311=EDGE_CURVE('',#389,#389,#65,.T.);
#312=EDGE_CURVE('',#390,#390,#66,.T.);
#313=EDGE_CURVE('',#391,#391,#67,.T.);
#314=EDGE_CURVE('',#392,#392,#68,.T.);
#315=EDGE_CURVE('',#393,#393,#69,.T.);
#316=EDGE_CURVE('',#394,#394,#70,.T.);
#317=EDGE_CURVE('',#395,#395,#71,.T.);
#318=EDGE_CURVE('',#396,#396,#72,.F.);
#319=EDGE_CURVE('',#397,#397,#73,.F.);
#320=EDGE_CURVE('',#398,#398,#74,.F.);
#321=EDGE_CURVE('',#399,#399,#75,.F.);
#322=EDGE_CURVE('',#400,#400,#76,.F.);
#323=EDGE_CURVE('',#401,#401,#77,.F.);
#324=EDGE_CURVE('',#402,#402,#78,.F.);
#325=EDGE_CURVE('',#403,#403,#79,.F.);
#326=EDGE_CURVE('',#404,#404,#80,.F.);
#327=EDGE_CURVE('',#405,#405,#81,.F.);
#328=EDGE_CURVE('',#406,#406,#82,.T.);
#329=EDGE_CURVE('',#407,#407,#83,.T.);
#330=EDGE_CURVE('',#408,#408,#84,.T.);
#331=EDGE_CURVE('',#409,#409,#85,.T.);
#332=EDGE_CURVE('',#410,#410,#86,.T.);
#333=EDGE_CURVE('',#411,#411,#87,.T.);
#334=EDGE_CURVE('',#412,#412,#88,.T.);
#335=EDGE_CURVE('',#413,#413,#89,.T.);
#336=EDGE_CURVE('',#414,#414,#90,.T.);
#337=EDGE_CURVE('',#415,#415,#91,.T.);
#338=EDGE_CURVE('',#416,#416,#92,.F.);
#339=EDGE_CURVE('',#417,#417,#93,.F.);
#340=EDGE_CURVE('',#418,#418,#94,.F.);
#341=EDGE_CURVE('',#419,#419,#95,.F.);
#342=EDGE_CURVE('',#420,#420,#96,.F.);
#343=EDGE_CURVE('',#421,#421,#97,.F.);
#344=EDGE_CURVE('',#422,#422,#98,.F.);
#345=EDGE_CURVE('',#423,#423,#99,.F.);
#346=EDGE_CURVE('',#424,#424,#100,.F.);
#347=EDGE_CURVE('',#425,#425,#101,.F.);
#348=EDGE_CURVE('',#426,#426,#102,.T.);
#349=EDGE_CURVE('',#427,#427,#103,.T.);
#350=EDGE_CURVE('',#428,#428,#104,.T.);
#351=EDGE_CURVE('',#429,#429,#105,.T.);
#352=EDGE_CURVE('',#430,#430,#106,.T.);
#353=EDGE_CURVE('',#431,#431,#107,.T.);
#354=EDGE_CURVE('',#432,#432,#108,.T.);
#355=EDGE_CURVE('',#433,#433,#109,.T.);
#356=EDGE_CURVE('',#434,#434,#110,.T.);
#357=EDGE_CURVE('',#435,#435,#111,.T.);
#358=EDGE_CURVE('',#436,#436,#112,.F.);
#359=EDGE_CURVE('',#437,#437,#113,.T.);
#360=EDGE_CURVE('',#438,#438,#114,.F.);
#361=EDGE_CURVE('',#439,#439,#115,.T.);
#362=EDGE_CURVE('',#440,#440,#116,.F.);
#363=EDGE_CURVE('',#441,#441,#117,.T.);
#364=EDGE_CURVE('',#442,#442,#118,.F.);
#365=EDGE_CURVE('',#443,#443,#119,.T.);
#366=EDGE_CURVE('',#444,#444,#120,.F.);
#367=EDGE_CURVE('',#445,#445,#121,.T.);
#368=EDGE_CURVE('',#446,#446,#122,.F.);
#369=EDGE_CURVE('',#447,#447,#123,.T.);
#370=EDGE_CURVE('',#448,#448,#124,.F.);
#371=EDGE_CURVE('',#449,#449,#125,.T.);
#372=EDGE_CURVE('',#450,#450,#126,.F.);
#373=EDGE_CURVE('',#451,#451,#127,.T.);
#374=EDGE_CURVE('',#452,#452,#128,.F.);
#375=EDGE_CURVE('',#453,#453,#129,.T.);
#376=EDGE_CURVE('',#454,#454,#130,.F.);
#377=EDGE_CURVE('',#455,#455,#131,.T.);
#378=VERTEX_POINT('',#1385);
#379=VERTEX_POINT('',#1386);
#380=VERTEX_POINT('',#1388);
#381=VERTEX_POINT('',#1390);
#382=VERTEX_POINT('',#1394);
#383=VERTEX_POINT('',#1396);
#384=VERTEX_POINT('',#1400);
#385=VERTEX_POINT('',#1402);
#386=VERTEX_POINT('',#1409);
#387=VERTEX_POINT('',#1411);
#388=VERTEX_POINT('',#1413);
#389=VERTEX_POINT('',#1415);
#390=VERTEX_POINT('',#1417);
#391=VERTEX_POINT('',#1419);
#392=VERTEX_POINT('',#1421);
#393=VERTEX_POINT('',#1423);
#394=VERTEX_POINT('',#1425);
#395=VERTEX_POINT('',#1427);
#396=VERTEX_POINT('',#1430);
#397=VERTEX_POINT('',#1432);
#398=VERTEX_POINT('',#1434);
#399=VERTEX_POINT('',#1436);
#400=VERTEX_POINT('',#1438);
#401=VERTEX_POINT('',#1440);
#402=VERTEX_POINT('',#1442);
#403=VERTEX_POINT('',#1444);
#404=VERTEX_POINT('',#1446);
#405=VERTEX_POINT('',#1448);
#406=VERTEX_POINT('',#1451);
#407=VERTEX_POINT('',#1455);
#408=VERTEX_POINT('',#1459);
#409=VERTEX_POINT('',#1463);
#410=VERTEX_POINT('',#1467);
#411=VERTEX_POINT('',#1471);
#412=VERTEX_POINT('',#1475);
#413=VERTEX_POINT('',#1479);
#414=VERTEX_POINT('',#1483);
#415=VERTEX_POINT('',#1487);
#416=VERTEX_POINT('',#1491);
#417=VERTEX_POINT('',#1494);
#418=VERTEX_POINT('',#1497);
#419=VERTEX_POINT('',#1500);
#420=VERTEX_POINT('',#1503);
#421=VERTEX_POINT('',#1506);
#422=VERTEX_POINT('',#1509);
#423=VERTEX_POINT('',#1512);
#424=VERTEX_POINT('',#1515);
#425=VERTEX_POINT('',#1518);
#426=VERTEX_POINT('',#1521);
#427=VERTEX_POINT('',#1524);
#428=VERTEX_POINT('',#1527);
#429=VERTEX_POINT('',#1530);
#430=VERTEX_POINT('',#1533);
#431=VERTEX_POINT('',#1536);
#432=VERTEX_POINT('',#1539);
#433=VERTEX_POINT('',#1542);
#434=VERTEX_POINT('',#1545);
#435=VERTEX_POINT('',#1548);
#436=VERTEX_POINT('',#1551);
#437=VERTEX_POINT('',#1554);
#438=VERTEX_POINT('',#1557);
#439=VERTEX_POINT('',#1560);
#440=VERTEX_POINT('',#1563);
#441=VERTEX_POINT('',#1566);
#442=VERTEX_POINT('',#1569);
#443=VERTEX_POINT('',#1572);
#444=VERTEX_POINT('',#1575);
#445=VERTEX_POINT('',#1578);
#446=VERTEX_POINT('',#1581);
#447=VERTEX_POINT('',#1584);
#448=VERTEX_POINT('',#1587);
#449=VERTEX_POINT('',#1590);
#450=VERTEX_POINT('',#1593);
#451=VERTEX_POINT('',#1596);
#452=VERTEX_POINT('',#1599);
#453=VERTEX_POINT('',#1602);
#454=VERTEX_POINT('',#1605);
#455=VERTEX_POINT('',#1608);
#456=LINE('',#1384,#468);
#457=LINE('',#1387,#469);
#458=LINE('',#1389,#470);
#459=LINE('',#1391,#471);
#460=LINE('',#1393,#472);
#461=LINE('',#1395,#473);
#462=LINE('',#1397,#474);
#463=LINE('',#1399,#475);
#464=LINE('',#1401,#476);
#465=LINE('',#1403,#477);
#466=LINE('',#1405,#478);
#467=LINE('',#1406,#479);
#468=VECTOR('',#1080,1.);
#469=VECTOR('',#1081,1.);
#470=VECTOR('',#1082,1.);
#471=VECTOR('',#1083,1.);
#472=VECTOR('',#1086,1.);
#473=VECTOR('',#1087,1.);
#474=VECTOR('',#1088,1.);
#475=VECTOR('',#1091,1.);
#476=VECTOR('',#1092,1.);
#477=VECTOR('',#1093,1.);
#478=VECTOR('',#1096,1.);
#479=VECTOR('',#1097,1.);
#480=EDGE_LOOP('',(#132,#133,#134,#135));
#481=EDGE_LOOP('',(#136,#137,#138,#139));
#482=EDGE_LOOP('',(#140,#141,#142,#143));
#483=EDGE_LOOP('',(#144,#145,#146,#147));
#484=EDGE_LOOP('',(#148));
#485=EDGE_LOOP('',(#149));
#486=EDGE_LOOP('',(#150));
#487=EDGE_LOOP('',(#151));
#488=EDGE_LOOP('',(#152));
#489=EDGE_LOOP('',(#153));
#490=EDGE_LOOP('',(#154));
#491=EDGE_LOOP('',(#155));
#492=EDGE_LOOP('',(#156));
#493=EDGE_LOOP('',(#157));
#494=EDGE_LOOP('',(#158,#159,#160,#161));
#495=EDGE_LOOP('',(#162));
#496=EDGE_LOOP('',(#163));
#497=EDGE_LOOP('',(#164));
#498=EDGE_LOOP('',(#165));
#499=EDGE_LOOP('',(#166));
#500=EDGE_LOOP('',(#167));
#501=EDGE_LOOP('',(#168));
#502=EDGE_LOOP('',(#169));
#503=EDGE_LOOP('',(#170));
#504=EDGE_LOOP('',(#171));
#505=EDGE_LOOP('',(#172,#173,#174,#175));
#506=EDGE_LOOP('',(#176));
#507=EDGE_LOOP('',(#177));
#508=EDGE_LOOP('',(#178));
#509=EDGE_LOOP('',(#179));
#510=EDGE_LOOP('',(#180));
#511=EDGE_LOOP('',(#181));
#512=EDGE_LOOP('',(#182));
#513=EDGE_LOOP('',(#183));
#514=EDGE_LOOP('',(#184));
#515=EDGE_LOOP('',(#185));
#516=EDGE_LOOP('',(#186));
#517=EDGE_LOOP('',(#187));
#518=EDGE_LOOP('',(#188));
#519=EDGE_LOOP('',(#189));
#520=EDGE_LOOP('',(#190));
#521=EDGE_LOOP('',(#191));
#522=EDGE_LOOP('',(#192));
#523=EDGE_LOOP('',(#193));
#524=EDGE_LOOP('',(#194));
#525=EDGE_LOOP('',(#195));
#526=EDGE_LOOP('',(#196));
#527=EDGE_LOOP('',(#197));
#528=EDGE_LOOP('',(#198));
#529=EDGE_LOOP('',(#199));
#530=EDGE_LOOP('',(#200));
#531=EDGE_LOOP('',(#201));
#532=EDGE_LOOP('',(#202));
#533=EDGE_LOOP('',(#203));
#534=EDGE_LOOP('',(#204));
#535=EDGE_LOOP('',(#205));
#536=EDGE_LOOP('',(#206));
#537=EDGE_LOOP('',(#207));
#538=EDGE_LOOP('',(#208));
#539=EDGE_LOOP('',(#209));
#540=EDGE_LOOP('',(#210));
#541=EDGE_LOOP('',(#211));
#542=EDGE_LOOP('',(#212));
#543=EDGE_LOOP('',(#213));
#544=EDGE_LOOP('',(#214));
#545=EDGE_LOOP('',(#215));
#546=EDGE_LOOP('',(#216));
#547=EDGE_LOOP('',(#217));
#548=EDGE_LOOP('',(#218));
#549=EDGE_LOOP('',(#219));
#550=EDGE_LOOP('',(#220));
#551=EDGE_LOOP('',(#221));
#552=EDGE_LOOP('',(#222));
#553=EDGE_LOOP('',(#223));
#554=EDGE_LOOP('',(#224));
#555=EDGE_LOOP('',(#225));
#556=EDGE_LOOP('',(#226));
#557=EDGE_LOOP('',(#227));
#558=EDGE_LOOP('',(#228));
#559=EDGE_LOOP('',(#229));
#560=EDGE_LOOP('',(#230));
#561=EDGE_LOOP('',(#231));
#562=EDGE_LOOP('',(#232));
#563=EDGE_LOOP('',(#233));
#564=EDGE_LOOP('',(#234));
#565=EDGE_LOOP('',(#235));
#566=EDGE_LOOP('',(#236));
#567=EDGE_LOOP('',(#237));
#568=EDGE_LOOP('',(#238));
#569=EDGE_LOOP('',(#239));
#570=EDGE_LOOP('',(#240));
#571=EDGE_LOOP('',(#241));
#572=EDGE_LOOP('',(#242));
#573=EDGE_LOOP('',(#243));
#574=EDGE_LOOP('',(#244));
#575=EDGE_LOOP('',(#245));
#576=EDGE_LOOP('',(#246));
#577=EDGE_LOOP('',(#247));
#578=EDGE_LOOP('',(#248));
#579=EDGE_LOOP('',(#249));
#580=EDGE_LOOP('',(#250));
#581=EDGE_LOOP('',(#251));
#582=EDGE_LOOP('',(#252));
#583=EDGE_LOOP('',(#253));
#584=EDGE_LOOP('',(#254));
#585=EDGE_LOOP('',(#255));
#586=EDGE_LOOP('',(#256));
#587=EDGE_LOOP('',(#257));
#588=EDGE_LOOP('',(#258));
#589=EDGE_LOOP('',(#259));
#590=EDGE_LOOP('',(#260));
#591=EDGE_LOOP('',(#261));
#592=EDGE_LOOP('',(#262));
#593=EDGE_LOOP('',(#263));
#594=EDGE_LOOP('',(#264));
#595=EDGE_LOOP('',(#265));
#596=EDGE_LOOP('',(#266));
#597=EDGE_LOOP('',(#267));
#598=EDGE_LOOP('',(#268));
#599=EDGE_LOOP('',(#269));
#600=EDGE_LOOP('',(#270));
#601=EDGE_LOOP('',(#271));
#602=EDGE_LOOP('',(#272));
#603=EDGE_LOOP('',(#273));
#604=EDGE_LOOP('',(#274));
#605=EDGE_LOOP('',(#275));
#606=EDGE_LOOP('',(#276));
#607=EDGE_LOOP('',(#277));
#608=EDGE_LOOP('',(#278));
#609=EDGE_LOOP('',(#279));
#610=EDGE_LOOP('',(#280));
#611=EDGE_LOOP('',(#281));
#612=EDGE_LOOP('',(#282));
#613=EDGE_LOOP('',(#283));
#614=EDGE_LOOP('',(#284));
#615=EDGE_LOOP('',(#285));
#616=EDGE_LOOP('',(#286));
#617=EDGE_LOOP('',(#287));
#618=EDGE_LOOP('',(#288));
#619=EDGE_LOOP('',(#289));
#620=EDGE_LOOP('',(#290));
#621=EDGE_LOOP('',(#291));
#622=EDGE_LOOP('',(#292));
#623=EDGE_LOOP('',(#293));
#624=EDGE_LOOP('',(#294));
#625=EDGE_LOOP('',(#295));
#626=FACE_BOUND('',#480,.T.);
#627=FACE_BOUND('',#481,.T.);
#628=FACE_BOUND('',#482,.T.);
#629=FACE_BOUND('',#483,.T.);
#630=FACE_BOUND('',#484,.T.);
#631=FACE_BOUND('',#485,.T.);
#632=FACE_BOUND('',#486,.T.);
#633=FACE_BOUND('',#487,.T.);
#634=FACE_BOUND('',#488,.T.);
#635=FACE_BOUND('',#489,.T.);
#636=FACE_BOUND('',#490,.T.);
#637=FACE_BOUND('',#491,.T.);
#638=FACE_BOUND('',#492,.T.);
#639=FACE_BOUND('',#493,.T.);
#640=FACE_BOUND('',#494,.T.);
#641=FACE_BOUND('',#495,.T.);
#642=FACE_BOUND('',#496,.T.);
#643=FACE_BOUND('',#497,.T.);
#644=FACE_BOUND('',#498,.T.);
#645=FACE_BOUND('',#499,.T.);
#646=FACE_BOUND('',#500,.T.);
#647=FACE_BOUND('',#501,.T.);
#648=FACE_BOUND('',#502,.T.);
#649=FACE_BOUND('',#503,.T.);
#650=FACE_BOUND('',#504,.T.);
#651=FACE_BOUND('',#505,.T.);
#652=FACE_BOUND('',#506,.T.);
#653=FACE_BOUND('',#507,.T.);
#654=FACE_BOUND('',#508,.T.);
#655=FACE_BOUND('',#509,.T.);
#656=FACE_BOUND('',#510,.T.);
#657=FACE_BOUND('',#511,.T.);
#658=FACE_BOUND('',#512,.T.);
#659=FACE_BOUND('',#513,.T.);
#660=FACE_BOUND('',#514,.T.);
#661=FACE_BOUND('',#515,.T.);
#662=FACE_BOUND('',#516,.T.);
#663=FACE_BOUND('',#517,.T.);
#664=FACE_BOUND('',#518,.T.);
#665=FACE_BOUND('',#519,.T.);
#666=FACE_BOUND('',#520,.T.);
#667=FACE_BOUND('',#521,.T.);
#668=FACE_BOUND('',#522,.T.);
#669=FACE_BOUND('',#523,.T.);
#670=FACE_BOUND('',#524,.T.);
#671=FACE_BOUND('',#525,.T.);
#672=FACE_BOUND('',#526,.T.);
#673=FACE_BOUND('',#527,.T.);
#674=FACE_BOUND('',#528,.T.);
#675=FACE_BOUND('',#529,.T.);
#676=FACE_BOUND('',#530,.T.);
#677=FACE_BOUND('',#531,.T.);
#678=FACE_BOUND('',#532,.T.);
#679=FACE_BOUND('',#533,.T.);
#680=FACE_BOUND('',#534,.T.);
#681=FACE_BOUND('',#535,.T.);
#682=FACE_BOUND('',#536,.T.);
#683=FACE_BOUND('',#537,.T.);
#684=FACE_BOUND('',#538,.T.);
#685=FACE_BOUND('',#539,.T.);
#686=FACE_BOUND('',#540,.T.);
#687=FACE_BOUND('',#541,.T.);
#688=FACE_BOUND('',#542,.T.);
#689=FACE_BOUND('',#543,.T.);
#690=FACE_BOUND('',#544,.T.);
#691=FACE_BOUND('',#545,.T.);
#692=FACE_BOUND('',#546,.T.);
#693=FACE_BOUND('',#547,.T.);
#694=FACE_BOUND('',#548,.T.);
#695=FACE_BOUND('',#549,.T.);
#696=FACE_BOUND('',#550,.T.);
#697=FACE_BOUND('',#551,.T.);
#698=FACE_BOUND('',#552,.T.);
#699=FACE_BOUND('',#553,.T.);
#700=FACE_BOUND('',#554,.T.);
#701=FACE_BOUND('',#555,.T.);
#702=FACE_BOUND('',#556,.T.);
#703=FACE_BOUND('',#557,.T.);
#704=FACE_BOUND('',#558,.T.);
#705=FACE_BOUND('',#559,.T.);
#706=FACE_BOUND('',#560,.T.);
#707=FACE_BOUND('',#561,.T.);
#708=FACE_BOUND('',#562,.T.);
#709=FACE_BOUND('',#563,.T.);
#710=FACE_BOUND('',#564,.T.);
#711=FACE_BOUND('',#565,.T.);
#712=FACE_BOUND('',#566,.T.);
#713=FACE_BOUND('',#567,.T.);
#714=FACE_BOUND('',#568,.T.);
#715=FACE_BOUND('',#569,.T.);
#716=FACE_BOUND('',#570,.T.);
#717=FACE_BOUND('',#571,.T.);
#718=FACE_BOUND('',#572,.T.);
#719=FACE_BOUND('',#573,.T.);
#720=FACE_BOUND('',#574,.T.);
#721=FACE_BOUND('',#575,.T.);
#722=FACE_BOUND('',#576,.T.);
#723=FACE_BOUND('',#577,.T.);
#724=FACE_BOUND('',#578,.T.);
#725=FACE_BOUND('',#579,.T.);
#726=FACE_BOUND('',#580,.T.);
#727=FACE_BOUND('',#581,.T.);
#728=FACE_BOUND('',#582,.T.);
#729=FACE_BOUND('',#583,.T.);
#730=FACE_BOUND('',#584,.T.);
#731=FACE_BOUND('',#585,.T.);
#732=FACE_BOUND('',#586,.T.);
#733=FACE_BOUND('',#587,.T.);
#734=FACE_BOUND('',#588,.T.);
#735=FACE_BOUND('',#589,.T.);
#736=FACE_BOUND('',#590,.T.);
#737=FACE_BOUND('',#591,.T.);
#738=FACE_BOUND('',#592,.T.);
#739=FACE_BOUND('',#593,.T.);
#740=FACE_BOUND('',#594,.T.);
#741=FACE_BOUND('',#595,.T.);
#742=FACE_BOUND('',#596,.T.);
#743=FACE_BOUND('',#597,.T.);
#744=FACE_BOUND('',#598,.T.);
#745=FACE_BOUND('',#599,.T.);
#746=FACE_BOUND('',#600,.T.);
#747=FACE_BOUND('',#601,.T.);
#748=FACE_BOUND('',#602,.T.);
#749=FACE_BOUND('',#603,.T.);
#750=FACE_BOUND('',#604,.T.);
#751=FACE_BOUND('',#605,.T.);
#752=FACE_BOUND('',#606,.T.);
#753=FACE_BOUND('',#607,.T.);
#754=FACE_BOUND('',#608,.T.);
#755=FACE_BOUND('',#609,.T.);
#756=FACE_BOUND('',#610,.T.);
#757=FACE_BOUND('',#611,.T.);
#758=FACE_BOUND('',#612,.T.);
#759=FACE_BOUND('',#613,.T.);
#760=FACE_BOUND('',#614,.T.);
#761=FACE_BOUND('',#615,.T.);
#762=FACE_BOUND('',#616,.T.);
#763=FACE_BOUND('',#617,.T.);
#764=FACE_BOUND('',#618,.T.);
#765=FACE_BOUND('',#619,.T.);
#766=FACE_BOUND('',#620,.T.);
#767=FACE_BOUND('',#621,.T.);
#768=FACE_BOUND('',#622,.T.);
#769=FACE_BOUND('',#623,.T.);
#770=FACE_BOUND('',#624,.T.);
#771=FACE_BOUND('',#625,.T.);
#772=PLANE('',#930);
#773=PLANE('',#931);
#774=PLANE('',#932);
#775=PLANE('',#933);
#776=PLANE('',#934);
#777=PLANE('',#945);
#778=PLANE('',#956);
#779=PLANE('',#959);
#780=PLANE('',#962);
#781=PLANE('',#965);
#782=PLANE('',#968);
#783=PLANE('',#971);
#784=PLANE('',#974);
#785=PLANE('',#977);
#786=PLANE('',#980);
#787=PLANE('',#983);
#788=PLANE('',#1028);
#789=PLANE('',#1032);
#790=PLANE('',#1036);
#791=PLANE('',#1040);
#792=PLANE('',#1044);
#793=PLANE('',#1048);
#794=PLANE('',#1052);
#795=PLANE('',#1056);
#796=PLANE('',#1060);
#797=PLANE('',#1064);
#798=OVER_RIDING_STYLED_ITEM('',(#884),#805,#882);
#799=OVER_RIDING_STYLED_ITEM('',(#885),#806,#882);
#800=OVER_RIDING_STYLED_ITEM('',(#886),#807,#882);
#801=OVER_RIDING_STYLED_ITEM('',(#887),#808,#882);
#802=OVER_RIDING_STYLED_ITEM('',(#888),#809,#882);
#803=OVER_RIDING_STYLED_ITEM('',(#889),#810,#882);
#804=DRAUGHTING_PRE_DEFINED_COLOUR('black');
#805=ADVANCED_FACE('Face appearance 1',(#626),#772,.T.);
#806=ADVANCED_FACE('Face appearance 1',(#627),#773,.F.);
#807=ADVANCED_FACE('Face appearance 1',(#628),#774,.F.);
#808=ADVANCED_FACE('Face appearance 1',(#629),#775,.T.);
#809=ADVANCED_FACE('Face appearance 1',(#630,#631,#632,#633,#634,#635,#636,
#637,#638,#639,#640),#776,.T.);
#810=ADVANCED_FACE('Face appearance 1',(#641,#642,#643,#644,#645,#646,#647,
#648,#649,#650,#651),#777,.F.);
#811=ADVANCED_FACE('',(#652),#778,.F.);
#812=ADVANCED_FACE('',(#653,#654),#32,.T.);
#813=ADVANCED_FACE('',(#655),#779,.F.);
#814=ADVANCED_FACE('',(#656,#657),#33,.T.);
#815=ADVANCED_FACE('',(#658),#780,.F.);
#816=ADVANCED_FACE('',(#659,#660),#34,.T.);
#817=ADVANCED_FACE('',(#661),#781,.F.);
#818=ADVANCED_FACE('',(#662,#663),#35,.T.);
#819=ADVANCED_FACE('',(#664),#782,.F.);
#820=ADVANCED_FACE('',(#665,#666),#36,.T.);
#821=ADVANCED_FACE('',(#667),#783,.F.);
#822=ADVANCED_FACE('',(#668,#669),#37,.T.);
#823=ADVANCED_FACE('',(#670),#784,.F.);
#824=ADVANCED_FACE('',(#671,#672),#38,.T.);
#825=ADVANCED_FACE('',(#673),#785,.F.);
#826=ADVANCED_FACE('',(#674,#675),#39,.T.);
#827=ADVANCED_FACE('',(#676),#786,.F.);
#828=ADVANCED_FACE('',(#677,#678),#40,.T.);
#829=ADVANCED_FACE('',(#679),#787,.F.);
#830=ADVANCED_FACE('',(#680,#681),#41,.T.);
#831=ADVANCED_FACE('',(#682,#683),#42,.T.);
#832=ADVANCED_FACE('',(#684,#685),#43,.T.);
#833=ADVANCED_FACE('',(#686,#687),#44,.T.);
#834=ADVANCED_FACE('',(#688,#689),#45,.T.);
#835=ADVANCED_FACE('',(#690,#691),#46,.T.);
#836=ADVANCED_FACE('',(#692,#693),#47,.T.);
#837=ADVANCED_FACE('',(#694,#695),#48,.T.);
#838=ADVANCED_FACE('',(#696,#697),#49,.T.);
#839=ADVANCED_FACE('',(#698,#699),#50,.T.);
#840=ADVANCED_FACE('',(#700,#701),#51,.T.);
#841=ADVANCED_FACE('',(#702,#703),#22,.T.);
#842=ADVANCED_FACE('',(#704,#705),#23,.T.);
#843=ADVANCED_FACE('',(#706,#707),#24,.T.);
#844=ADVANCED_FACE('',(#708,#709),#25,.T.);
#845=ADVANCED_FACE('',(#710,#711),#26,.T.);
#846=ADVANCED_FACE('',(#712,#713),#27,.T.);
#847=ADVANCED_FACE('',(#714,#715),#28,.T.);
#848=ADVANCED_FACE('',(#716,#717),#29,.T.);
#849=ADVANCED_FACE('',(#718,#719),#30,.T.);
#850=ADVANCED_FACE('',(#720,#721),#31,.T.);
#851=ADVANCED_FACE('',(#722,#723),#52,.T.);
#852=ADVANCED_FACE('',(#724),#788,.T.);
#853=ADVANCED_FACE('',(#725,#726),#53,.T.);
#854=ADVANCED_FACE('',(#727),#789,.T.);
#855=ADVANCED_FACE('',(#728,#729),#54,.T.);
#856=ADVANCED_FACE('',(#730),#790,.T.);
#857=ADVANCED_FACE('',(#731,#732),#55,.T.);
#858=ADVANCED_FACE('',(#733),#791,.T.);
#859=ADVANCED_FACE('',(#734,#735),#56,.T.);
#860=ADVANCED_FACE('',(#736),#792,.T.);
#861=ADVANCED_FACE('',(#737,#738),#57,.T.);
#862=ADVANCED_FACE('',(#739),#793,.T.);
#863=ADVANCED_FACE('',(#740,#741),#58,.T.);
#864=ADVANCED_FACE('',(#742),#794,.T.);
#865=ADVANCED_FACE('',(#743,#744),#59,.T.);
#866=ADVANCED_FACE('',(#745),#795,.T.);
#867=ADVANCED_FACE('',(#746,#747),#60,.T.);
#868=ADVANCED_FACE('',(#748),#796,.T.);
#869=ADVANCED_FACE('',(#749,#750),#61,.T.);
#870=ADVANCED_FACE('',(#751),#797,.T.);
#871=ADVANCED_FACE('',(#752,#753),#12,.T.);
#872=ADVANCED_FACE('',(#754,#755),#13,.T.);
#873=ADVANCED_FACE('',(#756,#757),#14,.T.);
#874=ADVANCED_FACE('',(#758,#759),#15,.T.);
#875=ADVANCED_FACE('',(#760,#761),#16,.T.);
#876=ADVANCED_FACE('',(#762,#763),#17,.T.);
#877=ADVANCED_FACE('',(#764,#765),#18,.T.);
#878=ADVANCED_FACE('',(#766,#767),#19,.T.);
#879=ADVANCED_FACE('',(#768,#769),#20,.T.);
#880=ADVANCED_FACE('',(#770,#771),#21,.T.);
#881=CLOSED_SHELL('',(#805,#806,#807,#808,#809,#810,#811,#812,#813,#814,
#815,#816,#817,#818,#819,#820,#821,#822,#823,#824,#825,#826,#827,#828,#829,
#830,#831,#832,#833,#834,#835,#836,#837,#838,#839,#840,#841,#842,#843,#844,
#845,#846,#847,#848,#849,#850,#851,#852,#853,#854,#855,#856,#857,#858,#859,
#860,#861,#862,#863,#864,#865,#866,#867,#868,#869,#870,#871,#872,#873,#874,
#875,#876,#877,#878,#879,#880));
#882=STYLED_ITEM('',(#883),#926);
#883=PRESENTATION_STYLE_ASSIGNMENT((#890));
#884=PRESENTATION_STYLE_ASSIGNMENT((#891));
#885=PRESENTATION_STYLE_ASSIGNMENT((#892));
#886=PRESENTATION_STYLE_ASSIGNMENT((#893));
#887=PRESENTATION_STYLE_ASSIGNMENT((#894));
#888=PRESENTATION_STYLE_ASSIGNMENT((#895));
#889=PRESENTATION_STYLE_ASSIGNMENT((#896));
#890=SURFACE_STYLE_USAGE(.BOTH.,#897);
#891=SURFACE_STYLE_USAGE(.BOTH.,#898);
#892=SURFACE_STYLE_USAGE(.BOTH.,#899);
#893=SURFACE_STYLE_USAGE(.BOTH.,#900);
#894=SURFACE_STYLE_USAGE(.BOTH.,#901);
#895=SURFACE_STYLE_USAGE(.BOTH.,#902);
#896=SURFACE_STYLE_USAGE(.BOTH.,#903);
#897=SURFACE_SIDE_STYLE('',(#904));
#898=SURFACE_SIDE_STYLE('',(#905));
#899=SURFACE_SIDE_STYLE('',(#906));
#900=SURFACE_SIDE_STYLE('',(#907));
#901=SURFACE_SIDE_STYLE('',(#908));
#902=SURFACE_SIDE_STYLE('',(#909));
#903=SURFACE_SIDE_STYLE('',(#910));
#904=SURFACE_STYLE_FILL_AREA(#911);
#905=SURFACE_STYLE_FILL_AREA(#912);
#906=SURFACE_STYLE_FILL_AREA(#913);
#907=SURFACE_STYLE_FILL_AREA(#914);
#908=SURFACE_STYLE_FILL_AREA(#915);
#909=SURFACE_STYLE_FILL_AREA(#916);
#910=SURFACE_STYLE_FILL_AREA(#917);
#911=FILL_AREA_STYLE('',(#918));
#912=FILL_AREA_STYLE('',(#919));
#913=FILL_AREA_STYLE('',(#920));
#914=FILL_AREA_STYLE('',(#921));
#915=FILL_AREA_STYLE('',(#922));
#916=FILL_AREA_STYLE('',(#923));
#917=FILL_AREA_STYLE('',(#924));
#918=FILL_AREA_STYLE_COLOUR('',#925);
#919=FILL_AREA_STYLE_COLOUR('',#804);
#920=FILL_AREA_STYLE_COLOUR('',#804);
#921=FILL_AREA_STYLE_COLOUR('',#804);
#922=FILL_AREA_STYLE_COLOUR('',#804);
#923=FILL_AREA_STYLE_COLOUR('',#804);
#924=FILL_AREA_STYLE_COLOUR('',#804);
#925=COLOUR_RGB('',0.980392156862745,0.713725490196078,0.00392156862745098);
#926=MANIFOLD_SOLID_BREP('Pogo',#881);
#927=SHAPE_DEFINITION_REPRESENTATION(#1625,#928);
#928=SHAPE_REPRESENTATION('Pogo',(#929),#1620);
#929=AXIS2_PLACEMENT_3D('',#1382,#1076,#1077);
#930=AXIS2_PLACEMENT_3D('',#1383,#1078,#1079);
#931=AXIS2_PLACEMENT_3D('',#1392,#1084,#1085);
#932=AXIS2_PLACEMENT_3D('',#1398,#1089,#1090);
#933=AXIS2_PLACEMENT_3D('',#1404,#1094,#1095);
#934=AXIS2_PLACEMENT_3D('',#1407,#1098,#1099);
#935=AXIS2_PLACEMENT_3D('',#1408,#1100,#1101);
#936=AXIS2_PLACEMENT_3D('',#1410,#1102,#1103);
#937=AXIS2_PLACEMENT_3D('',#1412,#1104,#1105);
#938=AXIS2_PLACEMENT_3D('',#1414,#1106,#1107);
#939=AXIS2_PLACEMENT_3D('',#1416,#1108,#1109);
#940=AXIS2_PLACEMENT_3D('',#1418,#1110,#1111);
#941=AXIS2_PLACEMENT_3D('',#1420,#1112,#1113);
#942=AXIS2_PLACEMENT_3D('',#1422,#1114,#1115);
#943=AXIS2_PLACEMENT_3D('',#1424,#1116,#1117);
#944=AXIS2_PLACEMENT_3D('',#1426,#1118,#1119);
#945=AXIS2_PLACEMENT_3D('',#1428,#1120,#1121);
#946=AXIS2_PLACEMENT_3D('',#1429,#1122,#1123);
#947=AXIS2_PLACEMENT_3D('',#1431,#1124,#1125);
#948=AXIS2_PLACEMENT_3D('',#1433,#1126,#1127);
#949=AXIS2_PLACEMENT_3D('',#1435,#1128,#1129);
#950=AXIS2_PLACEMENT_3D('',#1437,#1130,#1131);
#951=AXIS2_PLACEMENT_3D('',#1439,#1132,#1133);
#952=AXIS2_PLACEMENT_3D('',#1441,#1134,#1135);
#953=AXIS2_PLACEMENT_3D('',#1443,#1136,#1137);
#954=AXIS2_PLACEMENT_3D('',#1445,#1138,#1139);
#955=AXIS2_PLACEMENT_3D('',#1447,#1140,#1141);
#956=AXIS2_PLACEMENT_3D('',#1449,#1142,#1143);
#957=AXIS2_PLACEMENT_3D('',#1450,#1144,#1145);
#958=AXIS2_PLACEMENT_3D('',#1452,#1146,#1147);
#959=AXIS2_PLACEMENT_3D('',#1453,#1148,#1149);
#960=AXIS2_PLACEMENT_3D('',#1454,#1150,#1151);
#961=AXIS2_PLACEMENT_3D('',#1456,#1152,#1153);
#962=AXIS2_PLACEMENT_3D('',#1457,#1154,#1155);
#963=AXIS2_PLACEMENT_3D('',#1458,#1156,#1157);
#964=AXIS2_PLACEMENT_3D('',#1460,#1158,#1159);
#965=AXIS2_PLACEMENT_3D('',#1461,#1160,#1161);
#966=AXIS2_PLACEMENT_3D('',#1462,#1162,#1163);
#967=AXIS2_PLACEMENT_3D('',#1464,#1164,#1165);
#968=AXIS2_PLACEMENT_3D('',#1465,#1166,#1167);
#969=AXIS2_PLACEMENT_3D('',#1466,#1168,#1169);
#970=AXIS2_PLACEMENT_3D('',#1468,#1170,#1171);
#971=AXIS2_PLACEMENT_3D('',#1469,#1172,#1173);
#972=AXIS2_PLACEMENT_3D('',#1470,#1174,#1175);
#973=AXIS2_PLACEMENT_3D('',#1472,#1176,#1177);
#974=AXIS2_PLACEMENT_3D('',#1473,#1178,#1179);
#975=AXIS2_PLACEMENT_3D('',#1474,#1180,#1181);
#976=AXIS2_PLACEMENT_3D('',#1476,#1182,#1183);
#977=AXIS2_PLACEMENT_3D('',#1477,#1184,#1185);
#978=AXIS2_PLACEMENT_3D('',#1478,#1186,#1187);
#979=AXIS2_PLACEMENT_3D('',#1480,#1188,#1189);
#980=AXIS2_PLACEMENT_3D('',#1481,#1190,#1191);
#981=AXIS2_PLACEMENT_3D('',#1482,#1192,#1193);
#982=AXIS2_PLACEMENT_3D('',#1484,#1194,#1195);
#983=AXIS2_PLACEMENT_3D('',#1485,#1196,#1197);
#984=AXIS2_PLACEMENT_3D('',#1486,#1198,#1199);
#985=AXIS2_PLACEMENT_3D('',#1488,#1200,#1201);
#986=AXIS2_PLACEMENT_3D('',#1489,#1202,#1203);
#987=AXIS2_PLACEMENT_3D('',#1490,#1204,#1205);
#988=AXIS2_PLACEMENT_3D('',#1492,#1206,#1207);
#989=AXIS2_PLACEMENT_3D('',#1493,#1208,#1209);
#990=AXIS2_PLACEMENT_3D('',#1495,#1210,#1211);
#991=AXIS2_PLACEMENT_3D('',#1496,#1212,#1213);
#992=AXIS2_PLACEMENT_3D('',#1498,#1214,#1215);
#993=AXIS2_PLACEMENT_3D('',#1499,#1216,#1217);
#994=AXIS2_PLACEMENT_3D('',#1501,#1218,#1219);
#995=AXIS2_PLACEMENT_3D('',#1502,#1220,#1221);
#996=AXIS2_PLACEMENT_3D('',#1504,#1222,#1223);
#997=AXIS2_PLACEMENT_3D('',#1505,#1224,#1225);
#998=AXIS2_PLACEMENT_3D('',#1507,#1226,#1227);
#999=AXIS2_PLACEMENT_3D('',#1508,#1228,#1229);
#1000=AXIS2_PLACEMENT_3D('',#1510,#1230,#1231);
#1001=AXIS2_PLACEMENT_3D('',#1511,#1232,#1233);
#1002=AXIS2_PLACEMENT_3D('',#1513,#1234,#1235);
#1003=AXIS2_PLACEMENT_3D('',#1514,#1236,#1237);
#1004=AXIS2_PLACEMENT_3D('',#1516,#1238,#1239);
#1005=AXIS2_PLACEMENT_3D('',#1517,#1240,#1241);
#1006=AXIS2_PLACEMENT_3D('',#1519,#1242,#1243);
#1007=AXIS2_PLACEMENT_3D('',#1520,#1244,#1245);
#1008=AXIS2_PLACEMENT_3D('',#1522,#1246,#1247);
#1009=AXIS2_PLACEMENT_3D('',#1523,#1248,#1249);
#1010=AXIS2_PLACEMENT_3D('',#1525,#1250,#1251);
#1011=AXIS2_PLACEMENT_3D('',#1526,#1252,#1253);
#1012=AXIS2_PLACEMENT_3D('',#1528,#1254,#1255);
#1013=AXIS2_PLACEMENT_3D('',#1529,#1256,#1257);
#1014=AXIS2_PLACEMENT_3D('',#1531,#1258,#1259);
#1015=AXIS2_PLACEMENT_3D('',#1532,#1260,#1261);
#1016=AXIS2_PLACEMENT_3D('',#1534,#1262,#1263);
#1017=AXIS2_PLACEMENT_3D('',#1535,#1264,#1265);
#1018=AXIS2_PLACEMENT_3D('',#1537,#1266,#1267);
#1019=AXIS2_PLACEMENT_3D('',#1538,#1268,#1269);
#1020=AXIS2_PLACEMENT_3D('',#1540,#1270,#1271);
#1021=AXIS2_PLACEMENT_3D('',#1541,#1272,#1273);
#1022=AXIS2_PLACEMENT_3D('',#1543,#1274,#1275);
#1023=AXIS2_PLACEMENT_3D('',#1544,#1276,#1277);
#1024=AXIS2_PLACEMENT_3D('',#1546,#1278,#1279);
#1025=AXIS2_PLACEMENT_3D('',#1547,#1280,#1281);
#1026=AXIS2_PLACEMENT_3D('',#1549,#1282,#1283);
#1027=AXIS2_PLACEMENT_3D('',#1550,#1284,#1285);
#1028=AXIS2_PLACEMENT_3D('',#1552,#1286,#1287);
#1029=AXIS2_PLACEMENT_3D('',#1553,#1288,#1289);
#1030=AXIS2_PLACEMENT_3D('',#1555,#1290,#1291);
#1031=AXIS2_PLACEMENT_3D('',#1556,#1292,#1293);
#1032=AXIS2_PLACEMENT_3D('',#1558,#1294,#1295);
#1033=AXIS2_PLACEMENT_3D('',#1559,#1296,#1297);
#1034=AXIS2_PLACEMENT_3D('',#1561,#1298,#1299);
#1035=AXIS2_PLACEMENT_3D('',#1562,#1300,#1301);
#1036=AXIS2_PLACEMENT_3D('',#1564,#1302,#1303);
#1037=AXIS2_PLACEMENT_3D('',#1565,#1304,#1305);
#1038=AXIS2_PLACEMENT_3D('',#1567,#1306,#1307);
#1039=AXIS2_PLACEMENT_3D('',#1568,#1308,#1309);
#1040=AXIS2_PLACEMENT_3D('',#1570,#1310,#1311);
#1041=AXIS2_PLACEMENT_3D('',#1571,#1312,#1313);
#1042=AXIS2_PLACEMENT_3D('',#1573,#1314,#1315);
#1043=AXIS2_PLACEMENT_3D('',#1574,#1316,#1317);
#1044=AXIS2_PLACEMENT_3D('',#1576,#1318,#1319);
#1045=AXIS2_PLACEMENT_3D('',#1577,#1320,#1321);
#1046=AXIS2_PLACEMENT_3D('',#1579,#1322,#1323);
#1047=AXIS2_PLACEMENT_3D('',#1580,#1324,#1325);
#1048=AXIS2_PLACEMENT_3D('',#1582,#1326,#1327);
#1049=AXIS2_PLACEMENT_3D('',#1583,#1328,#1329);
#1050=AXIS2_PLACEMENT_3D('',#1585,#1330,#1331);
#1051=AXIS2_PLACEMENT_3D('',#1586,#1332,#1333);
#1052=AXIS2_PLACEMENT_3D('',#1588,#1334,#1335);
#1053=AXIS2_PLACEMENT_3D('',#1589,#1336,#1337);
#1054=AXIS2_PLACEMENT_3D('',#1591,#1338,#1339);
#1055=AXIS2_PLACEMENT_3D('',#1592,#1340,#1341);
#1056=AXIS2_PLACEMENT_3D('',#1594,#1342,#1343);
#1057=AXIS2_PLACEMENT_3D('',#1595,#1344,#1345);
#1058=AXIS2_PLACEMENT_3D('',#1597,#1346,#1347);
#1059=AXIS2_PLACEMENT_3D('',#1598,#1348,#1349);
#1060=AXIS2_PLACEMENT_3D('',#1600,#1350,#1351);
#1061=AXIS2_PLACEMENT_3D('',#1601,#1352,#1353);
#1062=AXIS2_PLACEMENT_3D('',#1603,#1354,#1355);
#1063=AXIS2_PLACEMENT_3D('',#1604,#1356,#1357);
#1064=AXIS2_PLACEMENT_3D('',#1606,#1358,#1359);
#1065=AXIS2_PLACEMENT_3D('',#1607,#1360,#1361);
#1066=AXIS2_PLACEMENT_3D('',#1609,#1362,#1363);
#1067=AXIS2_PLACEMENT_3D('',#1610,#1364,#1365);
#1068=AXIS2_PLACEMENT_3D('',#1611,#1366,#1367);
#1069=AXIS2_PLACEMENT_3D('',#1612,#1368,#1369);
#1070=AXIS2_PLACEMENT_3D('',#1613,#1370,#1371);
#1071=AXIS2_PLACEMENT_3D('',#1614,#1372,#1373);
#1072=AXIS2_PLACEMENT_3D('',#1615,#1374,#1375);
#1073=AXIS2_PLACEMENT_3D('',#1616,#1376,#1377);
#1074=AXIS2_PLACEMENT_3D('',#1617,#1378,#1379);
#1075=AXIS2_PLACEMENT_3D('',#1618,#1380,#1381);
#1076=DIRECTION('',(0.,0.,1.));
#1077=DIRECTION('',(1.,0.,0.));
#1078=DIRECTION('',(0.,0.,-1.));
#1079=DIRECTION('',(0.,1.,0.));
#1080=DIRECTION('',(1.,0.,0.));
#1081=DIRECTION('',(0.,-1.,0.));
#1082=DIRECTION('',(1.,0.,0.));
#1083=DIRECTION('',(0.,-1.,0.));
#1084=DIRECTION('',(1.,0.,0.));
#1085=DIRECTION('',(0.,-1.,0.));
#1086=DIRECTION('',(0.,0.,1.));
#1087=DIRECTION('',(0.,-1.,0.));
#1088=DIRECTION('',(0.,0.,1.));
#1089=DIRECTION('',(0.,0.,-1.));
#1090=DIRECTION('',(0.,1.,0.));
#1091=DIRECTION('',(1.,0.,0.));
#1092=DIRECTION('',(0.,-1.,0.));
#1093=DIRECTION('',(1.,0.,0.));
#1094=DIRECTION('',(1.,0.,0.));
#1095=DIRECTION('',(0.,-1.,0.));
#1096=DIRECTION('',(0.,0.,1.));
#1097=DIRECTION('',(0.,0.,1.));
#1098=DIRECTION('',(0.,1.,0.));
#1099=DIRECTION('',(1.,0.,0.));
#1100=DIRECTION('',(0.,1.,0.));
#1101=DIRECTION('',(1.,0.,0.));
#1102=DIRECTION('',(0.,1.,0.));
#1103=DIRECTION('',(1.,0.,0.));
#1104=DIRECTION('',(0.,1.,0.));
#1105=DIRECTION('',(1.,0.,0.));
#1106=DIRECTION('',(0.,1.,0.));
#1107=DIRECTION('',(1.,0.,0.));
#1108=DIRECTION('',(0.,1.,0.));
#1109=DIRECTION('',(1.,0.,0.));
#1110=DIRECTION('',(0.,1.,0.));
#1111=DIRECTION('',(1.,0.,0.));
#1112=DIRECTION('',(0.,1.,0.));
#1113=DIRECTION('',(1.,0.,0.));
#1114=DIRECTION('',(0.,1.,0.));
#1115=DIRECTION('',(1.,0.,0.));
#1116=DIRECTION('',(0.,1.,0.));
#1117=DIRECTION('',(1.,0.,0.));
#1118=DIRECTION('',(0.,1.,0.));
#1119=DIRECTION('',(1.,0.,0.));
#1120=DIRECTION('',(0.,1.,0.));
#1121=DIRECTION('',(1.,0.,0.));
#1122=DIRECTION('',(0.,1.,0.));
#1123=DIRECTION('',(1.,0.,0.));
#1124=DIRECTION('',(0.,1.,0.));
#1125=DIRECTION('',(1.,0.,0.));
#1126=DIRECTION('',(0.,1.,0.));
#1127=DIRECTION('',(1.,0.,0.));
#1128=DIRECTION('',(0.,1.,0.));
#1129=DIRECTION('',(1.,0.,0.));
#1130=DIRECTION('',(0.,1.,0.));
#1131=DIRECTION('',(1.,0.,0.));
#1132=DIRECTION('',(0.,1.,0.));
#1133=DIRECTION('',(1.,0.,0.));
#1134=DIRECTION('',(0.,1.,0.));
#1135=DIRECTION('',(1.,0.,0.));
#1136=DIRECTION('',(0.,1.,0.));
#1137=DIRECTION('',(1.,0.,0.));
#1138=DIRECTION('',(0.,1.,0.));
#1139=DIRECTION('',(1.,0.,0.));
#1140=DIRECTION('',(0.,1.,0.));
#1141=DIRECTION('',(1.,0.,0.));
#1142=DIRECTION('',(0.,1.,0.));
#1143=DIRECTION('',(1.,0.,0.));
#1144=DIRECTION('',(0.,1.,0.));
#1145=DIRECTION('',(1.,0.,0.));
#1146=DIRECTION('',(0.,-1.,0.));
#1147=DIRECTION('',(-1.,0.,0.));
#1148=DIRECTION('',(0.,1.,0.));
#1149=DIRECTION('',(1.,0.,0.));
#1150=DIRECTION('',(0.,1.,0.));
#1151=DIRECTION('',(1.,0.,0.));
#1152=DIRECTION('',(0.,-1.,0.));
#1153=DIRECTION('',(-1.,0.,0.));
#1154=DIRECTION('',(0.,1.,0.));
#1155=DIRECTION('',(1.,0.,0.));
#1156=DIRECTION('',(0.,1.,0.));
#1157=DIRECTION('',(1.,0.,0.));
#1158=DIRECTION('',(0.,-1.,0.));
#1159=DIRECTION('',(-1.,0.,0.));
#1160=DIRECTION('',(0.,1.,0.));
#1161=DIRECTION('',(1.,0.,0.));
#1162=DIRECTION('',(0.,1.,0.));
#1163=DIRECTION('',(1.,0.,0.));
#1164=DIRECTION('',(0.,-1.,0.));
#1165=DIRECTION('',(-1.,0.,0.));
#1166=DIRECTION('',(0.,1.,0.));
#1167=DIRECTION('',(1.,0.,0.));
#1168=DIRECTION('',(0.,1.,0.));
#1169=DIRECTION('',(1.,0.,0.));
#1170=DIRECTION('',(0.,-1.,0.));
#1171=DIRECTION('',(-1.,0.,0.));
#1172=DIRECTION('',(0.,1.,0.));
#1173=DIRECTION('',(1.,0.,0.));
#1174=DIRECTION('',(0.,1.,0.));
#1175=DIRECTION('',(1.,0.,0.));
#1176=DIRECTION('',(0.,-1.,0.));
#1177=DIRECTION('',(-1.,0.,0.));
#1178=DIRECTION('',(0.,1.,0.));
#1179=DIRECTION('',(1.,0.,0.));
#1180=DIRECTION('',(0.,1.,0.));
#1181=DIRECTION('',(1.,0.,0.));
#1182=DIRECTION('',(0.,-1.,0.));
#1183=DIRECTION('',(-1.,0.,0.));
#1184=DIRECTION('',(0.,1.,0.));
#1185=DIRECTION('',(1.,0.,0.));
#1186=DIRECTION('',(0.,1.,0.));
#1187=DIRECTION('',(1.,0.,0.));
#1188=DIRECTION('',(0.,-1.,0.));
#1189=DIRECTION('',(-1.,0.,0.));
#1190=DIRECTION('',(0.,1.,0.));
#1191=DIRECTION('',(1.,0.,0.));
#1192=DIRECTION('',(0.,1.,0.));
#1193=DIRECTION('',(1.,0.,0.));
#1194=DIRECTION('',(0.,-1.,0.));
#1195=DIRECTION('',(-1.,0.,0.));
#1196=DIRECTION('',(0.,1.,0.));
#1197=DIRECTION('',(1.,0.,0.));
#1198=DIRECTION('',(0.,1.,0.));
#1199=DIRECTION('',(1.,0.,0.));
#1200=DIRECTION('',(0.,-1.,0.));
#1201=DIRECTION('',(-1.,0.,0.));
#1202=DIRECTION('',(0.,-1.,0.));
#1203=DIRECTION('',(-1.,0.,0.));
#1204=DIRECTION('',(0.,1.,0.));
#1205=DIRECTION('',(1.,0.,0.));
#1206=DIRECTION('',(0.,-1.,0.));
#1207=DIRECTION('',(-1.,0.,0.));
#1208=DIRECTION('',(0.,1.,0.));
#1209=DIRECTION('',(1.,0.,0.));
#1210=DIRECTION('',(0.,-1.,0.));
#1211=DIRECTION('',(-1.,0.,0.));
#1212=DIRECTION('',(0.,1.,0.));
#1213=DIRECTION('',(1.,0.,0.));
#1214=DIRECTION('',(0.,-1.,0.));
#1215=DIRECTION('',(-1.,0.,0.));
#1216=DIRECTION('',(0.,1.,0.));
#1217=DIRECTION('',(1.,0.,0.));
#1218=DIRECTION('',(0.,-1.,0.));
#1219=DIRECTION('',(-1.,0.,0.));
#1220=DIRECTION('',(0.,1.,0.));
#1221=DIRECTION('',(1.,0.,0.));
#1222=DIRECTION('',(0.,-1.,0.));
#1223=DIRECTION('',(-1.,0.,0.));
#1224=DIRECTION('',(0.,1.,0.));
#1225=DIRECTION('',(1.,0.,0.));
#1226=DIRECTION('',(0.,-1.,0.));
#1227=DIRECTION('',(-1.,0.,0.));
#1228=DIRECTION('',(0.,1.,0.));
#1229=DIRECTION('',(1.,0.,0.));
#1230=DIRECTION('',(0.,-1.,0.));
#1231=DIRECTION('',(-1.,0.,0.));
#1232=DIRECTION('',(0.,1.,0.));
#1233=DIRECTION('',(1.,0.,0.));
#1234=DIRECTION('',(0.,-1.,0.));
#1235=DIRECTION('',(-1.,0.,0.));
#1236=DIRECTION('',(0.,1.,0.));
#1237=DIRECTION('',(1.,0.,0.));
#1238=DIRECTION('',(0.,-1.,0.));
#1239=DIRECTION('',(-1.,0.,0.));
#1240=DIRECTION('',(0.,1.,0.));
#1241=DIRECTION('',(1.,0.,0.));
#1242=DIRECTION('',(0.,1.,0.));
#1243=DIRECTION('',(1.,0.,0.));
#1244=DIRECTION('',(0.,1.,0.));
#1245=DIRECTION('',(1.,0.,0.));
#1246=DIRECTION('',(0.,1.,0.));
#1247=DIRECTION('',(1.,0.,0.));
#1248=DIRECTION('',(0.,1.,0.));
#1249=DIRECTION('',(1.,0.,0.));
#1250=DIRECTION('',(0.,1.,0.));
#1251=DIRECTION('',(1.,0.,0.));
#1252=DIRECTION('',(0.,1.,0.));
#1253=DIRECTION('',(1.,0.,0.));
#1254=DIRECTION('',(0.,1.,0.));
#1255=DIRECTION('',(1.,0.,0.));
#1256=DIRECTION('',(0.,1.,0.));
#1257=DIRECTION('',(1.,0.,0.));
#1258=DIRECTION('',(0.,1.,0.));
#1259=DIRECTION('',(1.,0.,0.));
#1260=DIRECTION('',(0.,1.,0.));
#1261=DIRECTION('',(1.,0.,0.));
#1262=DIRECTION('',(0.,1.,0.));
#1263=DIRECTION('',(1.,0.,0.));
#1264=DIRECTION('',(0.,1.,0.));
#1265=DIRECTION('',(1.,0.,0.));
#1266=DIRECTION('',(0.,1.,0.));
#1267=DIRECTION('',(1.,0.,0.));
#1268=DIRECTION('',(0.,1.,0.));
#1269=DIRECTION('',(1.,0.,0.));
#1270=DIRECTION('',(0.,1.,0.));
#1271=DIRECTION('',(1.,0.,0.));
#1272=DIRECTION('',(0.,1.,0.));
#1273=DIRECTION('',(1.,0.,0.));
#1274=DIRECTION('',(0.,1.,0.));
#1275=DIRECTION('',(1.,0.,0.));
#1276=DIRECTION('',(0.,1.,0.));
#1277=DIRECTION('',(1.,0.,0.));
#1278=DIRECTION('',(0.,1.,0.));
#1279=DIRECTION('',(1.,0.,0.));
#1280=DIRECTION('',(0.,1.,0.));
#1281=DIRECTION('',(1.,0.,0.));
#1282=DIRECTION('',(0.,-1.,0.));
#1283=DIRECTION('',(-1.,0.,0.));
#1284=DIRECTION('',(0.,1.,0.));
#1285=DIRECTION('',(1.,0.,0.));
#1286=DIRECTION('',(0.,1.,0.));
#1287=DIRECTION('',(1.,0.,0.));
#1288=DIRECTION('',(0.,1.,0.));
#1289=DIRECTION('',(1.,0.,0.));
#1290=DIRECTION('',(0.,-1.,0.));
#1291=DIRECTION('',(-1.,0.,0.));
#1292=DIRECTION('',(0.,1.,0.));
#1293=DIRECTION('',(1.,0.,0.));
#1294=DIRECTION('',(0.,1.,0.));
#1295=DIRECTION('',(1.,0.,0.));
#1296=DIRECTION('',(0.,1.,0.));
#1297=DIRECTION('',(1.,0.,0.));
#1298=DIRECTION('',(0.,-1.,0.));
#1299=DIRECTION('',(-1.,0.,0.));
#1300=DIRECTION('',(0.,1.,0.));
#1301=DIRECTION('',(1.,0.,0.));
#1302=DIRECTION('',(0.,1.,0.));
#1303=DIRECTION('',(1.,0.,0.));
#1304=DIRECTION('',(0.,1.,0.));
#1305=DIRECTION('',(1.,0.,0.));
#1306=DIRECTION('',(0.,-1.,0.));
#1307=DIRECTION('',(-1.,0.,0.));
#1308=DIRECTION('',(0.,1.,0.));
#1309=DIRECTION('',(1.,0.,0.));
#1310=DIRECTION('',(0.,1.,0.));
#1311=DIRECTION('',(1.,0.,0.));
#1312=DIRECTION('',(0.,1.,0.));
#1313=DIRECTION('',(1.,0.,0.));
#1314=DIRECTION('',(0.,-1.,0.));
#1315=DIRECTION('',(-1.,0.,0.));
#1316=DIRECTION('',(0.,1.,0.));
#1317=DIRECTION('',(1.,0.,0.));
#1318=DIRECTION('',(0.,1.,0.));
#1319=DIRECTION('',(1.,0.,0.));
#1320=DIRECTION('',(0.,1.,0.));
#1321=DIRECTION('',(1.,0.,0.));
#1322=DIRECTION('',(0.,-1.,0.));
#1323=DIRECTION('',(-1.,0.,0.));
#1324=DIRECTION('',(0.,1.,0.));
#1325=DIRECTION('',(1.,0.,0.));
#1326=DIRECTION('',(0.,1.,0.));
#1327=DIRECTION('',(1.,0.,0.));
#1328=DIRECTION('',(0.,1.,0.));
#1329=DIRECTION('',(1.,0.,0.));
#1330=DIRECTION('',(0.,-1.,0.));
#1331=DIRECTION('',(-1.,0.,0.));
#1332=DIRECTION('',(0.,1.,0.));
#1333=DIRECTION('',(1.,0.,0.));
#1334=DIRECTION('',(0.,1.,0.));
#1335=DIRECTION('',(1.,0.,0.));
#1336=DIRECTION('',(0.,1.,0.));
#1337=DIRECTION('',(1.,0.,0.));
#1338=DIRECTION('',(0.,-1.,0.));
#1339=DIRECTION('',(-1.,0.,0.));
#1340=DIRECTION('',(0.,1.,0.));
#1341=DIRECTION('',(1.,0.,0.));
#1342=DIRECTION('',(0.,1.,0.));
#1343=DIRECTION('',(1.,0.,0.));
#1344=DIRECTION('',(0.,1.,0.));
#1345=DIRECTION('',(1.,0.,0.));
#1346=DIRECTION('',(0.,-1.,0.));
#1347=DIRECTION('',(-1.,0.,0.));
#1348=DIRECTION('',(0.,1.,0.));
#1349=DIRECTION('',(1.,0.,0.));
#1350=DIRECTION('',(0.,1.,0.));
#1351=DIRECTION('',(1.,0.,0.));
#1352=DIRECTION('',(0.,1.,0.));
#1353=DIRECTION('',(1.,0.,0.));
#1354=DIRECTION('',(0.,-1.,0.));
#1355=DIRECTION('',(-1.,0.,0.));
#1356=DIRECTION('',(0.,1.,0.));
#1357=DIRECTION('',(1.,0.,0.));
#1358=DIRECTION('',(0.,1.,0.));
#1359=DIRECTION('',(1.,0.,0.));
#1360=DIRECTION('',(0.,1.,0.));
#1361=DIRECTION('',(1.,0.,0.));
#1362=DIRECTION('',(0.,1.,0.));
#1363=DIRECTION('',(1.,0.,0.));
#1364=DIRECTION('',(0.,1.,0.));
#1365=DIRECTION('',(1.,0.,0.));
#1366=DIRECTION('',(0.,1.,0.));
#1367=DIRECTION('',(1.,0.,0.));
#1368=DIRECTION('',(0.,1.,0.));
#1369=DIRECTION('',(1.,0.,0.));
#1370=DIRECTION('',(0.,1.,0.));
#1371=DIRECTION('',(1.,0.,0.));
#1372=DIRECTION('',(0.,1.,0.));
#1373=DIRECTION('',(1.,0.,0.));
#1374=DIRECTION('',(0.,1.,0.));
#1375=DIRECTION('',(1.,0.,0.));
#1376=DIRECTION('',(0.,1.,0.));
#1377=DIRECTION('',(1.,0.,0.));
#1378=DIRECTION('',(0.,1.,0.));
#1379=DIRECTION('',(1.,0.,0.));
#1380=DIRECTION('',(0.,1.,0.));
#1381=DIRECTION('',(1.,0.,0.));
#1382=CARTESIAN_POINT('',(0.,0.,0.));
#1383=CARTESIAN_POINT('',(0.1455,-0.0049,0.03205));
#1384=CARTESIAN_POINT('',(0.1455,-0.0074,0.03205));
#1385=CARTESIAN_POINT('',(0.14296,-0.0074,0.03205));
#1386=CARTESIAN_POINT('',(0.14804,-0.0074,0.03205));
#1387=CARTESIAN_POINT('',(0.14296,-0.0049,0.03205));
#1388=CARTESIAN_POINT('',(0.14296,-0.0049,0.03205));
#1389=CARTESIAN_POINT('',(0.1455,-0.0049,0.03205));
#1390=CARTESIAN_POINT('',(0.14804,-0.0049,0.03205));
#1391=CARTESIAN_POINT('',(0.14804,-0.0049,0.03205));
#1392=CARTESIAN_POINT('',(0.14296,-0.0049,0.0384));
#1393=CARTESIAN_POINT('',(0.14296,-0.0074,0.0384));
#1394=CARTESIAN_POINT('',(0.14296,-0.0074,0.04475));
#1395=CARTESIAN_POINT('',(0.14296,-0.0049,0.04475));
#1396=CARTESIAN_POINT('',(0.14296,-0.0049,0.04475));
#1397=CARTESIAN_POINT('',(0.14296,-0.0049,0.0384));
#1398=CARTESIAN_POINT('',(0.1455,-0.0049,0.04475));
#1399=CARTESIAN_POINT('',(0.1455,-0.0074,0.04475));
#1400=CARTESIAN_POINT('',(0.14804,-0.0074,0.04475));
#1401=CARTESIAN_POINT('',(0.14804,-0.0049,0.04475));
#1402=CARTESIAN_POINT('',(0.14804,-0.0049,0.04475));
#1403=CARTESIAN_POINT('',(0.1455,-0.0049,0.04475));
#1404=CARTESIAN_POINT('',(0.14804,-0.0049,0.0384));
#1405=CARTESIAN_POINT('',(0.14804,-0.0074,0.0384));
#1406=CARTESIAN_POINT('',(0.14804,-0.0049,0.0384));
#1407=CARTESIAN_POINT('',(0.142,-0.0049,0.0384));
#1408=CARTESIAN_POINT('',(0.14677,-0.0049,0.04348));
#1409=CARTESIAN_POINT('',(0.14752,-0.0049,0.04348));
#1410=CARTESIAN_POINT('',(0.14423,-0.0049,0.04348));
#1411=CARTESIAN_POINT('',(0.14498,-0.0049,0.04348));
#1412=CARTESIAN_POINT('',(0.14677,-0.0049,0.04094));
#1413=CARTESIAN_POINT('',(0.14752,-0.0049,0.04094));
#1414=CARTESIAN_POINT('',(0.14423,-0.0049,0.04094));
#1415=CARTESIAN_POINT('',(0.14498,-0.0049,0.04094));
#1416=CARTESIAN_POINT('',(0.14677,-0.0049,0.0384));
#1417=CARTESIAN_POINT('',(0.14752,-0.0049,0.0384));
#1418=CARTESIAN_POINT('',(0.14423,-0.0049,0.0384));
#1419=CARTESIAN_POINT('',(0.14498,-0.0049,0.0384));
#1420=CARTESIAN_POINT('',(0.14677,-0.0049,0.03586));
#1421=CARTESIAN_POINT('',(0.14752,-0.0049,0.03586));
#1422=CARTESIAN_POINT('',(0.14423,-0.0049,0.03586));
#1423=CARTESIAN_POINT('',(0.14498,-0.0049,0.03586));
#1424=CARTESIAN_POINT('',(0.14677,-0.0049,0.03332));
#1425=CARTESIAN_POINT('',(0.14752,-0.0049,0.03332));
#1426=CARTESIAN_POINT('',(0.14423,-0.0049,0.03332));
#1427=CARTESIAN_POINT('',(0.14498,-0.0049,0.03332));
#1428=CARTESIAN_POINT('',(0.142,-0.0074,0.0384));
#1429=CARTESIAN_POINT('',(0.14677,-0.0074,0.04348));
#1430=CARTESIAN_POINT('',(0.14752,-0.0074,0.04348));
#1431=CARTESIAN_POINT('',(0.14423,-0.0074,0.04348));
#1432=CARTESIAN_POINT('',(0.14498,-0.0074,0.04348));
#1433=CARTESIAN_POINT('',(0.14677,-0.0074,0.04094));
#1434=CARTESIAN_POINT('',(0.14752,-0.0074,0.04094));
#1435=CARTESIAN_POINT('',(0.14423,-0.0074,0.04094));
#1436=CARTESIAN_POINT('',(0.14498,-0.0074,0.04094));
#1437=CARTESIAN_POINT('',(0.14677,-0.0074,0.0384));
#1438=CARTESIAN_POINT('',(0.14752,-0.0074,0.0384));
#1439=CARTESIAN_POINT('',(0.14423,-0.0074,0.0384));
#1440=CARTESIAN_POINT('',(0.14498,-0.0074,0.0384));
#1441=CARTESIAN_POINT('',(0.14677,-0.0074,0.03586));
#1442=CARTESIAN_POINT('',(0.14752,-0.0074,0.03586));
#1443=CARTESIAN_POINT('',(0.14423,-0.0074,0.03586));
#1444=CARTESIAN_POINT('',(0.14498,-0.0074,0.03586));
#1445=CARTESIAN_POINT('',(0.14677,-0.0074,0.03332));
#1446=CARTESIAN_POINT('',(0.14752,-0.0074,0.03332));
#1447=CARTESIAN_POINT('',(0.14423,-0.0074,0.03332));
#1448=CARTESIAN_POINT('',(0.14498,-0.0074,0.03332));
#1449=CARTESIAN_POINT('',(0.142,-0.0079,0.0384));
#1450=CARTESIAN_POINT('',(0.14423,-0.0079,0.03332));
#1451=CARTESIAN_POINT('',(0.14498,-0.0079,0.03332));
#1452=CARTESIAN_POINT('',(0.14423,-0.0029,0.03332));
#1453=CARTESIAN_POINT('',(0.142,-0.0079,0.0384));
#1454=CARTESIAN_POINT('',(0.14677,-0.0079,0.04348));
#1455=CARTESIAN_POINT('',(0.14752,-0.0079,0.04348));
#1456=CARTESIAN_POINT('',(0.14677,-0.0029,0.04348));
#1457=CARTESIAN_POINT('',(0.142,-0.0079,0.0384));
#1458=CARTESIAN_POINT('',(0.14677,-0.0079,0.03332));
#1459=CARTESIAN_POINT('',(0.14752,-0.0079,0.03332));
#1460=CARTESIAN_POINT('',(0.14677,-0.0029,0.03332));
#1461=CARTESIAN_POINT('',(0.142,-0.0079,0.0384));
#1462=CARTESIAN_POINT('',(0.14677,-0.0079,0.03586));
#1463=CARTESIAN_POINT('',(0.14752,-0.0079,0.03586));
#1464=CARTESIAN_POINT('',(0.14677,-0.0029,0.03586));
#1465=CARTESIAN_POINT('',(0.142,-0.0079,0.0384));
#1466=CARTESIAN_POINT('',(0.14423,-0.0079,0.03586));
#1467=CARTESIAN_POINT('',(0.14498,-0.0079,0.03586));
#1468=CARTESIAN_POINT('',(0.14423,-0.0029,0.03586));
#1469=CARTESIAN_POINT('',(0.142,-0.0079,0.0384));
#1470=CARTESIAN_POINT('',(0.14423,-0.0079,0.0384));
#1471=CARTESIAN_POINT('',(0.14498,-0.0079,0.0384));
#1472=CARTESIAN_POINT('',(0.14423,-0.0029,0.0384));
#1473=CARTESIAN_POINT('',(0.142,-0.0079,0.0384));
#1474=CARTESIAN_POINT('',(0.14423,-0.0079,0.04348));
#1475=CARTESIAN_POINT('',(0.14498,-0.0079,0.04348));
#1476=CARTESIAN_POINT('',(0.14423,-0.0029,0.04348));
#1477=CARTESIAN_POINT('',(0.142,-0.0079,0.0384));
#1478=CARTESIAN_POINT('',(0.14677,-0.0079,0.04094));
#1479=CARTESIAN_POINT('',(0.14752,-0.0079,0.04094));
#1480=CARTESIAN_POINT('',(0.14677,-0.0029,0.04094));
#1481=CARTESIAN_POINT('',(0.142,-0.0079,0.0384));
#1482=CARTESIAN_POINT('',(0.14423,-0.0079,0.04094));
#1483=CARTESIAN_POINT('',(0.14498,-0.0079,0.04094));
#1484=CARTESIAN_POINT('',(0.14423,-0.0029,0.04094));
#1485=CARTESIAN_POINT('',(0.142,-0.0079,0.0384));
#1486=CARTESIAN_POINT('',(0.14677,-0.0079,0.0384));
#1487=CARTESIAN_POINT('',(0.14752,-0.0079,0.0384));
#1488=CARTESIAN_POINT('',(0.14677,-0.0029,0.0384));
#1489=CARTESIAN_POINT('',(0.14423,-0.0029,0.03332));
#1490=CARTESIAN_POINT('',(0.14423,-0.0031,0.03332));
#1491=CARTESIAN_POINT('',(0.14498,-0.0031,0.03332));
#1492=CARTESIAN_POINT('',(0.14677,-0.0029,0.04348));
#1493=CARTESIAN_POINT('',(0.14677,-0.0031,0.04348));
#1494=CARTESIAN_POINT('',(0.14752,-0.0031,0.04348));
#1495=CARTESIAN_POINT('',(0.14677,-0.0029,0.03332));
#1496=CARTESIAN_POINT('',(0.14677,-0.0031,0.03332));
#1497=CARTESIAN_POINT('',(0.14752,-0.0031,0.03332));
#1498=CARTESIAN_POINT('',(0.14677,-0.0029,0.03586));
#1499=CARTESIAN_POINT('',(0.14677,-0.0031,0.03586));
#1500=CARTESIAN_POINT('',(0.14752,-0.0031,0.03586));
#1501=CARTESIAN_POINT('',(0.14423,-0.0029,0.03586));
#1502=CARTESIAN_POINT('',(0.14423,-0.0031,0.03586));
#1503=CARTESIAN_POINT('',(0.14498,-0.0031,0.03586));
#1504=CARTESIAN_POINT('',(0.14423,-0.0029,0.0384));
#1505=CARTESIAN_POINT('',(0.14423,-0.0031,0.0384));
#1506=CARTESIAN_POINT('',(0.14498,-0.0031,0.0384));
#1507=CARTESIAN_POINT('',(0.14423,-0.0029,0.04348));
#1508=CARTESIAN_POINT('',(0.14423,-0.0031,0.04348));
#1509=CARTESIAN_POINT('',(0.14498,-0.0031,0.04348));
#1510=CARTESIAN_POINT('',(0.14677,-0.0029,0.04094));
#1511=CARTESIAN_POINT('',(0.14677,-0.0031,0.04094));
#1512=CARTESIAN_POINT('',(0.14752,-0.0031,0.04094));
#1513=CARTESIAN_POINT('',(0.14423,-0.0029,0.04094));
#1514=CARTESIAN_POINT('',(0.14423,-0.0031,0.04094));
#1515=CARTESIAN_POINT('',(0.14498,-0.0031,0.04094));
#1516=CARTESIAN_POINT('',(0.14677,-0.0029,0.0384));
#1517=CARTESIAN_POINT('',(0.14677,-0.0031,0.0384));
#1518=CARTESIAN_POINT('',(0.14752,-0.0031,0.0384));
#1519=CARTESIAN_POINT('',(0.14677,-0.0031,0.04348));
#1520=CARTESIAN_POINT('',(0.14677,-0.0029,0.04348));
#1521=CARTESIAN_POINT('',(0.14732,-0.0029,0.04348));
#1522=CARTESIAN_POINT('',(0.14423,-0.0031,0.04348));
#1523=CARTESIAN_POINT('',(0.14423,-0.0029,0.04348));
#1524=CARTESIAN_POINT('',(0.14478,-0.0029,0.04348));
#1525=CARTESIAN_POINT('',(0.14423,-0.0031,0.04094));
#1526=CARTESIAN_POINT('',(0.14423,-0.0029,0.04094));
#1527=CARTESIAN_POINT('',(0.14478,-0.0029,0.04094));
#1528=CARTESIAN_POINT('',(0.14677,-0.0031,0.04094));
#1529=CARTESIAN_POINT('',(0.14677,-0.0029,0.04094));
#1530=CARTESIAN_POINT('',(0.14732,-0.0029,0.04094));
#1531=CARTESIAN_POINT('',(0.14677,-0.0031,0.0384));
#1532=CARTESIAN_POINT('',(0.14677,-0.0029,0.0384));
#1533=CARTESIAN_POINT('',(0.14732,-0.0029,0.0384));
#1534=CARTESIAN_POINT('',(0.14423,-0.0031,0.0384));
#1535=CARTESIAN_POINT('',(0.14423,-0.0029,0.0384));
#1536=CARTESIAN_POINT('',(0.14478,-0.0029,0.0384));
#1537=CARTESIAN_POINT('',(0.14423,-0.0031,0.03586));
#1538=CARTESIAN_POINT('',(0.14423,-0.0029,0.03586));
#1539=CARTESIAN_POINT('',(0.14478,-0.0029,0.03586));
#1540=CARTESIAN_POINT('',(0.14677,-0.0031,0.03586));
#1541=CARTESIAN_POINT('',(0.14677,-0.0029,0.03586));
#1542=CARTESIAN_POINT('',(0.14732,-0.0029,0.03586));
#1543=CARTESIAN_POINT('',(0.14677,-0.0031,0.03332));
#1544=CARTESIAN_POINT('',(0.14677,-0.0029,0.03332));
#1545=CARTESIAN_POINT('',(0.14732,-0.0029,0.03332));
#1546=CARTESIAN_POINT('',(0.14423,-0.0031,0.03332));
#1547=CARTESIAN_POINT('',(0.14423,-0.0029,0.03332));
#1548=CARTESIAN_POINT('',(0.14478,-0.0029,0.03332));
#1549=CARTESIAN_POINT('',(0.14423,-0.001598,0.03332));
#1550=CARTESIAN_POINT('',(0.14423,-0.0021,0.03332));
#1551=CARTESIAN_POINT('',(0.14478,-0.0021,0.03332));
#1552=CARTESIAN_POINT('',(0.07525,-0.0016,0.0384));
#1553=CARTESIAN_POINT('',(0.14423,-0.0016,0.03332));
#1554=CARTESIAN_POINT('',(0.14428,-0.0016,0.03332));
#1555=CARTESIAN_POINT('',(0.14677,-0.001598,0.03332));
#1556=CARTESIAN_POINT('',(0.14677,-0.0021,0.03332));
#1557=CARTESIAN_POINT('',(0.14732,-0.0021,0.03332));
#1558=CARTESIAN_POINT('',(0.07525,-0.0016,0.0384));
#1559=CARTESIAN_POINT('',(0.14677,-0.0016,0.03332));
#1560=CARTESIAN_POINT('',(0.14682,-0.0016,0.03332));
#1561=CARTESIAN_POINT('',(0.14677,-0.001598,0.03586));
#1562=CARTESIAN_POINT('',(0.14677,-0.0021,0.03586));
#1563=CARTESIAN_POINT('',(0.14732,-0.0021,0.03586));
#1564=CARTESIAN_POINT('',(0.07525,-0.0016,0.0384));
#1565=CARTESIAN_POINT('',(0.14677,-0.0016,0.03586));
#1566=CARTESIAN_POINT('',(0.14682,-0.0016,0.03586));
#1567=CARTESIAN_POINT('',(0.14423,-0.001598,0.03586));
#1568=CARTESIAN_POINT('',(0.14423,-0.0021,0.03586));
#1569=CARTESIAN_POINT('',(0.14478,-0.0021,0.03586));
#1570=CARTESIAN_POINT('',(0.07525,-0.0016,0.0384));
#1571=CARTESIAN_POINT('',(0.14423,-0.0016,0.03586));
#1572=CARTESIAN_POINT('',(0.14428,-0.0016,0.03586));
#1573=CARTESIAN_POINT('',(0.14423,-0.001598,0.0384));
#1574=CARTESIAN_POINT('',(0.14423,-0.0021,0.0384));
#1575=CARTESIAN_POINT('',(0.14478,-0.0021,0.0384));
#1576=CARTESIAN_POINT('',(0.07525,-0.0016,0.0384));
#1577=CARTESIAN_POINT('',(0.14423,-0.0016,0.0384));
#1578=CARTESIAN_POINT('',(0.14428,-0.0016,0.0384));
#1579=CARTESIAN_POINT('',(0.14677,-0.001598,0.0384));
#1580=CARTESIAN_POINT('',(0.14677,-0.0021,0.0384));
#1581=CARTESIAN_POINT('',(0.14732,-0.0021,0.0384));
#1582=CARTESIAN_POINT('',(0.07525,-0.0016,0.0384));
#1583=CARTESIAN_POINT('',(0.14677,-0.0016,0.0384));
#1584=CARTESIAN_POINT('',(0.14682,-0.0016,0.0384));
#1585=CARTESIAN_POINT('',(0.14677,-0.001598,0.04094));
#1586=CARTESIAN_POINT('',(0.14677,-0.0021,0.04094));
#1587=CARTESIAN_POINT('',(0.14732,-0.0021,0.04094));
#1588=CARTESIAN_POINT('',(0.07525,-0.0016,0.0384));
#1589=CARTESIAN_POINT('',(0.14677,-0.0016,0.04094));
#1590=CARTESIAN_POINT('',(0.14682,-0.0016,0.04094));
#1591=CARTESIAN_POINT('',(0.14423,-0.001598,0.04094));
#1592=CARTESIAN_POINT('',(0.14423,-0.0021,0.04094));
#1593=CARTESIAN_POINT('',(0.14478,-0.0021,0.04094));
#1594=CARTESIAN_POINT('',(0.07525,-0.0016,0.0384));
#1595=CARTESIAN_POINT('',(0.14423,-0.0016,0.04094));
#1596=CARTESIAN_POINT('',(0.14428,-0.0016,0.04094));
#1597=CARTESIAN_POINT('',(0.14423,-0.001598,0.04348));
#1598=CARTESIAN_POINT('',(0.14423,-0.0021,0.04348));
#1599=CARTESIAN_POINT('',(0.14478,-0.0021,0.04348));
#1600=CARTESIAN_POINT('',(0.07525,-0.0016,0.0384));
#1601=CARTESIAN_POINT('',(0.14423,-0.0016,0.04348));
#1602=CARTESIAN_POINT('',(0.14428,-0.0016,0.04348));
#1603=CARTESIAN_POINT('',(0.14677,-0.001598,0.04348));
#1604=CARTESIAN_POINT('',(0.14677,-0.0021,0.04348));
#1605=CARTESIAN_POINT('',(0.14732,-0.0021,0.04348));
#1606=CARTESIAN_POINT('',(0.07525,-0.0016,0.0384));
#1607=CARTESIAN_POINT('',(0.14677,-0.0016,0.04348));
#1608=CARTESIAN_POINT('',(0.14682,-0.0016,0.04348));
#1609=CARTESIAN_POINT('',(0.14677,-0.0021,0.04348));
#1610=CARTESIAN_POINT('',(0.14423,-0.0021,0.04348));
#1611=CARTESIAN_POINT('',(0.14677,-0.0021,0.04094));
#1612=CARTESIAN_POINT('',(0.14423,-0.0021,0.04094));
#1613=CARTESIAN_POINT('',(0.14677,-0.0021,0.0384));
#1614=CARTESIAN_POINT('',(0.14423,-0.0021,0.0384));
#1615=CARTESIAN_POINT('',(0.14423,-0.0021,0.03586));
#1616=CARTESIAN_POINT('',(0.14677,-0.0021,0.03586));
#1617=CARTESIAN_POINT('',(0.14677,-0.0021,0.03332));
#1618=CARTESIAN_POINT('',(0.14423,-0.0021,0.03332));
#1619=MECHANICAL_DESIGN_GEOMETRIC_PRESENTATION_REPRESENTATION('',(#882,
#798,#799,#800,#801,#802,#803),#1620);
#1620=(
GEOMETRIC_REPRESENTATION_CONTEXT(3)
GLOBAL_UNCERTAINTY_ASSIGNED_CONTEXT((#1621))
GLOBAL_UNIT_ASSIGNED_CONTEXT((#1624,#1623,#1622))
REPRESENTATION_CONTEXT('Pogo','TOP_LEVEL_ASSEMBLY_PART')
);
#1621=UNCERTAINTY_MEASURE_WITH_UNIT(LENGTH_MEASURE(1.E-8),#1624,
'DISTANCE_ACCURACY_VALUE','Maximum Tolerance applied to model');
#1622=(
NAMED_UNIT(*)
SI_UNIT($,.STERADIAN.)
SOLID_ANGLE_UNIT()
);
#1623=(
NAMED_UNIT(*)
PLANE_ANGLE_UNIT()
SI_UNIT($,.RADIAN.)
);
#1624=(
LENGTH_UNIT()
NAMED_UNIT(*)
SI_UNIT($,.METRE.)
);
#1625=PRODUCT_DEFINITION_SHAPE('','',#1626);
#1626=PRODUCT_DEFINITION('','',#1628,#1627);
#1627=PRODUCT_DEFINITION_CONTEXT('',#1634,'design');
#1628=PRODUCT_DEFINITION_FORMATION_WITH_SPECIFIED_SOURCE('','',#1630,
 .NOT_KNOWN.);
#1629=PRODUCT_RELATED_PRODUCT_CATEGORY('','',(#1630));
#1630=PRODUCT('Pogo','Pogo','Pogo',(#1632));
#1631=PRODUCT_CATEGORY('','');
#1632=PRODUCT_CONTEXT('',#1634,'mechanical');
#1633=APPLICATION_PROTOCOL_DEFINITION('international standard',
'ap242_managed_model_based_3d_engineering',2020,#1634);
#1634=APPLICATION_CONTEXT('managed model based 3d engineering');
ENDSEC;
END-ISO-10303-21;
