ISO-10303-21;
HEADER;
/* Generated by software containing ST-Developer
 * from STEP Tools, Inc. (www.steptools.com) 
 */
/* OPTION: using custom renumber hook */

FILE_DESCRIPTION(
/* description */ ('STEP AP242 Edition 2',
'CAx-IF Rec.Pracs.---Representation and Presentation of Product Manufa
cturing Information (PMI)---4.0---2014-10-13',
'CAx-IF Rec.Pracs.---3D Tessellated Geometry---0.4---2014-09-14','2;1',
'CAx-IF Rec.Pracs.---User Defined Attributes---1.5---2016-08-15'),
/* implementation_level */ '2;1');

FILE_NAME(
/* name */ 'Keyboard parts - Part 9',
/* time_stamp */ '2026-06-03T19:29:09Z',
/* author */ (''),
/* organization */ (''),
/* preprocessor_version */ 'ST-DEVELOPER v20',
/* originating_system */ 'ONSHAPE BY PTC INC, 1.215',
/* authorisation */ '  ');

FILE_SCHEMA (('AP242_MANAGED_MODEL_BASED_3D_ENGINEERING_MIM_LF { 1 0 10303 442 3 1 4 }'));
ENDSEC;

DATA;
#10=SHAPE_REPRESENTATION_RELATIONSHIP('','',#774,#11);
#11=ADVANCED_BREP_SHAPE_REPRESENTATION('',(#772),#1340);
#12=DEGENERATE_TOROIDAL_SURFACE('',#886,4.99999999999949E-5,0.0005,.T.);
#13=DEGENERATE_TOROIDAL_SURFACE('',#887,4.99999999999949E-5,0.0005,.T.);
#14=DEGENERATE_TOROIDAL_SURFACE('',#888,4.99999999999949E-5,0.0005,.T.);
#15=DEGENERATE_TOROIDAL_SURFACE('',#889,4.99999999999949E-5,0.0005,.T.);
#16=DEGENERATE_TOROIDAL_SURFACE('',#890,4.99999999999949E-5,0.0005,.T.);
#17=DEGENERATE_TOROIDAL_SURFACE('',#891,4.99999999999949E-5,0.0005,.T.);
#18=DEGENERATE_TOROIDAL_SURFACE('',#892,4.99999999999949E-5,0.0005,.T.);
#19=DEGENERATE_TOROIDAL_SURFACE('',#893,5.00000000000007E-5,0.0005,.T.);
#20=TOROIDAL_SURFACE('',#838,0.00055,0.0002);
#21=TOROIDAL_SURFACE('',#840,0.00055,0.0002);
#22=TOROIDAL_SURFACE('',#842,0.00055,0.0002);
#23=TOROIDAL_SURFACE('',#844,0.00055,0.0002);
#24=TOROIDAL_SURFACE('',#846,0.00055,0.0002);
#25=TOROIDAL_SURFACE('',#848,0.00055,0.0002);
#26=TOROIDAL_SURFACE('',#850,0.00055,0.0002);
#27=TOROIDAL_SURFACE('',#852,0.00055,0.0002);
#28=CYLINDRICAL_SURFACE('',#800,0.00075);
#29=CYLINDRICAL_SURFACE('',#803,0.00075);
#30=CYLINDRICAL_SURFACE('',#806,0.00075);
#31=CYLINDRICAL_SURFACE('',#809,0.00075);
#32=CYLINDRICAL_SURFACE('',#812,0.00075);
#33=CYLINDRICAL_SURFACE('',#815,0.00075);
#34=CYLINDRICAL_SURFACE('',#818,0.00075);
#35=CYLINDRICAL_SURFACE('',#821,0.00075);
#36=CYLINDRICAL_SURFACE('',#822,0.00075);
#37=CYLINDRICAL_SURFACE('',#824,0.00075);
#38=CYLINDRICAL_SURFACE('',#826,0.00075);
#39=CYLINDRICAL_SURFACE('',#828,0.00075);
#40=CYLINDRICAL_SURFACE('',#830,0.00075);
#41=CYLINDRICAL_SURFACE('',#832,0.00075);
#42=CYLINDRICAL_SURFACE('',#834,0.00075);
#43=CYLINDRICAL_SURFACE('',#836,0.00075);
#44=CYLINDRICAL_SURFACE('',#854,0.00055);
#45=CYLINDRICAL_SURFACE('',#858,0.00055);
#46=CYLINDRICAL_SURFACE('',#862,0.00055);
#47=CYLINDRICAL_SURFACE('',#866,0.00055);
#48=CYLINDRICAL_SURFACE('',#870,0.00055);
#49=CYLINDRICAL_SURFACE('',#874,0.00055);
#50=CYLINDRICAL_SURFACE('',#878,0.00055);
#51=CYLINDRICAL_SURFACE('',#882,0.00055);
#52=CIRCLE('',#781,0.00075);
#53=CIRCLE('',#782,0.00075);
#54=CIRCLE('',#783,0.00075);
#55=CIRCLE('',#784,0.00075);
#56=CIRCLE('',#785,0.00075);
#57=CIRCLE('',#786,0.00075);
#58=CIRCLE('',#787,0.00075);
#59=CIRCLE('',#788,0.00075);
#60=CIRCLE('',#790,0.00075);
#61=CIRCLE('',#791,0.00075);
#62=CIRCLE('',#792,0.00075);
#63=CIRCLE('',#793,0.00075);
#64=CIRCLE('',#794,0.00075);
#65=CIRCLE('',#795,0.00075);
#66=CIRCLE('',#796,0.00075);
#67=CIRCLE('',#797,0.00075);
#68=CIRCLE('',#799,0.00075);
#69=CIRCLE('',#802,0.00075);
#70=CIRCLE('',#805,0.00075);
#71=CIRCLE('',#808,0.00075);
#72=CIRCLE('',#811,0.00075);
#73=CIRCLE('',#814,0.00075);
#74=CIRCLE('',#817,0.00075);
#75=CIRCLE('',#820,0.00075);
#76=CIRCLE('',#823,0.00075);
#77=CIRCLE('',#825,0.00075);
#78=CIRCLE('',#827,0.00075);
#79=CIRCLE('',#829,0.00075);
#80=CIRCLE('',#831,0.00075);
#81=CIRCLE('',#833,0.00075);
#82=CIRCLE('',#835,0.00075);
#83=CIRCLE('',#837,0.00075);
#84=CIRCLE('',#839,0.00055);
#85=CIRCLE('',#841,0.00055);
#86=CIRCLE('',#843,0.00055);
#87=CIRCLE('',#845,0.00055);
#88=CIRCLE('',#847,0.00055);
#89=CIRCLE('',#849,0.00055);
#90=CIRCLE('',#851,0.00055);
#91=CIRCLE('',#853,0.00055);
#92=CIRCLE('',#855,0.00055);
#93=CIRCLE('',#857,5.00000000000007E-5);
#94=CIRCLE('',#859,0.00055);
#95=CIRCLE('',#861,4.99999999999949E-5);
#96=CIRCLE('',#863,0.00055);
#97=CIRCLE('',#865,4.99999999999949E-5);
#98=CIRCLE('',#867,0.00055);
#99=CIRCLE('',#869,4.99999999999949E-5);
#100=CIRCLE('',#871,0.00055);
#101=CIRCLE('',#873,4.99999999999949E-5);
#102=CIRCLE('',#875,0.00055);
#103=CIRCLE('',#877,4.99999999999949E-5);
#104=CIRCLE('',#879,0.00055);
#105=CIRCLE('',#881,4.99999999999949E-5);
#106=CIRCLE('',#883,0.00055);
#107=CIRCLE('',#885,4.99999999999949E-5);
#108=ORIENTED_EDGE('',*,*,#244,.F.);
#109=ORIENTED_EDGE('',*,*,#245,.F.);
#110=ORIENTED_EDGE('',*,*,#246,.T.);
#111=ORIENTED_EDGE('',*,*,#247,.T.);
#112=ORIENTED_EDGE('',*,*,#248,.T.);
#113=ORIENTED_EDGE('',*,*,#249,.F.);
#114=ORIENTED_EDGE('',*,*,#250,.F.);
#115=ORIENTED_EDGE('',*,*,#245,.T.);
#116=ORIENTED_EDGE('',*,*,#251,.T.);
#117=ORIENTED_EDGE('',*,*,#252,.F.);
#118=ORIENTED_EDGE('',*,*,#253,.F.);
#119=ORIENTED_EDGE('',*,*,#249,.T.);
#120=ORIENTED_EDGE('',*,*,#254,.F.);
#121=ORIENTED_EDGE('',*,*,#247,.F.);
#122=ORIENTED_EDGE('',*,*,#255,.T.);
#123=ORIENTED_EDGE('',*,*,#252,.T.);
#124=ORIENTED_EDGE('',*,*,#256,.F.);
#125=ORIENTED_EDGE('',*,*,#257,.F.);
#126=ORIENTED_EDGE('',*,*,#258,.F.);
#127=ORIENTED_EDGE('',*,*,#259,.F.);
#128=ORIENTED_EDGE('',*,*,#260,.F.);
#129=ORIENTED_EDGE('',*,*,#261,.F.);
#130=ORIENTED_EDGE('',*,*,#262,.F.);
#131=ORIENTED_EDGE('',*,*,#263,.F.);
#132=ORIENTED_EDGE('',*,*,#246,.F.);
#133=ORIENTED_EDGE('',*,*,#250,.T.);
#134=ORIENTED_EDGE('',*,*,#253,.T.);
#135=ORIENTED_EDGE('',*,*,#255,.F.);
#136=ORIENTED_EDGE('',*,*,#264,.F.);
#137=ORIENTED_EDGE('',*,*,#265,.F.);
#138=ORIENTED_EDGE('',*,*,#266,.F.);
#139=ORIENTED_EDGE('',*,*,#267,.F.);
#140=ORIENTED_EDGE('',*,*,#268,.F.);
#141=ORIENTED_EDGE('',*,*,#269,.F.);
#142=ORIENTED_EDGE('',*,*,#270,.F.);
#143=ORIENTED_EDGE('',*,*,#271,.F.);
#144=ORIENTED_EDGE('',*,*,#244,.T.);
#145=ORIENTED_EDGE('',*,*,#254,.T.);
#146=ORIENTED_EDGE('',*,*,#251,.F.);
#147=ORIENTED_EDGE('',*,*,#248,.F.);
#148=ORIENTED_EDGE('',*,*,#272,.F.);
#149=ORIENTED_EDGE('',*,*,#272,.T.);
#150=ORIENTED_EDGE('',*,*,#271,.T.);
#151=ORIENTED_EDGE('',*,*,#273,.F.);
#152=ORIENTED_EDGE('',*,*,#273,.T.);
#153=ORIENTED_EDGE('',*,*,#266,.T.);
#154=ORIENTED_EDGE('',*,*,#274,.F.);
#155=ORIENTED_EDGE('',*,*,#274,.T.);
#156=ORIENTED_EDGE('',*,*,#265,.T.);
#157=ORIENTED_EDGE('',*,*,#275,.F.);
#158=ORIENTED_EDGE('',*,*,#275,.T.);
#159=ORIENTED_EDGE('',*,*,#264,.T.);
#160=ORIENTED_EDGE('',*,*,#276,.F.);
#161=ORIENTED_EDGE('',*,*,#276,.T.);
#162=ORIENTED_EDGE('',*,*,#267,.T.);
#163=ORIENTED_EDGE('',*,*,#277,.F.);
#164=ORIENTED_EDGE('',*,*,#277,.T.);
#165=ORIENTED_EDGE('',*,*,#269,.T.);
#166=ORIENTED_EDGE('',*,*,#278,.F.);
#167=ORIENTED_EDGE('',*,*,#278,.T.);
#168=ORIENTED_EDGE('',*,*,#268,.T.);
#169=ORIENTED_EDGE('',*,*,#279,.F.);
#170=ORIENTED_EDGE('',*,*,#279,.T.);
#171=ORIENTED_EDGE('',*,*,#270,.T.);
#172=ORIENTED_EDGE('',*,*,#280,.T.);
#173=ORIENTED_EDGE('',*,*,#263,.T.);
#174=ORIENTED_EDGE('',*,*,#281,.T.);
#175=ORIENTED_EDGE('',*,*,#258,.T.);
#176=ORIENTED_EDGE('',*,*,#282,.T.);
#177=ORIENTED_EDGE('',*,*,#257,.T.);
#178=ORIENTED_EDGE('',*,*,#283,.T.);
#179=ORIENTED_EDGE('',*,*,#256,.T.);
#180=ORIENTED_EDGE('',*,*,#284,.T.);
#181=ORIENTED_EDGE('',*,*,#259,.T.);
#182=ORIENTED_EDGE('',*,*,#285,.T.);
#183=ORIENTED_EDGE('',*,*,#261,.T.);
#184=ORIENTED_EDGE('',*,*,#286,.T.);
#185=ORIENTED_EDGE('',*,*,#260,.T.);
#186=ORIENTED_EDGE('',*,*,#287,.T.);
#187=ORIENTED_EDGE('',*,*,#262,.T.);
#188=ORIENTED_EDGE('',*,*,#282,.F.);
#189=ORIENTED_EDGE('',*,*,#288,.F.);
#190=ORIENTED_EDGE('',*,*,#283,.F.);
#191=ORIENTED_EDGE('',*,*,#289,.F.);
#192=ORIENTED_EDGE('',*,*,#281,.F.);
#193=ORIENTED_EDGE('',*,*,#290,.F.);
#194=ORIENTED_EDGE('',*,*,#284,.F.);
#195=ORIENTED_EDGE('',*,*,#291,.F.);
#196=ORIENTED_EDGE('',*,*,#285,.F.);
#197=ORIENTED_EDGE('',*,*,#292,.F.);
#198=ORIENTED_EDGE('',*,*,#286,.F.);
#199=ORIENTED_EDGE('',*,*,#293,.F.);
#200=ORIENTED_EDGE('',*,*,#287,.F.);
#201=ORIENTED_EDGE('',*,*,#294,.F.);
#202=ORIENTED_EDGE('',*,*,#280,.F.);
#203=ORIENTED_EDGE('',*,*,#295,.F.);
#204=ORIENTED_EDGE('',*,*,#296,.T.);
#205=ORIENTED_EDGE('',*,*,#295,.T.);
#206=ORIENTED_EDGE('',*,*,#297,.T.);
#207=ORIENTED_EDGE('',*,*,#298,.T.);
#208=ORIENTED_EDGE('',*,*,#294,.T.);
#209=ORIENTED_EDGE('',*,*,#299,.T.);
#210=ORIENTED_EDGE('',*,*,#300,.T.);
#211=ORIENTED_EDGE('',*,*,#293,.T.);
#212=ORIENTED_EDGE('',*,*,#301,.T.);
#213=ORIENTED_EDGE('',*,*,#302,.T.);
#214=ORIENTED_EDGE('',*,*,#292,.T.);
#215=ORIENTED_EDGE('',*,*,#303,.T.);
#216=ORIENTED_EDGE('',*,*,#304,.T.);
#217=ORIENTED_EDGE('',*,*,#291,.T.);
#218=ORIENTED_EDGE('',*,*,#305,.T.);
#219=ORIENTED_EDGE('',*,*,#306,.T.);
#220=ORIENTED_EDGE('',*,*,#290,.T.);
#221=ORIENTED_EDGE('',*,*,#307,.T.);
#222=ORIENTED_EDGE('',*,*,#308,.T.);
#223=ORIENTED_EDGE('',*,*,#289,.T.);
#224=ORIENTED_EDGE('',*,*,#309,.T.);
#225=ORIENTED_EDGE('',*,*,#310,.T.);
#226=ORIENTED_EDGE('',*,*,#288,.T.);
#227=ORIENTED_EDGE('',*,*,#311,.T.);
#228=ORIENTED_EDGE('',*,*,#308,.F.);
#229=ORIENTED_EDGE('',*,*,#309,.F.);
#230=ORIENTED_EDGE('',*,*,#310,.F.);
#231=ORIENTED_EDGE('',*,*,#311,.F.);
#232=ORIENTED_EDGE('',*,*,#306,.F.);
#233=ORIENTED_EDGE('',*,*,#307,.F.);
#234=ORIENTED_EDGE('',*,*,#304,.F.);
#235=ORIENTED_EDGE('',*,*,#305,.F.);
#236=ORIENTED_EDGE('',*,*,#302,.F.);
#237=ORIENTED_EDGE('',*,*,#303,.F.);
#238=ORIENTED_EDGE('',*,*,#300,.F.);
#239=ORIENTED_EDGE('',*,*,#301,.F.);
#240=ORIENTED_EDGE('',*,*,#298,.F.);
#241=ORIENTED_EDGE('',*,*,#299,.F.);
#242=ORIENTED_EDGE('',*,*,#296,.F.);
#243=ORIENTED_EDGE('',*,*,#297,.F.);
#244=EDGE_CURVE('',#312,#313,#376,.T.);
#245=EDGE_CURVE('',#314,#312,#377,.T.);
#246=EDGE_CURVE('',#314,#315,#378,.T.);
#247=EDGE_CURVE('',#315,#313,#379,.T.);
#248=EDGE_CURVE('',#312,#316,#380,.T.);
#249=EDGE_CURVE('',#317,#316,#381,.T.);
#250=EDGE_CURVE('',#314,#317,#382,.T.);
#251=EDGE_CURVE('',#316,#318,#383,.T.);
#252=EDGE_CURVE('',#319,#318,#384,.T.);
#253=EDGE_CURVE('',#317,#319,#385,.T.);
#254=EDGE_CURVE('',#313,#318,#386,.T.);
#255=EDGE_CURVE('',#315,#319,#387,.T.);
#256=EDGE_CURVE('',#320,#320,#52,.T.);
#257=EDGE_CURVE('',#321,#321,#53,.T.);
#258=EDGE_CURVE('',#322,#322,#54,.T.);
#259=EDGE_CURVE('',#323,#323,#55,.T.);
#260=EDGE_CURVE('',#324,#324,#56,.T.);
#261=EDGE_CURVE('',#325,#325,#57,.T.);
#262=EDGE_CURVE('',#326,#326,#58,.T.);
#263=EDGE_CURVE('',#327,#327,#59,.T.);
#264=EDGE_CURVE('',#328,#328,#60,.F.);
#265=EDGE_CURVE('',#329,#329,#61,.F.);
#266=EDGE_CURVE('',#330,#330,#62,.F.);
#267=EDGE_CURVE('',#331,#331,#63,.F.);
#268=EDGE_CURVE('',#332,#332,#64,.F.);
#269=EDGE_CURVE('',#333,#333,#65,.F.);
#270=EDGE_CURVE('',#334,#334,#66,.F.);
#271=EDGE_CURVE('',#335,#335,#67,.F.);
#272=EDGE_CURVE('',#336,#336,#68,.T.);
#273=EDGE_CURVE('',#337,#337,#69,.T.);
#274=EDGE_CURVE('',#338,#338,#70,.T.);
#275=EDGE_CURVE('',#339,#339,#71,.T.);
#276=EDGE_CURVE('',#340,#340,#72,.T.);
#277=EDGE_CURVE('',#341,#341,#73,.T.);
#278=EDGE_CURVE('',#342,#342,#74,.T.);
#279=EDGE_CURVE('',#343,#343,#75,.T.);
#280=EDGE_CURVE('',#344,#344,#76,.F.);
#281=EDGE_CURVE('',#345,#345,#77,.F.);
#282=EDGE_CURVE('',#346,#346,#78,.F.);
#283=EDGE_CURVE('',#347,#347,#79,.F.);
#284=EDGE_CURVE('',#348,#348,#80,.F.);
#285=EDGE_CURVE('',#349,#349,#81,.F.);
#286=EDGE_CURVE('',#350,#350,#82,.F.);
#287=EDGE_CURVE('',#351,#351,#83,.F.);
#288=EDGE_CURVE('',#352,#352,#84,.T.);
#289=EDGE_CURVE('',#353,#353,#85,.T.);
#290=EDGE_CURVE('',#354,#354,#86,.T.);
#291=EDGE_CURVE('',#355,#355,#87,.T.);
#292=EDGE_CURVE('',#356,#356,#88,.T.);
#293=EDGE_CURVE('',#357,#357,#89,.T.);
#294=EDGE_CURVE('',#358,#358,#90,.T.);
#295=EDGE_CURVE('',#359,#359,#91,.T.);
#296=EDGE_CURVE('',#360,#360,#92,.F.);
#297=EDGE_CURVE('',#361,#361,#93,.T.);
#298=EDGE_CURVE('',#362,#362,#94,.F.);
#299=EDGE_CURVE('',#363,#363,#95,.T.);
#300=EDGE_CURVE('',#364,#364,#96,.F.);
#301=EDGE_CURVE('',#365,#365,#97,.T.);
#302=EDGE_CURVE('',#366,#366,#98,.F.);
#303=EDGE_CURVE('',#367,#367,#99,.T.);
#304=EDGE_CURVE('',#368,#368,#100,.F.);
#305=EDGE_CURVE('',#369,#369,#101,.T.);
#306=EDGE_CURVE('',#370,#370,#102,.F.);
#307=EDGE_CURVE('',#371,#371,#103,.T.);
#308=EDGE_CURVE('',#372,#372,#104,.F.);
#309=EDGE_CURVE('',#373,#373,#105,.T.);
#310=EDGE_CURVE('',#374,#374,#106,.F.);
#311=EDGE_CURVE('',#375,#375,#107,.T.);
#312=VERTEX_POINT('',#1147);
#313=VERTEX_POINT('',#1148);
#314=VERTEX_POINT('',#1150);
#315=VERTEX_POINT('',#1152);
#316=VERTEX_POINT('',#1156);
#317=VERTEX_POINT('',#1158);
#318=VERTEX_POINT('',#1162);
#319=VERTEX_POINT('',#1164);
#320=VERTEX_POINT('',#1171);
#321=VERTEX_POINT('',#1173);
#322=VERTEX_POINT('',#1175);
#323=VERTEX_POINT('',#1177);
#324=VERTEX_POINT('',#1179);
#325=VERTEX_POINT('',#1181);
#326=VERTEX_POINT('',#1183);
#327=VERTEX_POINT('',#1185);
#328=VERTEX_POINT('',#1188);
#329=VERTEX_POINT('',#1190);
#330=VERTEX_POINT('',#1192);
#331=VERTEX_POINT('',#1194);
#332=VERTEX_POINT('',#1196);
#333=VERTEX_POINT('',#1198);
#334=VERTEX_POINT('',#1200);
#335=VERTEX_POINT('',#1202);
#336=VERTEX_POINT('',#1205);
#337=VERTEX_POINT('',#1209);
#338=VERTEX_POINT('',#1213);
#339=VERTEX_POINT('',#1217);
#340=VERTEX_POINT('',#1221);
#341=VERTEX_POINT('',#1225);
#342=VERTEX_POINT('',#1229);
#343=VERTEX_POINT('',#1233);
#344=VERTEX_POINT('',#1237);
#345=VERTEX_POINT('',#1240);
#346=VERTEX_POINT('',#1243);
#347=VERTEX_POINT('',#1246);
#348=VERTEX_POINT('',#1249);
#349=VERTEX_POINT('',#1252);
#350=VERTEX_POINT('',#1255);
#351=VERTEX_POINT('',#1258);
#352=VERTEX_POINT('',#1261);
#353=VERTEX_POINT('',#1264);
#354=VERTEX_POINT('',#1267);
#355=VERTEX_POINT('',#1270);
#356=VERTEX_POINT('',#1273);
#357=VERTEX_POINT('',#1276);
#358=VERTEX_POINT('',#1279);
#359=VERTEX_POINT('',#1282);
#360=VERTEX_POINT('',#1285);
#361=VERTEX_POINT('',#1288);
#362=VERTEX_POINT('',#1291);
#363=VERTEX_POINT('',#1294);
#364=VERTEX_POINT('',#1297);
#365=VERTEX_POINT('',#1300);
#366=VERTEX_POINT('',#1303);
#367=VERTEX_POINT('',#1306);
#368=VERTEX_POINT('',#1309);
#369=VERTEX_POINT('',#1312);
#370=VERTEX_POINT('',#1315);
#371=VERTEX_POINT('',#1318);
#372=VERTEX_POINT('',#1321);
#373=VERTEX_POINT('',#1324);
#374=VERTEX_POINT('',#1327);
#375=VERTEX_POINT('',#1330);
#376=LINE('',#1146,#388);
#377=LINE('',#1149,#389);
#378=LINE('',#1151,#390);
#379=LINE('',#1153,#391);
#380=LINE('',#1155,#392);
#381=LINE('',#1157,#393);
#382=LINE('',#1159,#394);
#383=LINE('',#1161,#395);
#384=LINE('',#1163,#396);
#385=LINE('',#1165,#397);
#386=LINE('',#1167,#398);
#387=LINE('',#1168,#399);
#388=VECTOR('',#898,1.);
#389=VECTOR('',#899,1.);
#390=VECTOR('',#900,1.);
#391=VECTOR('',#901,1.);
#392=VECTOR('',#904,1.);
#393=VECTOR('',#905,1.);
#394=VECTOR('',#906,1.);
#395=VECTOR('',#909,1.);
#396=VECTOR('',#910,1.);
#397=VECTOR('',#911,1.);
#398=VECTOR('',#914,1.);
#399=VECTOR('',#915,1.);
#400=EDGE_LOOP('',(#108,#109,#110,#111));
#401=EDGE_LOOP('',(#112,#113,#114,#115));
#402=EDGE_LOOP('',(#116,#117,#118,#119));
#403=EDGE_LOOP('',(#120,#121,#122,#123));
#404=EDGE_LOOP('',(#124));
#405=EDGE_LOOP('',(#125));
#406=EDGE_LOOP('',(#126));
#407=EDGE_LOOP('',(#127));
#408=EDGE_LOOP('',(#128));
#409=EDGE_LOOP('',(#129));
#410=EDGE_LOOP('',(#130));
#411=EDGE_LOOP('',(#131));
#412=EDGE_LOOP('',(#132,#133,#134,#135));
#413=EDGE_LOOP('',(#136));
#414=EDGE_LOOP('',(#137));
#415=EDGE_LOOP('',(#138));
#416=EDGE_LOOP('',(#139));
#417=EDGE_LOOP('',(#140));
#418=EDGE_LOOP('',(#141));
#419=EDGE_LOOP('',(#142));
#420=EDGE_LOOP('',(#143));
#421=EDGE_LOOP('',(#144,#145,#146,#147));
#422=EDGE_LOOP('',(#148));
#423=EDGE_LOOP('',(#149));
#424=EDGE_LOOP('',(#150));
#425=EDGE_LOOP('',(#151));
#426=EDGE_LOOP('',(#152));
#427=EDGE_LOOP('',(#153));
#428=EDGE_LOOP('',(#154));
#429=EDGE_LOOP('',(#155));
#430=EDGE_LOOP('',(#156));
#431=EDGE_LOOP('',(#157));
#432=EDGE_LOOP('',(#158));
#433=EDGE_LOOP('',(#159));
#434=EDGE_LOOP('',(#160));
#435=EDGE_LOOP('',(#161));
#436=EDGE_LOOP('',(#162));
#437=EDGE_LOOP('',(#163));
#438=EDGE_LOOP('',(#164));
#439=EDGE_LOOP('',(#165));
#440=EDGE_LOOP('',(#166));
#441=EDGE_LOOP('',(#167));
#442=EDGE_LOOP('',(#168));
#443=EDGE_LOOP('',(#169));
#444=EDGE_LOOP('',(#170));
#445=EDGE_LOOP('',(#171));
#446=EDGE_LOOP('',(#172));
#447=EDGE_LOOP('',(#173));
#448=EDGE_LOOP('',(#174));
#449=EDGE_LOOP('',(#175));
#450=EDGE_LOOP('',(#176));
#451=EDGE_LOOP('',(#177));
#452=EDGE_LOOP('',(#178));
#453=EDGE_LOOP('',(#179));
#454=EDGE_LOOP('',(#180));
#455=EDGE_LOOP('',(#181));
#456=EDGE_LOOP('',(#182));
#457=EDGE_LOOP('',(#183));
#458=EDGE_LOOP('',(#184));
#459=EDGE_LOOP('',(#185));
#460=EDGE_LOOP('',(#186));
#461=EDGE_LOOP('',(#187));
#462=EDGE_LOOP('',(#188));
#463=EDGE_LOOP('',(#189));
#464=EDGE_LOOP('',(#190));
#465=EDGE_LOOP('',(#191));
#466=EDGE_LOOP('',(#192));
#467=EDGE_LOOP('',(#193));
#468=EDGE_LOOP('',(#194));
#469=EDGE_LOOP('',(#195));
#470=EDGE_LOOP('',(#196));
#471=EDGE_LOOP('',(#197));
#472=EDGE_LOOP('',(#198));
#473=EDGE_LOOP('',(#199));
#474=EDGE_LOOP('',(#200));
#475=EDGE_LOOP('',(#201));
#476=EDGE_LOOP('',(#202));
#477=EDGE_LOOP('',(#203));
#478=EDGE_LOOP('',(#204));
#479=EDGE_LOOP('',(#205));
#480=EDGE_LOOP('',(#206));
#481=EDGE_LOOP('',(#207));
#482=EDGE_LOOP('',(#208));
#483=EDGE_LOOP('',(#209));
#484=EDGE_LOOP('',(#210));
#485=EDGE_LOOP('',(#211));
#486=EDGE_LOOP('',(#212));
#487=EDGE_LOOP('',(#213));
#488=EDGE_LOOP('',(#214));
#489=EDGE_LOOP('',(#215));
#490=EDGE_LOOP('',(#216));
#491=EDGE_LOOP('',(#217));
#492=EDGE_LOOP('',(#218));
#493=EDGE_LOOP('',(#219));
#494=EDGE_LOOP('',(#220));
#495=EDGE_LOOP('',(#221));
#496=EDGE_LOOP('',(#222));
#497=EDGE_LOOP('',(#223));
#498=EDGE_LOOP('',(#224));
#499=EDGE_LOOP('',(#225));
#500=EDGE_LOOP('',(#226));
#501=EDGE_LOOP('',(#227));
#502=EDGE_LOOP('',(#228));
#503=EDGE_LOOP('',(#229));
#504=EDGE_LOOP('',(#230));
#505=EDGE_LOOP('',(#231));
#506=EDGE_LOOP('',(#232));
#507=EDGE_LOOP('',(#233));
#508=EDGE_LOOP('',(#234));
#509=EDGE_LOOP('',(#235));
#510=EDGE_LOOP('',(#236));
#511=EDGE_LOOP('',(#237));
#512=EDGE_LOOP('',(#238));
#513=EDGE_LOOP('',(#239));
#514=EDGE_LOOP('',(#240));
#515=EDGE_LOOP('',(#241));
#516=EDGE_LOOP('',(#242));
#517=EDGE_LOOP('',(#243));
#518=FACE_BOUND('',#400,.T.);
#519=FACE_BOUND('',#401,.T.);
#520=FACE_BOUND('',#402,.T.);
#521=FACE_BOUND('',#403,.T.);
#522=FACE_BOUND('',#404,.T.);
#523=FACE_BOUND('',#405,.T.);
#524=FACE_BOUND('',#406,.T.);
#525=FACE_BOUND('',#407,.T.);
#526=FACE_BOUND('',#408,.T.);
#527=FACE_BOUND('',#409,.T.);
#528=FACE_BOUND('',#410,.T.);
#529=FACE_BOUND('',#411,.T.);
#530=FACE_BOUND('',#412,.T.);
#531=FACE_BOUND('',#413,.T.);
#532=FACE_BOUND('',#414,.T.);
#533=FACE_BOUND('',#415,.T.);
#534=FACE_BOUND('',#416,.T.);
#535=FACE_BOUND('',#417,.T.);
#536=FACE_BOUND('',#418,.T.);
#537=FACE_BOUND('',#419,.T.);
#538=FACE_BOUND('',#420,.T.);
#539=FACE_BOUND('',#421,.T.);
#540=FACE_BOUND('',#422,.T.);
#541=FACE_BOUND('',#423,.T.);
#542=FACE_BOUND('',#424,.T.);
#543=FACE_BOUND('',#425,.T.);
#544=FACE_BOUND('',#426,.T.);
#545=FACE_BOUND('',#427,.T.);
#546=FACE_BOUND('',#428,.T.);
#547=FACE_BOUND('',#429,.T.);
#548=FACE_BOUND('',#430,.T.);
#549=FACE_BOUND('',#431,.T.);
#550=FACE_BOUND('',#432,.T.);
#551=FACE_BOUND('',#433,.T.);
#552=FACE_BOUND('',#434,.T.);
#553=FACE_BOUND('',#435,.T.);
#554=FACE_BOUND('',#436,.T.);
#555=FACE_BOUND('',#437,.T.);
#556=FACE_BOUND('',#438,.T.);
#557=FACE_BOUND('',#439,.T.);
#558=FACE_BOUND('',#440,.T.);
#559=FACE_BOUND('',#441,.T.);
#560=FACE_BOUND('',#442,.T.);
#561=FACE_BOUND('',#443,.T.);
#562=FACE_BOUND('',#444,.T.);
#563=FACE_BOUND('',#445,.T.);
#564=FACE_BOUND('',#446,.T.);
#565=FACE_BOUND('',#447,.T.);
#566=FACE_BOUND('',#448,.T.);
#567=FACE_BOUND('',#449,.T.);
#568=FACE_BOUND('',#450,.T.);
#569=FACE_BOUND('',#451,.T.);
#570=FACE_BOUND('',#452,.T.);
#571=FACE_BOUND('',#453,.T.);
#572=FACE_BOUND('',#454,.T.);
#573=FACE_BOUND('',#455,.T.);
#574=FACE_BOUND('',#456,.T.);
#575=FACE_BOUND('',#457,.T.);
#576=FACE_BOUND('',#458,.T.);
#577=FACE_BOUND('',#459,.T.);
#578=FACE_BOUND('',#460,.T.);
#579=FACE_BOUND('',#461,.T.);
#580=FACE_BOUND('',#462,.T.);
#581=FACE_BOUND('',#463,.T.);
#582=FACE_BOUND('',#464,.T.);
#583=FACE_BOUND('',#465,.T.);
#584=FACE_BOUND('',#466,.T.);
#585=FACE_BOUND('',#467,.T.);
#586=FACE_BOUND('',#468,.T.);
#587=FACE_BOUND('',#469,.T.);
#588=FACE_BOUND('',#470,.T.);
#589=FACE_BOUND('',#471,.T.);
#590=FACE_BOUND('',#472,.T.);
#591=FACE_BOUND('',#473,.T.);
#592=FACE_BOUND('',#474,.T.);
#593=FACE_BOUND('',#475,.T.);
#594=FACE_BOUND('',#476,.T.);
#595=FACE_BOUND('',#477,.T.);
#596=FACE_BOUND('',#478,.T.);
#597=FACE_BOUND('',#479,.T.);
#598=FACE_BOUND('',#480,.T.);
#599=FACE_BOUND('',#481,.T.);
#600=FACE_BOUND('',#482,.T.);
#601=FACE_BOUND('',#483,.T.);
#602=FACE_BOUND('',#484,.T.);
#603=FACE_BOUND('',#485,.T.);
#604=FACE_BOUND('',#486,.T.);
#605=FACE_BOUND('',#487,.T.);
#606=FACE_BOUND('',#488,.T.);
#607=FACE_BOUND('',#489,.T.);
#608=FACE_BOUND('',#490,.T.);
#609=FACE_BOUND('',#491,.T.);
#610=FACE_BOUND('',#492,.T.);
#611=FACE_BOUND('',#493,.T.);
#612=FACE_BOUND('',#494,.T.);
#613=FACE_BOUND('',#495,.T.);
#614=FACE_BOUND('',#496,.T.);
#615=FACE_BOUND('',#497,.T.);
#616=FACE_BOUND('',#498,.T.);
#617=FACE_BOUND('',#499,.T.);
#618=FACE_BOUND('',#500,.T.);
#619=FACE_BOUND('',#501,.T.);
#620=FACE_BOUND('',#502,.T.);
#621=FACE_BOUND('',#503,.T.);
#622=FACE_BOUND('',#504,.T.);
#623=FACE_BOUND('',#505,.T.);
#624=FACE_BOUND('',#506,.T.);
#625=FACE_BOUND('',#507,.T.);
#626=FACE_BOUND('',#508,.T.);
#627=FACE_BOUND('',#509,.T.);
#628=FACE_BOUND('',#510,.T.);
#629=FACE_BOUND('',#511,.T.);
#630=FACE_BOUND('',#512,.T.);
#631=FACE_BOUND('',#513,.T.);
#632=FACE_BOUND('',#514,.T.);
#633=FACE_BOUND('',#515,.T.);
#634=FACE_BOUND('',#516,.T.);
#635=FACE_BOUND('',#517,.T.);
#636=PLANE('',#776);
#637=PLANE('',#777);
#638=PLANE('',#778);
#639=PLANE('',#779);
#640=PLANE('',#780);
#641=PLANE('',#789);
#642=PLANE('',#798);
#643=PLANE('',#801);
#644=PLANE('',#804);
#645=PLANE('',#807);
#646=PLANE('',#810);
#647=PLANE('',#813);
#648=PLANE('',#816);
#649=PLANE('',#819);
#650=PLANE('',#856);
#651=PLANE('',#860);
#652=PLANE('',#864);
#653=PLANE('',#868);
#654=PLANE('',#872);
#655=PLANE('',#876);
#656=PLANE('',#880);
#657=PLANE('',#884);
#658=OVER_RIDING_STYLED_ITEM('',(#730),#665,#728);
#659=OVER_RIDING_STYLED_ITEM('',(#731),#666,#728);
#660=OVER_RIDING_STYLED_ITEM('',(#732),#667,#728);
#661=OVER_RIDING_STYLED_ITEM('',(#733),#668,#728);
#662=OVER_RIDING_STYLED_ITEM('',(#734),#669,#728);
#663=OVER_RIDING_STYLED_ITEM('',(#735),#670,#728);
#664=DRAUGHTING_PRE_DEFINED_COLOUR('black');
#665=ADVANCED_FACE('Face appearance 1',(#518),#636,.T.);
#666=ADVANCED_FACE('Face appearance 1',(#519),#637,.F.);
#667=ADVANCED_FACE('Face appearance 1',(#520),#638,.F.);
#668=ADVANCED_FACE('Face appearance 1',(#521),#639,.T.);
#669=ADVANCED_FACE('Face appearance 1',(#522,#523,#524,#525,#526,#527,#528,
#529,#530),#640,.T.);
#670=ADVANCED_FACE('Face appearance 1',(#531,#532,#533,#534,#535,#536,#537,
#538,#539),#641,.F.);
#671=ADVANCED_FACE('',(#540),#642,.F.);
#672=ADVANCED_FACE('',(#541,#542),#28,.T.);
#673=ADVANCED_FACE('',(#543),#643,.F.);
#674=ADVANCED_FACE('',(#544,#545),#29,.T.);
#675=ADVANCED_FACE('',(#546),#644,.F.);
#676=ADVANCED_FACE('',(#547,#548),#30,.T.);
#677=ADVANCED_FACE('',(#549),#645,.F.);
#678=ADVANCED_FACE('',(#550,#551),#31,.T.);
#679=ADVANCED_FACE('',(#552),#646,.F.);
#680=ADVANCED_FACE('',(#553,#554),#32,.T.);
#681=ADVANCED_FACE('',(#555),#647,.F.);
#682=ADVANCED_FACE('',(#556,#557),#33,.T.);
#683=ADVANCED_FACE('',(#558),#648,.F.);
#684=ADVANCED_FACE('',(#559,#560),#34,.T.);
#685=ADVANCED_FACE('',(#561),#649,.F.);
#686=ADVANCED_FACE('',(#562,#563),#35,.T.);
#687=ADVANCED_FACE('',(#564,#565),#36,.T.);
#688=ADVANCED_FACE('',(#566,#567),#37,.T.);
#689=ADVANCED_FACE('',(#568,#569),#38,.T.);
#690=ADVANCED_FACE('',(#570,#571),#39,.T.);
#691=ADVANCED_FACE('',(#572,#573),#40,.T.);
#692=ADVANCED_FACE('',(#574,#575),#41,.T.);
#693=ADVANCED_FACE('',(#576,#577),#42,.T.);
#694=ADVANCED_FACE('',(#578,#579),#43,.T.);
#695=ADVANCED_FACE('',(#580,#581),#20,.T.);
#696=ADVANCED_FACE('',(#582,#583),#21,.T.);
#697=ADVANCED_FACE('',(#584,#585),#22,.T.);
#698=ADVANCED_FACE('',(#586,#587),#23,.T.);
#699=ADVANCED_FACE('',(#588,#589),#24,.T.);
#700=ADVANCED_FACE('',(#590,#591),#25,.T.);
#701=ADVANCED_FACE('',(#592,#593),#26,.T.);
#702=ADVANCED_FACE('',(#594,#595),#27,.T.);
#703=ADVANCED_FACE('',(#596,#597),#44,.T.);
#704=ADVANCED_FACE('',(#598),#650,.T.);
#705=ADVANCED_FACE('',(#599,#600),#45,.T.);
#706=ADVANCED_FACE('',(#601),#651,.T.);
#707=ADVANCED_FACE('',(#602,#603),#46,.T.);
#708=ADVANCED_FACE('',(#604),#652,.T.);
#709=ADVANCED_FACE('',(#605,#606),#47,.T.);
#710=ADVANCED_FACE('',(#607),#653,.T.);
#711=ADVANCED_FACE('',(#608,#609),#48,.T.);
#712=ADVANCED_FACE('',(#610),#654,.T.);
#713=ADVANCED_FACE('',(#611,#612),#49,.T.);
#714=ADVANCED_FACE('',(#613),#655,.T.);
#715=ADVANCED_FACE('',(#614,#615),#50,.T.);
#716=ADVANCED_FACE('',(#616),#656,.T.);
#717=ADVANCED_FACE('',(#617,#618),#51,.T.);
#718=ADVANCED_FACE('',(#619),#657,.T.);
#719=ADVANCED_FACE('',(#620,#621),#12,.T.);
#720=ADVANCED_FACE('',(#622,#623),#13,.T.);
#721=ADVANCED_FACE('',(#624,#625),#14,.T.);
#722=ADVANCED_FACE('',(#626,#627),#15,.T.);
#723=ADVANCED_FACE('',(#628,#629),#16,.T.);
#724=ADVANCED_FACE('',(#630,#631),#17,.T.);
#725=ADVANCED_FACE('',(#632,#633),#18,.T.);
#726=ADVANCED_FACE('',(#634,#635),#19,.T.);
#727=CLOSED_SHELL('',(#665,#666,#667,#668,#669,#670,#671,#672,#673,#674,
#675,#676,#677,#678,#679,#680,#681,#682,#683,#684,#685,#686,#687,#688,#689,
#690,#691,#692,#693,#694,#695,#696,#697,#698,#699,#700,#701,#702,#703,#704,
#705,#706,#707,#708,#709,#710,#711,#712,#713,#714,#715,#716,#717,#718,#719,
#720,#721,#722,#723,#724,#725,#726));
#728=STYLED_ITEM('',(#729),#772);
#729=PRESENTATION_STYLE_ASSIGNMENT((#736));
#730=PRESENTATION_STYLE_ASSIGNMENT((#737));
#731=PRESENTATION_STYLE_ASSIGNMENT((#738));
#732=PRESENTATION_STYLE_ASSIGNMENT((#739));
#733=PRESENTATION_STYLE_ASSIGNMENT((#740));
#734=PRESENTATION_STYLE_ASSIGNMENT((#741));
#735=PRESENTATION_STYLE_ASSIGNMENT((#742));
#736=SURFACE_STYLE_USAGE(.BOTH.,#743);
#737=SURFACE_STYLE_USAGE(.BOTH.,#744);
#738=SURFACE_STYLE_USAGE(.BOTH.,#745);
#739=SURFACE_STYLE_USAGE(.BOTH.,#746);
#740=SURFACE_STYLE_USAGE(.BOTH.,#747);
#741=SURFACE_STYLE_USAGE(.BOTH.,#748);
#742=SURFACE_STYLE_USAGE(.BOTH.,#749);
#743=SURFACE_SIDE_STYLE('',(#750));
#744=SURFACE_SIDE_STYLE('',(#751));
#745=SURFACE_SIDE_STYLE('',(#752));
#746=SURFACE_SIDE_STYLE('',(#753));
#747=SURFACE_SIDE_STYLE('',(#754));
#748=SURFACE_SIDE_STYLE('',(#755));
#749=SURFACE_SIDE_STYLE('',(#756));
#750=SURFACE_STYLE_FILL_AREA(#757);
#751=SURFACE_STYLE_FILL_AREA(#758);
#752=SURFACE_STYLE_FILL_AREA(#759);
#753=SURFACE_STYLE_FILL_AREA(#760);
#754=SURFACE_STYLE_FILL_AREA(#761);
#755=SURFACE_STYLE_FILL_AREA(#762);
#756=SURFACE_STYLE_FILL_AREA(#763);
#757=FILL_AREA_STYLE('',(#764));
#758=FILL_AREA_STYLE('',(#765));
#759=FILL_AREA_STYLE('',(#766));
#760=FILL_AREA_STYLE('',(#767));
#761=FILL_AREA_STYLE('',(#768));
#762=FILL_AREA_STYLE('',(#769));
#763=FILL_AREA_STYLE('',(#770));
#764=FILL_AREA_STYLE_COLOUR('',#771);
#765=FILL_AREA_STYLE_COLOUR('',#664);
#766=FILL_AREA_STYLE_COLOUR('',#664);
#767=FILL_AREA_STYLE_COLOUR('',#664);
#768=FILL_AREA_STYLE_COLOUR('',#664);
#769=FILL_AREA_STYLE_COLOUR('',#664);
#770=FILL_AREA_STYLE_COLOUR('',#664);
#771=COLOUR_RGB('',0.980392156862745,0.713725490196078,0.00392156862745098);
#772=MANIFOLD_SOLID_BREP('Part 9',#727);
#773=SHAPE_DEFINITION_REPRESENTATION(#1345,#774);
#774=SHAPE_REPRESENTATION('Part 9',(#775),#1340);
#775=AXIS2_PLACEMENT_3D('',#1144,#894,#895);
#776=AXIS2_PLACEMENT_3D('',#1145,#896,#897);
#777=AXIS2_PLACEMENT_3D('',#1154,#902,#903);
#778=AXIS2_PLACEMENT_3D('',#1160,#907,#908);
#779=AXIS2_PLACEMENT_3D('',#1166,#912,#913);
#780=AXIS2_PLACEMENT_3D('',#1169,#916,#917);
#781=AXIS2_PLACEMENT_3D('',#1170,#918,#919);
#782=AXIS2_PLACEMENT_3D('',#1172,#920,#921);
#783=AXIS2_PLACEMENT_3D('',#1174,#922,#923);
#784=AXIS2_PLACEMENT_3D('',#1176,#924,#925);
#785=AXIS2_PLACEMENT_3D('',#1178,#926,#927);
#786=AXIS2_PLACEMENT_3D('',#1180,#928,#929);
#787=AXIS2_PLACEMENT_3D('',#1182,#930,#931);
#788=AXIS2_PLACEMENT_3D('',#1184,#932,#933);
#789=AXIS2_PLACEMENT_3D('',#1186,#934,#935);
#790=AXIS2_PLACEMENT_3D('',#1187,#936,#937);
#791=AXIS2_PLACEMENT_3D('',#1189,#938,#939);
#792=AXIS2_PLACEMENT_3D('',#1191,#940,#941);
#793=AXIS2_PLACEMENT_3D('',#1193,#942,#943);
#794=AXIS2_PLACEMENT_3D('',#1195,#944,#945);
#795=AXIS2_PLACEMENT_3D('',#1197,#946,#947);
#796=AXIS2_PLACEMENT_3D('',#1199,#948,#949);
#797=AXIS2_PLACEMENT_3D('',#1201,#950,#951);
#798=AXIS2_PLACEMENT_3D('',#1203,#952,#953);
#799=AXIS2_PLACEMENT_3D('',#1204,#954,#955);
#800=AXIS2_PLACEMENT_3D('',#1206,#956,#957);
#801=AXIS2_PLACEMENT_3D('',#1207,#958,#959);
#802=AXIS2_PLACEMENT_3D('',#1208,#960,#961);
#803=AXIS2_PLACEMENT_3D('',#1210,#962,#963);
#804=AXIS2_PLACEMENT_3D('',#1211,#964,#965);
#805=AXIS2_PLACEMENT_3D('',#1212,#966,#967);
#806=AXIS2_PLACEMENT_3D('',#1214,#968,#969);
#807=AXIS2_PLACEMENT_3D('',#1215,#970,#971);
#808=AXIS2_PLACEMENT_3D('',#1216,#972,#973);
#809=AXIS2_PLACEMENT_3D('',#1218,#974,#975);
#810=AXIS2_PLACEMENT_3D('',#1219,#976,#977);
#811=AXIS2_PLACEMENT_3D('',#1220,#978,#979);
#812=AXIS2_PLACEMENT_3D('',#1222,#980,#981);
#813=AXIS2_PLACEMENT_3D('',#1223,#982,#983);
#814=AXIS2_PLACEMENT_3D('',#1224,#984,#985);
#815=AXIS2_PLACEMENT_3D('',#1226,#986,#987);
#816=AXIS2_PLACEMENT_3D('',#1227,#988,#989);
#817=AXIS2_PLACEMENT_3D('',#1228,#990,#991);
#818=AXIS2_PLACEMENT_3D('',#1230,#992,#993);
#819=AXIS2_PLACEMENT_3D('',#1231,#994,#995);
#820=AXIS2_PLACEMENT_3D('',#1232,#996,#997);
#821=AXIS2_PLACEMENT_3D('',#1234,#998,#999);
#822=AXIS2_PLACEMENT_3D('',#1235,#1000,#1001);
#823=AXIS2_PLACEMENT_3D('',#1236,#1002,#1003);
#824=AXIS2_PLACEMENT_3D('',#1238,#1004,#1005);
#825=AXIS2_PLACEMENT_3D('',#1239,#1006,#1007);
#826=AXIS2_PLACEMENT_3D('',#1241,#1008,#1009);
#827=AXIS2_PLACEMENT_3D('',#1242,#1010,#1011);
#828=AXIS2_PLACEMENT_3D('',#1244,#1012,#1013);
#829=AXIS2_PLACEMENT_3D('',#1245,#1014,#1015);
#830=AXIS2_PLACEMENT_3D('',#1247,#1016,#1017);
#831=AXIS2_PLACEMENT_3D('',#1248,#1018,#1019);
#832=AXIS2_PLACEMENT_3D('',#1250,#1020,#1021);
#833=AXIS2_PLACEMENT_3D('',#1251,#1022,#1023);
#834=AXIS2_PLACEMENT_3D('',#1253,#1024,#1025);
#835=AXIS2_PLACEMENT_3D('',#1254,#1026,#1027);
#836=AXIS2_PLACEMENT_3D('',#1256,#1028,#1029);
#837=AXIS2_PLACEMENT_3D('',#1257,#1030,#1031);
#838=AXIS2_PLACEMENT_3D('',#1259,#1032,#1033);
#839=AXIS2_PLACEMENT_3D('',#1260,#1034,#1035);
#840=AXIS2_PLACEMENT_3D('',#1262,#1036,#1037);
#841=AXIS2_PLACEMENT_3D('',#1263,#1038,#1039);
#842=AXIS2_PLACEMENT_3D('',#1265,#1040,#1041);
#843=AXIS2_PLACEMENT_3D('',#1266,#1042,#1043);
#844=AXIS2_PLACEMENT_3D('',#1268,#1044,#1045);
#845=AXIS2_PLACEMENT_3D('',#1269,#1046,#1047);
#846=AXIS2_PLACEMENT_3D('',#1271,#1048,#1049);
#847=AXIS2_PLACEMENT_3D('',#1272,#1050,#1051);
#848=AXIS2_PLACEMENT_3D('',#1274,#1052,#1053);
#849=AXIS2_PLACEMENT_3D('',#1275,#1054,#1055);
#850=AXIS2_PLACEMENT_3D('',#1277,#1056,#1057);
#851=AXIS2_PLACEMENT_3D('',#1278,#1058,#1059);
#852=AXIS2_PLACEMENT_3D('',#1280,#1060,#1061);
#853=AXIS2_PLACEMENT_3D('',#1281,#1062,#1063);
#854=AXIS2_PLACEMENT_3D('',#1283,#1064,#1065);
#855=AXIS2_PLACEMENT_3D('',#1284,#1066,#1067);
#856=AXIS2_PLACEMENT_3D('',#1286,#1068,#1069);
#857=AXIS2_PLACEMENT_3D('',#1287,#1070,#1071);
#858=AXIS2_PLACEMENT_3D('',#1289,#1072,#1073);
#859=AXIS2_PLACEMENT_3D('',#1290,#1074,#1075);
#860=AXIS2_PLACEMENT_3D('',#1292,#1076,#1077);
#861=AXIS2_PLACEMENT_3D('',#1293,#1078,#1079);
#862=AXIS2_PLACEMENT_3D('',#1295,#1080,#1081);
#863=AXIS2_PLACEMENT_3D('',#1296,#1082,#1083);
#864=AXIS2_PLACEMENT_3D('',#1298,#1084,#1085);
#865=AXIS2_PLACEMENT_3D('',#1299,#1086,#1087);
#866=AXIS2_PLACEMENT_3D('',#1301,#1088,#1089);
#867=AXIS2_PLACEMENT_3D('',#1302,#1090,#1091);
#868=AXIS2_PLACEMENT_3D('',#1304,#1092,#1093);
#869=AXIS2_PLACEMENT_3D('',#1305,#1094,#1095);
#870=AXIS2_PLACEMENT_3D('',#1307,#1096,#1097);
#871=AXIS2_PLACEMENT_3D('',#1308,#1098,#1099);
#872=AXIS2_PLACEMENT_3D('',#1310,#1100,#1101);
#873=AXIS2_PLACEMENT_3D('',#1311,#1102,#1103);
#874=AXIS2_PLACEMENT_3D('',#1313,#1104,#1105);
#875=AXIS2_PLACEMENT_3D('',#1314,#1106,#1107);
#876=AXIS2_PLACEMENT_3D('',#1316,#1108,#1109);
#877=AXIS2_PLACEMENT_3D('',#1317,#1110,#1111);
#878=AXIS2_PLACEMENT_3D('',#1319,#1112,#1113);
#879=AXIS2_PLACEMENT_3D('',#1320,#1114,#1115);
#880=AXIS2_PLACEMENT_3D('',#1322,#1116,#1117);
#881=AXIS2_PLACEMENT_3D('',#1323,#1118,#1119);
#882=AXIS2_PLACEMENT_3D('',#1325,#1120,#1121);
#883=AXIS2_PLACEMENT_3D('',#1326,#1122,#1123);
#884=AXIS2_PLACEMENT_3D('',#1328,#1124,#1125);
#885=AXIS2_PLACEMENT_3D('',#1329,#1126,#1127);
#886=AXIS2_PLACEMENT_3D('',#1331,#1128,#1129);
#887=AXIS2_PLACEMENT_3D('',#1332,#1130,#1131);
#888=AXIS2_PLACEMENT_3D('',#1333,#1132,#1133);
#889=AXIS2_PLACEMENT_3D('',#1334,#1134,#1135);
#890=AXIS2_PLACEMENT_3D('',#1335,#1136,#1137);
#891=AXIS2_PLACEMENT_3D('',#1336,#1138,#1139);
#892=AXIS2_PLACEMENT_3D('',#1337,#1140,#1141);
#893=AXIS2_PLACEMENT_3D('',#1338,#1142,#1143);
#894=DIRECTION('',(0.,0.,1.));
#895=DIRECTION('',(1.,0.,0.));
#896=DIRECTION('',(0.,0.,-1.));
#897=DIRECTION('',(0.,1.,0.));
#898=DIRECTION('',(1.,0.,0.));
#899=DIRECTION('',(0.,-1.,0.));
#900=DIRECTION('',(1.,0.,0.));
#901=DIRECTION('',(0.,-1.,0.));
#902=DIRECTION('',(1.,0.,0.));
#903=DIRECTION('',(0.,-1.,0.));
#904=DIRECTION('',(0.,0.,1.));
#905=DIRECTION('',(0.,-1.,0.));
#906=DIRECTION('',(0.,0.,1.));
#907=DIRECTION('',(0.,0.,-1.));
#908=DIRECTION('',(0.,1.,0.));
#909=DIRECTION('',(1.,0.,0.));
#910=DIRECTION('',(0.,-1.,0.));
#911=DIRECTION('',(1.,0.,0.));
#912=DIRECTION('',(1.,0.,0.));
#913=DIRECTION('',(0.,-1.,0.));
#914=DIRECTION('',(0.,0.,1.));
#915=DIRECTION('',(0.,0.,1.));
#916=DIRECTION('',(0.,1.,0.));
#917=DIRECTION('',(1.,0.,0.));
#918=DIRECTION('',(0.,1.,0.));
#919=DIRECTION('',(1.,0.,0.));
#920=DIRECTION('',(0.,1.,0.));
#921=DIRECTION('',(1.,0.,0.));
#922=DIRECTION('',(0.,1.,0.));
#923=DIRECTION('',(1.,0.,0.));
#924=DIRECTION('',(0.,1.,0.));
#925=DIRECTION('',(1.,0.,0.));
#926=DIRECTION('',(0.,1.,0.));
#927=DIRECTION('',(1.,0.,0.));
#928=DIRECTION('',(0.,1.,0.));
#929=DIRECTION('',(1.,0.,0.));
#930=DIRECTION('',(0.,1.,0.));
#931=DIRECTION('',(1.,0.,0.));
#932=DIRECTION('',(0.,1.,0.));
#933=DIRECTION('',(1.,0.,0.));
#934=DIRECTION('',(0.,1.,0.));
#935=DIRECTION('',(1.,0.,0.));
#936=DIRECTION('',(0.,1.,0.));
#937=DIRECTION('',(1.,0.,0.));
#938=DIRECTION('',(0.,1.,0.));
#939=DIRECTION('',(1.,0.,0.));
#940=DIRECTION('',(0.,1.,0.));
#941=DIRECTION('',(1.,0.,0.));
#942=DIRECTION('',(0.,1.,0.));
#943=DIRECTION('',(1.,0.,0.));
#944=DIRECTION('',(0.,1.,0.));
#945=DIRECTION('',(1.,0.,0.));
#946=DIRECTION('',(0.,1.,0.));
#947=DIRECTION('',(1.,0.,0.));
#948=DIRECTION('',(0.,1.,0.));
#949=DIRECTION('',(1.,0.,0.));
#950=DIRECTION('',(0.,1.,0.));
#951=DIRECTION('',(1.,0.,0.));
#952=DIRECTION('',(0.,1.,0.));
#953=DIRECTION('',(1.,0.,0.));
#954=DIRECTION('',(0.,1.,0.));
#955=DIRECTION('',(1.,0.,0.));
#956=DIRECTION('',(0.,-1.,0.));
#957=DIRECTION('',(-1.,0.,0.));
#958=DIRECTION('',(0.,1.,0.));
#959=DIRECTION('',(1.,0.,0.));
#960=DIRECTION('',(0.,1.,0.));
#961=DIRECTION('',(1.,0.,0.));
#962=DIRECTION('',(0.,-1.,0.));
#963=DIRECTION('',(-1.,0.,0.));
#964=DIRECTION('',(0.,1.,0.));
#965=DIRECTION('',(1.,0.,0.));
#966=DIRECTION('',(0.,1.,0.));
#967=DIRECTION('',(1.,0.,0.));
#968=DIRECTION('',(0.,-1.,0.));
#969=DIRECTION('',(-1.,0.,0.));
#970=DIRECTION('',(0.,1.,0.));
#971=DIRECTION('',(1.,0.,0.));
#972=DIRECTION('',(0.,1.,0.));
#973=DIRECTION('',(1.,0.,0.));
#974=DIRECTION('',(0.,-1.,0.));
#975=DIRECTION('',(-1.,0.,0.));
#976=DIRECTION('',(0.,1.,0.));
#977=DIRECTION('',(1.,0.,0.));
#978=DIRECTION('',(0.,1.,0.));
#979=DIRECTION('',(1.,0.,0.));
#980=DIRECTION('',(0.,-1.,0.));
#981=DIRECTION('',(-1.,0.,0.));
#982=DIRECTION('',(0.,1.,0.));
#983=DIRECTION('',(1.,0.,0.));
#984=DIRECTION('',(0.,1.,0.));
#985=DIRECTION('',(1.,0.,0.));
#986=DIRECTION('',(0.,-1.,0.));
#987=DIRECTION('',(-1.,0.,0.));
#988=DIRECTION('',(0.,1.,0.));
#989=DIRECTION('',(1.,0.,0.));
#990=DIRECTION('',(0.,1.,0.));
#991=DIRECTION('',(1.,0.,0.));
#992=DIRECTION('',(0.,-1.,0.));
#993=DIRECTION('',(-1.,0.,0.));
#994=DIRECTION('',(0.,1.,0.));
#995=DIRECTION('',(1.,0.,0.));
#996=DIRECTION('',(0.,1.,0.));
#997=DIRECTION('',(1.,0.,0.));
#998=DIRECTION('',(0.,-1.,0.));
#999=DIRECTION('',(-1.,0.,0.));
#1000=DIRECTION('',(0.,-1.,0.));
#1001=DIRECTION('',(-1.,0.,0.));
#1002=DIRECTION('',(0.,1.,0.));
#1003=DIRECTION('',(1.,0.,0.));
#1004=DIRECTION('',(0.,-1.,0.));
#1005=DIRECTION('',(-1.,0.,0.));
#1006=DIRECTION('',(0.,1.,0.));
#1007=DIRECTION('',(1.,0.,0.));
#1008=DIRECTION('',(0.,-1.,0.));
#1009=DIRECTION('',(-1.,0.,0.));
#1010=DIRECTION('',(0.,1.,0.));
#1011=DIRECTION('',(1.,0.,0.));
#1012=DIRECTION('',(0.,-1.,0.));
#1013=DIRECTION('',(-1.,0.,0.));
#1014=DIRECTION('',(0.,1.,0.));
#1015=DIRECTION('',(1.,0.,0.));
#1016=DIRECTION('',(0.,-1.,0.));
#1017=DIRECTION('',(-1.,0.,0.));
#1018=DIRECTION('',(0.,1.,0.));
#1019=DIRECTION('',(1.,0.,0.));
#1020=DIRECTION('',(0.,-1.,0.));
#1021=DIRECTION('',(-1.,0.,0.));
#1022=DIRECTION('',(0.,1.,0.));
#1023=DIRECTION('',(1.,0.,0.));
#1024=DIRECTION('',(0.,-1.,0.));
#1025=DIRECTION('',(-1.,0.,0.));
#1026=DIRECTION('',(0.,1.,0.));
#1027=DIRECTION('',(1.,0.,0.));
#1028=DIRECTION('',(0.,-1.,0.));
#1029=DIRECTION('',(-1.,0.,0.));
#1030=DIRECTION('',(0.,1.,0.));
#1031=DIRECTION('',(1.,0.,0.));
#1032=DIRECTION('',(0.,1.,0.));
#1033=DIRECTION('',(1.,0.,0.));
#1034=DIRECTION('',(0.,1.,0.));
#1035=DIRECTION('',(1.,0.,0.));
#1036=DIRECTION('',(0.,1.,0.));
#1037=DIRECTION('',(1.,0.,0.));
#1038=DIRECTION('',(0.,1.,0.));
#1039=DIRECTION('',(1.,0.,0.));
#1040=DIRECTION('',(0.,1.,0.));
#1041=DIRECTION('',(1.,0.,0.));
#1042=DIRECTION('',(0.,1.,0.));
#1043=DIRECTION('',(1.,0.,0.));
#1044=DIRECTION('',(0.,1.,0.));
#1045=DIRECTION('',(1.,0.,0.));
#1046=DIRECTION('',(0.,1.,0.));
#1047=DIRECTION('',(1.,0.,0.));
#1048=DIRECTION('',(0.,1.,0.));
#1049=DIRECTION('',(1.,0.,0.));
#1050=DIRECTION('',(0.,1.,0.));
#1051=DIRECTION('',(1.,0.,0.));
#1052=DIRECTION('',(0.,1.,0.));
#1053=DIRECTION('',(1.,0.,0.));
#1054=DIRECTION('',(0.,1.,0.));
#1055=DIRECTION('',(1.,0.,0.));
#1056=DIRECTION('',(0.,1.,0.));
#1057=DIRECTION('',(1.,0.,0.));
#1058=DIRECTION('',(0.,1.,0.));
#1059=DIRECTION('',(1.,0.,0.));
#1060=DIRECTION('',(0.,1.,0.));
#1061=DIRECTION('',(1.,0.,0.));
#1062=DIRECTION('',(0.,1.,0.));
#1063=DIRECTION('',(1.,0.,0.));
#1064=DIRECTION('',(0.,-1.,0.));
#1065=DIRECTION('',(-1.,0.,0.));
#1066=DIRECTION('',(0.,1.,0.));
#1067=DIRECTION('',(1.,0.,0.));
#1068=DIRECTION('',(0.,1.,0.));
#1069=DIRECTION('',(1.,0.,0.));
#1070=DIRECTION('',(0.,1.,0.));
#1071=DIRECTION('',(1.,0.,0.));
#1072=DIRECTION('',(0.,-1.,0.));
#1073=DIRECTION('',(-1.,0.,0.));
#1074=DIRECTION('',(0.,1.,0.));
#1075=DIRECTION('',(1.,0.,0.));
#1076=DIRECTION('',(0.,1.,0.));
#1077=DIRECTION('',(1.,0.,0.));
#1078=DIRECTION('',(0.,1.,0.));
#1079=DIRECTION('',(1.,0.,0.));
#1080=DIRECTION('',(0.,-1.,0.));
#1081=DIRECTION('',(-1.,0.,0.));
#1082=DIRECTION('',(0.,1.,0.));
#1083=DIRECTION('',(1.,0.,0.));
#1084=DIRECTION('',(0.,1.,0.));
#1085=DIRECTION('',(1.,0.,0.));
#1086=DIRECTION('',(0.,1.,0.));
#1087=DIRECTION('',(1.,0.,0.));
#1088=DIRECTION('',(0.,-1.,0.));
#1089=DIRECTION('',(-1.,0.,0.));
#1090=DIRECTION('',(0.,1.,0.));
#1091=DIRECTION('',(1.,0.,0.));
#1092=DIRECTION('',(0.,1.,0.));
#1093=DIRECTION('',(1.,0.,0.));
#1094=DIRECTION('',(0.,1.,0.));
#1095=DIRECTION('',(1.,0.,0.));
#1096=DIRECTION('',(0.,-1.,0.));
#1097=DIRECTION('',(-1.,0.,0.));
#1098=DIRECTION('',(0.,1.,0.));
#1099=DIRECTION('',(1.,0.,0.));
#1100=DIRECTION('',(0.,1.,0.));
#1101=DIRECTION('',(1.,0.,0.));
#1102=DIRECTION('',(0.,1.,0.));
#1103=DIRECTION('',(1.,0.,0.));
#1104=DIRECTION('',(0.,-1.,0.));
#1105=DIRECTION('',(-1.,0.,0.));
#1106=DIRECTION('',(0.,1.,0.));
#1107=DIRECTION('',(1.,0.,0.));
#1108=DIRECTION('',(0.,1.,0.));
#1109=DIRECTION('',(1.,0.,0.));
#1110=DIRECTION('',(0.,1.,0.));
#1111=DIRECTION('',(1.,0.,0.));
#1112=DIRECTION('',(0.,-1.,0.));
#1113=DIRECTION('',(-1.,0.,0.));
#1114=DIRECTION('',(0.,1.,0.));
#1115=DIRECTION('',(1.,0.,0.));
#1116=DIRECTION('',(0.,1.,0.));
#1117=DIRECTION('',(1.,0.,0.));
#1118=DIRECTION('',(0.,1.,0.));
#1119=DIRECTION('',(1.,0.,0.));
#1120=DIRECTION('',(0.,-1.,0.));
#1121=DIRECTION('',(-1.,0.,0.));
#1122=DIRECTION('',(0.,1.,0.));
#1123=DIRECTION('',(1.,0.,0.));
#1124=DIRECTION('',(0.,1.,0.));
#1125=DIRECTION('',(1.,0.,0.));
#1126=DIRECTION('',(0.,1.,0.));
#1127=DIRECTION('',(1.,0.,0.));
#1128=DIRECTION('',(0.,1.,0.));
#1129=DIRECTION('',(1.,0.,0.));
#1130=DIRECTION('',(0.,1.,0.));
#1131=DIRECTION('',(1.,0.,0.));
#1132=DIRECTION('',(0.,1.,0.));
#1133=DIRECTION('',(1.,0.,0.));
#1134=DIRECTION('',(0.,1.,0.));
#1135=DIRECTION('',(1.,0.,0.));
#1136=DIRECTION('',(0.,1.,0.));
#1137=DIRECTION('',(1.,0.,0.));
#1138=DIRECTION('',(0.,1.,0.));
#1139=DIRECTION('',(1.,0.,0.));
#1140=DIRECTION('',(0.,1.,0.));
#1141=DIRECTION('',(1.,0.,0.));
#1142=DIRECTION('',(0.,1.,0.));
#1143=DIRECTION('',(1.,0.,0.));
#1144=CARTESIAN_POINT('',(0.,0.,0.));
#1145=CARTESIAN_POINT('',(0.1455,-0.0049,0.03332));
#1146=CARTESIAN_POINT('',(0.1455,-0.0074,0.03332));
#1147=CARTESIAN_POINT('',(0.14296,-0.0074,0.03332));
#1148=CARTESIAN_POINT('',(0.14804,-0.0074,0.03332));
#1149=CARTESIAN_POINT('',(0.14296,-0.0049,0.03332));
#1150=CARTESIAN_POINT('',(0.14296,-0.0049,0.03332));
#1151=CARTESIAN_POINT('',(0.1455,-0.0049,0.03332));
#1152=CARTESIAN_POINT('',(0.14804,-0.0049,0.03332));
#1153=CARTESIAN_POINT('',(0.14804,-0.0049,0.03332));
#1154=CARTESIAN_POINT('',(0.14296,-0.0049,0.0384));
#1155=CARTESIAN_POINT('',(0.14296,-0.0074,0.0384));
#1156=CARTESIAN_POINT('',(0.14296,-0.0074,0.04348));
#1157=CARTESIAN_POINT('',(0.14296,-0.0049,0.04348));
#1158=CARTESIAN_POINT('',(0.14296,-0.0049,0.04348));
#1159=CARTESIAN_POINT('',(0.14296,-0.0049,0.0384));
#1160=CARTESIAN_POINT('',(0.1455,-0.0049,0.04348));
#1161=CARTESIAN_POINT('',(0.1455,-0.0074,0.04348));
#1162=CARTESIAN_POINT('',(0.14804,-0.0074,0.04348));
#1163=CARTESIAN_POINT('',(0.14804,-0.0049,0.04348));
#1164=CARTESIAN_POINT('',(0.14804,-0.0049,0.04348));
#1165=CARTESIAN_POINT('',(0.1455,-0.0049,0.04348));
#1166=CARTESIAN_POINT('',(0.14804,-0.0049,0.0384));
#1167=CARTESIAN_POINT('',(0.14804,-0.0074,0.0384));
#1168=CARTESIAN_POINT('',(0.14804,-0.0049,0.0384));
#1169=CARTESIAN_POINT('',(0.142,-0.0049,0.0384));
#1170=CARTESIAN_POINT('',(0.14677,-0.0049,0.04221));
#1171=CARTESIAN_POINT('',(0.14752,-0.0049,0.04221));
#1172=CARTESIAN_POINT('',(0.14423,-0.0049,0.04221));
#1173=CARTESIAN_POINT('',(0.14498,-0.0049,0.04221));
#1174=CARTESIAN_POINT('',(0.14677,-0.0049,0.03967));
#1175=CARTESIAN_POINT('',(0.14752,-0.0049,0.03967));
#1176=CARTESIAN_POINT('',(0.14423,-0.0049,0.03967));
#1177=CARTESIAN_POINT('',(0.14498,-0.0049,0.03967));
#1178=CARTESIAN_POINT('',(0.14677,-0.0049,0.03713));
#1179=CARTESIAN_POINT('',(0.14752,-0.0049,0.03713));
#1180=CARTESIAN_POINT('',(0.14423,-0.0049,0.03713));
#1181=CARTESIAN_POINT('',(0.14498,-0.0049,0.03713));
#1182=CARTESIAN_POINT('',(0.14677,-0.0049,0.03459));
#1183=CARTESIAN_POINT('',(0.14752,-0.0049,0.03459));
#1184=CARTESIAN_POINT('',(0.14423,-0.0049,0.03459));
#1185=CARTESIAN_POINT('',(0.14498,-0.0049,0.03459));
#1186=CARTESIAN_POINT('',(0.142,-0.0074,0.0384));
#1187=CARTESIAN_POINT('',(0.14677,-0.0074,0.04221));
#1188=CARTESIAN_POINT('',(0.14752,-0.0074,0.04221));
#1189=CARTESIAN_POINT('',(0.14423,-0.0074,0.04221));
#1190=CARTESIAN_POINT('',(0.14498,-0.0074,0.04221));
#1191=CARTESIAN_POINT('',(0.14677,-0.0074,0.03967));
#1192=CARTESIAN_POINT('',(0.14752,-0.0074,0.03967));
#1193=CARTESIAN_POINT('',(0.14423,-0.0074,0.03967));
#1194=CARTESIAN_POINT('',(0.14498,-0.0074,0.03967));
#1195=CARTESIAN_POINT('',(0.14677,-0.0074,0.03713));
#1196=CARTESIAN_POINT('',(0.14752,-0.0074,0.03713));
#1197=CARTESIAN_POINT('',(0.14423,-0.0074,0.03713));
#1198=CARTESIAN_POINT('',(0.14498,-0.0074,0.03713));
#1199=CARTESIAN_POINT('',(0.14677,-0.0074,0.03459));
#1200=CARTESIAN_POINT('',(0.14752,-0.0074,0.03459));
#1201=CARTESIAN_POINT('',(0.14423,-0.0074,0.03459));
#1202=CARTESIAN_POINT('',(0.14498,-0.0074,0.03459));
#1203=CARTESIAN_POINT('',(0.142,-0.0079,0.0384));
#1204=CARTESIAN_POINT('',(0.14423,-0.0079,0.03459));
#1205=CARTESIAN_POINT('',(0.14498,-0.0079,0.03459));
#1206=CARTESIAN_POINT('',(0.14423,-0.0029,0.03459));
#1207=CARTESIAN_POINT('',(0.142,-0.0079,0.0384));
#1208=CARTESIAN_POINT('',(0.14677,-0.0079,0.03967));
#1209=CARTESIAN_POINT('',(0.14752,-0.0079,0.03967));
#1210=CARTESIAN_POINT('',(0.14677,-0.0029,0.03967));
#1211=CARTESIAN_POINT('',(0.142,-0.0079,0.0384));
#1212=CARTESIAN_POINT('',(0.14423,-0.0079,0.04221));
#1213=CARTESIAN_POINT('',(0.14498,-0.0079,0.04221));
#1214=CARTESIAN_POINT('',(0.14423,-0.0029,0.04221));
#1215=CARTESIAN_POINT('',(0.142,-0.0079,0.0384));
#1216=CARTESIAN_POINT('',(0.14677,-0.0079,0.04221));
#1217=CARTESIAN_POINT('',(0.14752,-0.0079,0.04221));
#1218=CARTESIAN_POINT('',(0.14677,-0.0029,0.04221));
#1219=CARTESIAN_POINT('',(0.142,-0.0079,0.0384));
#1220=CARTESIAN_POINT('',(0.14423,-0.0079,0.03967));
#1221=CARTESIAN_POINT('',(0.14498,-0.0079,0.03967));
#1222=CARTESIAN_POINT('',(0.14423,-0.0029,0.03967));
#1223=CARTESIAN_POINT('',(0.142,-0.0079,0.0384));
#1224=CARTESIAN_POINT('',(0.14423,-0.0079,0.03713));
#1225=CARTESIAN_POINT('',(0.14498,-0.0079,0.03713));
#1226=CARTESIAN_POINT('',(0.14423,-0.0029,0.03713));
#1227=CARTESIAN_POINT('',(0.142,-0.0079,0.0384));
#1228=CARTESIAN_POINT('',(0.14677,-0.0079,0.03713));
#1229=CARTESIAN_POINT('',(0.14752,-0.0079,0.03713));
#1230=CARTESIAN_POINT('',(0.14677,-0.0029,0.03713));
#1231=CARTESIAN_POINT('',(0.142,-0.0079,0.0384));
#1232=CARTESIAN_POINT('',(0.14677,-0.0079,0.03459));
#1233=CARTESIAN_POINT('',(0.14752,-0.0079,0.03459));
#1234=CARTESIAN_POINT('',(0.14677,-0.0029,0.03459));
#1235=CARTESIAN_POINT('',(0.14423,-0.0029,0.03459));
#1236=CARTESIAN_POINT('',(0.14423,-0.0031,0.03459));
#1237=CARTESIAN_POINT('',(0.14498,-0.0031,0.03459));
#1238=CARTESIAN_POINT('',(0.14677,-0.0029,0.03967));
#1239=CARTESIAN_POINT('',(0.14677,-0.0031,0.03967));
#1240=CARTESIAN_POINT('',(0.14752,-0.0031,0.03967));
#1241=CARTESIAN_POINT('',(0.14423,-0.0029,0.04221));
#1242=CARTESIAN_POINT('',(0.14423,-0.0031,0.04221));
#1243=CARTESIAN_POINT('',(0.14498,-0.0031,0.04221));
#1244=CARTESIAN_POINT('',(0.14677,-0.0029,0.04221));
#1245=CARTESIAN_POINT('',(0.14677,-0.0031,0.04221));
#1246=CARTESIAN_POINT('',(0.14752,-0.0031,0.04221));
#1247=CARTESIAN_POINT('',(0.14423,-0.0029,0.03967));
#1248=CARTESIAN_POINT('',(0.14423,-0.0031,0.03967));
#1249=CARTESIAN_POINT('',(0.14498,-0.0031,0.03967));
#1250=CARTESIAN_POINT('',(0.14423,-0.0029,0.03713));
#1251=CARTESIAN_POINT('',(0.14423,-0.0031,0.03713));
#1252=CARTESIAN_POINT('',(0.14498,-0.0031,0.03713));
#1253=CARTESIAN_POINT('',(0.14677,-0.0029,0.03713));
#1254=CARTESIAN_POINT('',(0.14677,-0.0031,0.03713));
#1255=CARTESIAN_POINT('',(0.14752,-0.0031,0.03713));
#1256=CARTESIAN_POINT('',(0.14677,-0.0029,0.03459));
#1257=CARTESIAN_POINT('',(0.14677,-0.0031,0.03459));
#1258=CARTESIAN_POINT('',(0.14752,-0.0031,0.03459));
#1259=CARTESIAN_POINT('',(0.14423,-0.0031,0.04221));
#1260=CARTESIAN_POINT('',(0.14423,-0.0029,0.04221));
#1261=CARTESIAN_POINT('',(0.14478,-0.0029,0.04221));
#1262=CARTESIAN_POINT('',(0.14677,-0.0031,0.04221));
#1263=CARTESIAN_POINT('',(0.14677,-0.0029,0.04221));
#1264=CARTESIAN_POINT('',(0.14732,-0.0029,0.04221));
#1265=CARTESIAN_POINT('',(0.14677,-0.0031,0.03967));
#1266=CARTESIAN_POINT('',(0.14677,-0.0029,0.03967));
#1267=CARTESIAN_POINT('',(0.14732,-0.0029,0.03967));
#1268=CARTESIAN_POINT('',(0.14423,-0.0031,0.03967));
#1269=CARTESIAN_POINT('',(0.14423,-0.0029,0.03967));
#1270=CARTESIAN_POINT('',(0.14478,-0.0029,0.03967));
#1271=CARTESIAN_POINT('',(0.14423,-0.0031,0.03713));
#1272=CARTESIAN_POINT('',(0.14423,-0.0029,0.03713));
#1273=CARTESIAN_POINT('',(0.14478,-0.0029,0.03713));
#1274=CARTESIAN_POINT('',(0.14677,-0.0031,0.03713));
#1275=CARTESIAN_POINT('',(0.14677,-0.0029,0.03713));
#1276=CARTESIAN_POINT('',(0.14732,-0.0029,0.03713));
#1277=CARTESIAN_POINT('',(0.14677,-0.0031,0.03459));
#1278=CARTESIAN_POINT('',(0.14677,-0.0029,0.03459));
#1279=CARTESIAN_POINT('',(0.14732,-0.0029,0.03459));
#1280=CARTESIAN_POINT('',(0.14423,-0.0031,0.03459));
#1281=CARTESIAN_POINT('',(0.14423,-0.0029,0.03459));
#1282=CARTESIAN_POINT('',(0.14478,-0.0029,0.03459));
#1283=CARTESIAN_POINT('',(0.14423,-0.001598,0.03459));
#1284=CARTESIAN_POINT('',(0.14423,-0.0021,0.03459));
#1285=CARTESIAN_POINT('',(0.14478,-0.0021,0.03459));
#1286=CARTESIAN_POINT('',(0.07525,-0.0016,0.0384));
#1287=CARTESIAN_POINT('',(0.14423,-0.0016,0.03459));
#1288=CARTESIAN_POINT('',(0.14428,-0.0016,0.03459));
#1289=CARTESIAN_POINT('',(0.14677,-0.001598,0.03459));
#1290=CARTESIAN_POINT('',(0.14677,-0.0021,0.03459));
#1291=CARTESIAN_POINT('',(0.14732,-0.0021,0.03459));
#1292=CARTESIAN_POINT('',(0.07525,-0.0016,0.0384));
#1293=CARTESIAN_POINT('',(0.14677,-0.0016,0.03459));
#1294=CARTESIAN_POINT('',(0.14682,-0.0016,0.03459));
#1295=CARTESIAN_POINT('',(0.14677,-0.001598,0.03713));
#1296=CARTESIAN_POINT('',(0.14677,-0.0021,0.03713));
#1297=CARTESIAN_POINT('',(0.14732,-0.0021,0.03713));
#1298=CARTESIAN_POINT('',(0.07525,-0.0016,0.0384));
#1299=CARTESIAN_POINT('',(0.14677,-0.0016,0.03713));
#1300=CARTESIAN_POINT('',(0.14682,-0.0016,0.03713));
#1301=CARTESIAN_POINT('',(0.14423,-0.001598,0.03713));
#1302=CARTESIAN_POINT('',(0.14423,-0.0021,0.03713));
#1303=CARTESIAN_POINT('',(0.14478,-0.0021,0.03713));
#1304=CARTESIAN_POINT('',(0.07525,-0.0016,0.0384));
#1305=CARTESIAN_POINT('',(0.14423,-0.0016,0.03713));
#1306=CARTESIAN_POINT('',(0.14428,-0.0016,0.03713));
#1307=CARTESIAN_POINT('',(0.14423,-0.001598,0.03967));
#1308=CARTESIAN_POINT('',(0.14423,-0.0021,0.03967));
#1309=CARTESIAN_POINT('',(0.14478,-0.0021,0.03967));
#1310=CARTESIAN_POINT('',(0.07525,-0.0016,0.0384));
#1311=CARTESIAN_POINT('',(0.14423,-0.0016,0.03967));
#1312=CARTESIAN_POINT('',(0.14428,-0.0016,0.03967));
#1313=CARTESIAN_POINT('',(0.14677,-0.001598,0.03967));
#1314=CARTESIAN_POINT('',(0.14677,-0.0021,0.03967));
#1315=CARTESIAN_POINT('',(0.14732,-0.0021,0.03967));
#1316=CARTESIAN_POINT('',(0.07525,-0.0016,0.0384));
#1317=CARTESIAN_POINT('',(0.14677,-0.0016,0.03967));
#1318=CARTESIAN_POINT('',(0.14682,-0.0016,0.03967));
#1319=CARTESIAN_POINT('',(0.14677,-0.001598,0.04221));
#1320=CARTESIAN_POINT('',(0.14677,-0.0021,0.04221));
#1321=CARTESIAN_POINT('',(0.14732,-0.0021,0.04221));
#1322=CARTESIAN_POINT('',(0.07525,-0.0016,0.0384));
#1323=CARTESIAN_POINT('',(0.14677,-0.0016,0.04221));
#1324=CARTESIAN_POINT('',(0.14682,-0.0016,0.04221));
#1325=CARTESIAN_POINT('',(0.14423,-0.001598,0.04221));
#1326=CARTESIAN_POINT('',(0.14423,-0.0021,0.04221));
#1327=CARTESIAN_POINT('',(0.14478,-0.0021,0.04221));
#1328=CARTESIAN_POINT('',(0.07525,-0.0016,0.0384));
#1329=CARTESIAN_POINT('',(0.14423,-0.0016,0.04221));
#1330=CARTESIAN_POINT('',(0.14428,-0.0016,0.04221));
#1331=CARTESIAN_POINT('',(0.14677,-0.0021,0.04221));
#1332=CARTESIAN_POINT('',(0.14423,-0.0021,0.04221));
#1333=CARTESIAN_POINT('',(0.14677,-0.0021,0.03967));
#1334=CARTESIAN_POINT('',(0.14423,-0.0021,0.03967));
#1335=CARTESIAN_POINT('',(0.14423,-0.0021,0.03713));
#1336=CARTESIAN_POINT('',(0.14677,-0.0021,0.03713));
#1337=CARTESIAN_POINT('',(0.14677,-0.0021,0.03459));
#1338=CARTESIAN_POINT('',(0.14423,-0.0021,0.03459));
#1339=MECHANICAL_DESIGN_GEOMETRIC_PRESENTATION_REPRESENTATION('',(#728,
#658,#659,#660,#661,#662,#663),#1340);
#1340=(
GEOMETRIC_REPRESENTATION_CONTEXT(3)
GLOBAL_UNCERTAINTY_ASSIGNED_CONTEXT((#1341))
GLOBAL_UNIT_ASSIGNED_CONTEXT((#1344,#1343,#1342))
REPRESENTATION_CONTEXT('Part 9','TOP_LEVEL_ASSEMBLY_PART')
);
#1341=UNCERTAINTY_MEASURE_WITH_UNIT(LENGTH_MEASURE(1.E-8),#1344,
'DISTANCE_ACCURACY_VALUE','Maximum Tolerance applied to model');
#1342=(
NAMED_UNIT(*)
SI_UNIT($,.STERADIAN.)
SOLID_ANGLE_UNIT()
);
#1343=(
NAMED_UNIT(*)
PLANE_ANGLE_UNIT()
SI_UNIT($,.RADIAN.)
);
#1344=(
LENGTH_UNIT()
NAMED_UNIT(*)
SI_UNIT($,.METRE.)
);
#1345=PRODUCT_DEFINITION_SHAPE('','',#1346);
#1346=PRODUCT_DEFINITION('','',#1348,#1347);
#1347=PRODUCT_DEFINITION_CONTEXT('',#1354,'design');
#1348=PRODUCT_DEFINITION_FORMATION_WITH_SPECIFIED_SOURCE('','',#1350,
 .NOT_KNOWN.);
#1349=PRODUCT_RELATED_PRODUCT_CATEGORY('','',(#1350));
#1350=PRODUCT('Part 9','Part 9','Part 9',(#1352));
#1351=PRODUCT_CATEGORY('','');
#1352=PRODUCT_CONTEXT('',#1354,'mechanical');
#1353=APPLICATION_PROTOCOL_DEFINITION('international standard',
'ap242_managed_model_based_3d_engineering',2020,#1354);
#1354=APPLICATION_CONTEXT('managed model based 3d engineering');
ENDSEC;
END-ISO-10303-21;
